<mxfile host="65bd71144e">
    <diagram id="poRkc7PlUlhEA70JiAO8" name="system_diagram">
        <mxGraphModel dx="995" dy="800" grid="1" gridSize="10" guides="1" tooltips="1" connect="1" arrows="1" fold="1" page="1" pageScale="1" pageWidth="827" pageHeight="1169" math="0" shadow="0">
            <root>
                <mxCell id="0"/>
                <mxCell id="1" parent="0"/>
                <mxCell id="4" value="VPC" style="sketch=0;outlineConnect=0;gradientColor=none;html=1;whiteSpace=wrap;fontSize=12;fontStyle=0;shape=mxgraph.aws4.group;grIcon=mxgraph.aws4.group_vpc;strokeColor=#879196;fillColor=none;verticalAlign=top;align=left;spacingLeft=30;fontColor=#879196;dashed=0;" parent="1" vertex="1">
                    <mxGeometry x="240" y="190" width="740" height="410" as="geometry"/>
                </mxCell>
                <mxCell id="6" value="Availability zone" style="sketch=0;outlineConnect=0;gradientColor=none;html=1;whiteSpace=wrap;fontSize=12;fontStyle=0;shape=mxgraph.aws4.group;grIcon=mxgraph.aws4.group_availability_zone;strokeColor=#545B64;fillColor=none;verticalAlign=top;align=left;spacingLeft=30;fontColor=#545B64;dashed=1;" parent="1" vertex="1">
                    <mxGeometry x="284" y="240" width="306" height="320" as="geometry"/>
                </mxCell>
                <mxCell id="3" value="https://res.cloudinary.com/canonical/image/fetch/f_auto,q_auto,fl_sanitize,w_800,h_583/https://dashboard.snapcraft.io/site_media/appmedia/2020/02/logo-square.png" style="sketch=0;outlineConnect=0;gradientColor=none;html=1;whiteSpace=wrap;fontSize=12;fontStyle=0;shape=mxgraph.aws4.group;grIcon=mxgraph.aws4.group_aws_cloud;strokeColor=#AAB7B8;fillColor=none;verticalAlign=top;align=left;spacingLeft=30;fontColor=#AAB7B8;dashed=0;" parent="1" vertex="1">
                    <mxGeometry x="150" y="100" width="970" height="720" as="geometry"/>
                </mxCell>
                <mxCell id="9" value="Public subnet" style="points=[[0,0],[0.25,0],[0.5,0],[0.75,0],[1,0],[1,0.25],[1,0.5],[1,0.75],[1,1],[0.75,1],[0.5,1],[0.25,1],[0,1],[0,0.75],[0,0.5],[0,0.25]];outlineConnect=0;gradientColor=none;html=1;whiteSpace=wrap;fontSize=12;fontStyle=0;container=1;pointerEvents=0;collapsible=0;recursiveResize=0;shape=mxgraph.aws4.group;grIcon=mxgraph.aws4.group_security_group;grStroke=0;strokeColor=#248814;fillColor=#E9F3E6;verticalAlign=top;align=left;spacingLeft=30;fontColor=#248814;dashed=0;" parent="1" vertex="1">
                    <mxGeometry x="330" y="280" width="550" height="130" as="geometry"/>
                </mxCell>
                <mxCell id="12" value="Private subnet" style="points=[[0,0],[0.25,0],[0.5,0],[0.75,0],[1,0],[1,0.25],[1,0.5],[1,0.75],[1,1],[0.75,1],[0.5,1],[0.25,1],[0,1],[0,0.75],[0,0.5],[0,0.25]];outlineConnect=0;gradientColor=none;html=1;whiteSpace=wrap;fontSize=12;fontStyle=0;container=1;pointerEvents=0;collapsible=0;recursiveResize=0;shape=mxgraph.aws4.group;grIcon=mxgraph.aws4.group_security_group;grStroke=0;strokeColor=#147EBA;fillColor=#E6F2F8;verticalAlign=top;align=left;spacingLeft=30;fontColor=#147EBA;dashed=0;" parent="1" vertex="1">
                    <mxGeometry x="330" y="420" width="550" height="130" as="geometry"/>
                </mxCell>
                <mxCell id="7" value="Availability zone" style="sketch=0;outlineConnect=0;gradientColor=none;html=1;whiteSpace=wrap;fontSize=12;fontStyle=0;shape=mxgraph.aws4.group;grIcon=mxgraph.aws4.group_availability_zone;strokeColor=#545B64;fillColor=none;verticalAlign=top;align=left;spacingLeft=30;fontColor=#545B64;dashed=1;" parent="1" vertex="1">
                    <mxGeometry x="630" y="240" width="306" height="320" as="geometry"/>
                </mxCell>
                <mxCell id="30" style="edgeStyle=none;html=1;entryX=0.5;entryY=0;entryDx=0;entryDy=0;endArrow=none;endFill=0;strokeColor=default;" parent="1" source="15" target="17" edge="1">
                    <mxGeometry relative="1" as="geometry"/>
                </mxCell>
                <mxCell id="31" style="edgeStyle=none;html=1;entryX=0.5;entryY=0;entryDx=0;entryDy=0;endArrow=none;endFill=0;strokeColor=default;" parent="1" source="15" edge="1">
                    <mxGeometry relative="1" as="geometry">
                        <mxPoint x="765" y="450" as="targetPoint"/>
                    </mxGeometry>
                </mxCell>
                <mxCell id="15" value="" style="sketch=0;outlineConnect=0;fontColor=#232F3E;gradientColor=none;fillColor=#4D27AA;strokeColor=none;dashed=0;verticalLabelPosition=bottom;verticalAlign=top;align=center;html=1;fontSize=12;fontStyle=0;aspect=fixed;pointerEvents=1;shape=mxgraph.aws4.application_load_balancer;" parent="1" vertex="1">
                    <mxGeometry x="576" y="310" width="58" height="58" as="geometry"/>
                </mxCell>
                <mxCell id="19" value="" style="group" parent="1" vertex="1" connectable="0">
                    <mxGeometry x="392" y="450" width="208" height="90" as="geometry"/>
                </mxCell>
                <mxCell id="23" value="" style="sketch=0;outlineConnect=0;fontColor=#232F3E;gradientColor=none;fillColor=#D45B07;strokeColor=none;dashed=0;verticalLabelPosition=bottom;verticalAlign=top;align=center;html=1;fontSize=12;fontStyle=0;aspect=fixed;pointerEvents=1;shape=mxgraph.aws4.ecs_task;" parent="19" vertex="1">
                    <mxGeometry width="15.42" height="20" as="geometry"/>
                </mxCell>
                <mxCell id="61" value="" style="group" parent="19" vertex="1" connectable="0">
                    <mxGeometry width="208" height="90" as="geometry"/>
                </mxCell>
                <mxCell id="17" value="&lt;div&gt;&lt;span&gt;&amp;nbsp; &amp;nbsp; &amp;nbsp;ECS Task&lt;/span&gt;&lt;/div&gt;" style="outlineConnect=0;gradientColor=none;html=1;whiteSpace=wrap;fontSize=12;fontStyle=0;strokeColor=#FFB366;fillColor=none;verticalAlign=top;align=left;fontColor=#858B94;spacingTop=3;" parent="61" vertex="1">
                    <mxGeometry width="168" height="90" as="geometry"/>
                </mxCell>
                <mxCell id="59" value="color app" style="sketch=0;outlineConnect=0;dashed=0;verticalLabelPosition=bottom;verticalAlign=top;align=center;html=1;fontSize=12;fontStyle=0;aspect=fixed;shape=mxgraph.aws4.resourceIcon;resIcon=mxgraph.aws4.container_1;labelBackgroundColor=none;fillColor=none;" parent="61" vertex="1">
                    <mxGeometry x="22" y="30" width="40" height="40" as="geometry"/>
                </mxCell>
                <mxCell id="60" value="FireLens" style="sketch=0;outlineConnect=0;fontColor=#232F3E;gradientColor=none;strokeColor=#232F3E;fillColor=none;dashed=0;verticalLabelPosition=bottom;verticalAlign=top;align=center;html=1;fontSize=12;fontStyle=0;aspect=fixed;shape=mxgraph.aws4.resourceIcon;resIcon=mxgraph.aws4.container_2;" parent="61" vertex="1">
                    <mxGeometry x="108" y="30" width="40" height="40" as="geometry"/>
                </mxCell>
                <mxCell id="100" value="" style="shape=image;imageAspect=0;aspect=fixed;verticalLabelPosition=bottom;verticalAlign=top;image=data:image/png,iVBORw0KGgoAAAANSUhEUgAAAyAAAAJHCAMAAABfKMIMAAACfFBMVEVHcEwAAAAtg4YAAAAAAAAAAAAtfn8xtKUAAAAAAAAAAAAAAQIAAAAwuZ8dVlcwuZ8CBAgAAAAwuZ4AAAAAAAAAAABNrZQlmLkAAAAwuJ4yt50emcYAAAAAAAAxtJ0wt54xt55WtYkcnccwV5Qco80wuZ4Yn8YwuJ4AAAAimssAAAAhjrUxaKQwtp4Un7cUoLcudq+PwGo1a64ahKweoc9Yq4UvdbIfrtmjx2AeutwestoZmralyF9/unInfbRerYEthsYjnc86a64tUIl4uHWpyV0DrMBhr4EguOIegK0kmcswtJ4EqsAqSX0QHC4AAAAwuZ4AuLtOXKgRiqg6Z7AXhak3dbhEcLc4crYZg6k4b7Ugfao5bLNKZK40gr9IZ7A1gb5eroFksH40h8FarIMxkMZqsntGbbVHarM2ebo1fr02e7tMX6o2d7kdgKo8opU0hcAod6syoJ5DdLoCtLszisMkeqo5abFNp4pCo485oZc2oZpWq4UTiKhQqIgqveZFpI5TqYdKposquuQGrLszjMQUh6gptuJwtHlBd7wnnqgsc6sfnbA9gcNAer4/o5IuoKE0g78rweg/fcBLYawBtrs7hMVHpY0jnawrn6QDsrt1tncpsuAEr7sYnLU+f8IbgakziMI6iMh4t3UzbawwcKword0nqNqDu284aawyjsX///82kM4Um7uTwWg4jMsmodZ+uXI0ldKJvW2AunGXw2aMv2suotuQwGmlyF+fxmIqquExm9Z7uHOrylwlmdGGvG4nseabxGS0zlgjuOskkswkiscgv/EuY6AkhMENpLgrfrQaqqwPt8lhj8jH2OyPrteqw+KDp9R/p9VQofF6AAAATnRSTlMA1wruqJkEGovMWDUvuRF6HmbcunrJJC7gmmJFRvhLyos5Xvx285HlxL1w/l6pzK2BVdzy0tuqpnX65+3X0sF63PX11pWo77TG3uXU25xOnBtFAAA+l0lEQVR42uydz0sjaR7GGw96WGjmZA65WSEQNkyLK0rbIK1eemW9SHAkRBOQxti2EJEmxz0tjTQK0uJJdlDyg1oaDF5ySCAIJlMhMIf5i/b9VVXvm1TFiiZtKj4fo4e5TcaPz/f5vm9lXr0aEqZXtJhurKz97RUAoI1JLZaNcbS1X/B+ANDmh4S+EsVbAoCN4gdiBAC1f7T7QeetlbUxvDMAOAWIGSOv8d4AMKHH3FjBqAVePGuufrBRC40dvGxWYt3RVhAjAIK4shzTV3B+CCBINzBpgZeK9rAeWYIGRQASxF0Quvcdx7sFIIjTNosqksgaa0E4Al4Ya54CRKCthHB8CF4UUQ+CcEcS2UQ8rs2EJ/CmgZfDmOE1QRLMkaw2sxjA2wZeDJq3CsIjhL5yWguKALR0xwChr4SuNaEIQAmxKoiVIcwPgmE03wfx3gHMWEqCSEARgBlL2mHxAJGIa4dQBLz4GUsKkDZB4lmtCUXAyDOudd9hxRwDhAgSj5M5C4qAFz1juQcIw8gTRbDRAqPML/pjKghXhLT1VrO5OIl3EbzICLHvmXQmiEgRncxZzTlcQAGjyljUwzF6RwUxhyxRRZpzuMYIRtUQrfuzIO4VhLO5YRw2G80wPksLjCTjax52WFnXAIlvbpIUISHSDOF5ETCKBLTuFSThtORNSIJsxjdzBgkR7HzBKCaIa0133WG1JQiFzFmNRgM7XzCCTGvdHyZMdJ+wBGTOIoosYqEFRi5DtC4VJJbIdu/oNrlvxJAG2joYNea0Bx5H71jyJpwEISHSIoY0p/COgpFiUnOrIA8ueRVBNjbiRgNVBIwcM1pv90ycA2SDfrGy3oigioARImroLkusmOOSN+4mCOGAlfXGNE5FwOiwrPV0z6RLghBD8qysX+FUBIwM07rhUtK9VxBmhxwi73HNF4wI4x0R0nsFMRPEDhGsfMGoMKdrziNWwmsF4XoIQ1iI1BuNL1j5gpHgdbsgvKI7HKN3SRBLD8LeJgmROuYsMCIz1lxMc7mo2CVBOgYs25CDg408aSL1eiOMfRbwP5Mxpadn3Tt6Iu4WIHKCHBBDSIjUaYpgnwX8z4wSIa5L3oSnCkL9oOSb1JD6e5wbAr8TiMmGiHsmDhWkS4KoAcKgIUIdwZwF/B8h9nn6Q59n4qGCUPbI97dmnbKK+1nA30SlCHH7OJOOhwmVCtIhyMEeYfOQZUg9gkMR4PMIsXa9vTxMaB2jO0xYzJADOmYRGjgUAf6OEN0csqQllrcJq22JpQiyt5dvMUNQ1oHPI0QMWdlsjw8TOix5JUH29w++cUPq03iXgZ8jhA9Zvd/kda4gIkCoI6Kro6wDH7McixlGl47e/SavW4CwDNk/OBQhgo0v8HGE0CErm7X3vB4D5GFB9vdpV6+R10ecrAN/Mk4ihAxZrhexPAaIiyD7LdrVa+QLG1/g3wjRtUdWEHc/hCD7+4fCkCVsfIEfE4S0ED1m6Fm3U5DHVxDOJ3YkghABPo8Qlw/8eVIFYYJ82msxP2q1OkIE+JAZ05BsNtvDw4SOgux1CkIUOeR+1GqzODYE/owQ3XB7FORpFYToQQ1pUD3IN5oI8GeExDT9oQTZfEwFIXZQWs3aLVUEIQL8R5BGSEx76Kaie4B0rSCc/UM2Y1FCeMeB3yLEqiGeHyb0PGGZHAo/ECLAbwRYhDBDvD9M2MuERUntNU1DamgiwEeM80UWOw3x/DBhz4LQJlJDiAA/MikiRM/28DBhLxWERcinlG0IQgT4icUYL+oJTwnymAoiMoQUkWqtVkKIAF8xQY9C6LMh3v6/OY+asFIpmiENlh9V4gjORIB/mIt1GvL0CqLGR4o5wqt6iToSeY03HviD1zGRIcbjK4jzPRMlQqghLWIHmbFK5OcSnhMBPtlkTevMD93QPX2eySN2WEKQFK/qVBHyNY+HDYE/DFk2a0jW0+eZ9C5IyoJUdTJiET9IiuCJdeAPQaI8QWJWDfFY0b1XEJtPDTNBiCK4egJ8wQw3xCrq/bjJ6yJIKtVkHaRaosyiqwMfREiAz1hZYcjTHybsIshZqlmiq94SG7Sw8AV+MGRGNzH69DCha4Bsb6dafMBiGVKKoKuDoWeC3TcxDenDw4TdBNnOcEPEmIWuDoafOepGVufL3kFWkG3KWctOEHR14APGlrkezJA+V5D2ANk+O8u06pIhJXzqCRh2pnmE5NiQNdAKQvwgbNdL1pBVKuJcHQw7y0SNHIuRnJYYWAXZNgU5O2uY+VGmP8L4LwCGmijrIDmaITmtjzd53QTJ2IYU6Qt34MFwY656iSO2IZv9ryAiQDKZs6apB1PE/2PW+GQgGp2mzJHvaDDwzM5PTIXnP8wuLCy8ffv269d7GfJPFhY+hKfwV8k7AaGHkiH9vWeiCmIawhOkXPTxmDUWnF6c2U2n07uE3xhH9OtoP/V+cTrwU496AqF5IsXbwuUd4/7unr4Ef9z/obKAX3zPzDE3mB9WhvThYUKXCpKhNHkDYYaQL1/ePBmLLi4nk8k0Y5cZsmsbcnR0TCCahCZ+hhjFQqFSIVpU7iw97hQ/qCKKJMgQ7/+l6R4rx3tILmf0qYKkXCpIxjTE0qNU9N+YNTlH5UimhR+yIMKPo2OqyOn309PUu8hALtYEwkSMYrHCKBA3KpIfcoJQPToiBIJ4Z1pKEJ0Z0o+HCV0nLMsQMWEVy0V/jVlj4eXkVjLJDUlafuwqfvAIIYqcnhJNUv+L9PFvQDA8u1QsliuVstCDIvnRniBmgEiSzOPXvreebuqRYxnSt4cJXQUhhpgJQl/F4qxfDg2D/0xubdGXFCG7aYcEMf0gfP/+/fR7ZjX81H/H8an52aVSuVwmdpTJq0Jfph3yiEUdubdLiC3Hvz/Mh0LPvkbw2xYmoOuyIsbgKkgm02lImSuy5Iu7WVP/IG5sCUPSSgUReih+CEGoIYTfMx/fPPZXczLM1RBwP8oVCUkPPl/dyQHyYT5MxMAN0cf2dKaHziNENwZdQQg7O00xYTE/qCUhH+ixdX6+xQ2REkQJEDFhsQpyLOnxO+Xk5KT3YStA3ahWy+Uq+ZL0aEsQ2Y87u4HQrW4QifG0CBkzA4QbkjMGuOQ1BckQQ/iMVS4KhvwKfOBd8tz0Y4u1kLRDgkhLLEdBTi4u/uN52ArOry5VGeWqpYciidJAZEXuv5JpKjiJzOhTT+cJYmL0s4JsOwqysyMMESWEsjrEf+nGft38fE4FObcTJJ1s08Oq6DxAjk+POwS5IIacXFx/nA2Nda8bEerGbdWkLAvSNl7dqR39kqqB0Oh7T89Jihh9fJjQsYJQQa6adLay9CgWC6Wh3fdO/f38Mxeks4I4bHk7G4gZIMQPzvX1x1XHBfBEiLhxe0vkuL2V7aB+VN1aCNcDagxsfDDPQToypL/3TGQ/aIaI/sGnrAL5Dg9tfHyWBFEriHpMKFeQY6cJS+jBufm4tBoJT1FC4cjs6hJRw4Tmx62UIHYF6SjolQrtGijhA+3pMnluyMbAKoigIU9YxJDCUO57g/9Nqn5wQ5QlrzpjdasgVA/6RfW4vqGvm5sfNz9Mbn/YfnQkiDpkCUkWaNnAr/CAi/qySBCd6WFlSP/vmSiC7NSlAYsZUhi+fW+49XndEuRcCpA0UWQ37XBKeOy6xGpLEK6HZMitKQibr+wKIieIZAd1g/xFGUd0DJxoTo0QM0MGtOQ1yVBDyrYixJDikO1732wyPToSxDxGT3dexDpyDZATdcK6bguQWztApAqiJkhFKIJbuT+5p0sVJE8E4YYMdsIiRX2nJidIgWZIcZguQoz/S1f8UBOk4xhduWbSpYJcqAEiJ4g8YNmKKMzOh9A3fjYT1hIrzyMknzf6+zChoyBXVzV5yKKOFArDU0TG3m2ttwdIUgRI2uki1m/eKog6YikD1g+5pMunINySCBuqwDMchuSUBKE/VEP6d89EEaRZsho6SxD6c2FISufEu8/riiCdpyDpR1WQi7YAaU8QOT6sQ8Iq5HjOWeLVsmoI4ZtiyAAqyBWjpLR0RjE4HPlB/eioINJFXvUQ5MEA8V5B5JLODImEIcdzH4ZYcnA92qesQVQQRtMMEFFCGKGh9OO87RRkV6og9k33I48V5Ka9glA9zAyRdlhIjuHIkDl5i5UXGRIf4JKXC/LlqlGUpyzB81d17odrBXG4iOX1FMS1glhL3qrZQVbnpyDH8ByGWHbkLENy/b5nstOeIF/ogaEZIaYil4Xnvrz46/l6uyDeLmLxpwltQdonLEsR1wpi2hEJ4RNah4mgWGJJM1b+Wz434Anry9WXL3WlgTA/Cperz/qw+puk7EfHPRPPz0q5BsjN9fWNSwVhS95ICOccw8aidUyYlxQxHhJk/0mCMENKIj6KtiGXlwvP+PczlFsXgqy3nRLax+jOCXL6519//XnqWEFOHANEUeT/7F1Na1RpGh2yqOxcJouAixAEqWCCPQQygoiLwQy9uTc46VCkMzAUVS1OmMJYO6nFTaVoamyw2rgIiaNiEqx0GP+Bq4ROCo2x/9C8H/e99/283xWtW8+p2DS9UBrqeJ5zno/XBRRW3yRG7ooWhEoIYUifQl6XIa9fHwgKskM/Xy/MGu/Zth1kQYSQt+I3QT5dHBJcfApREBbyagTk+iQ8MfSNYtqlh0gRzJA+hLy+giAJOTmgBuTAL7GQhnytMGukaGsI8lxQEL/C4nYJPx96+MMY8hopgk36b9fG/wRt8m+6yBLpgfiBGPJD3ywILbEQQ2QLQhnydZ7FZQZdbYKs8PdMxItYSwI/Dg+/6AUkUEH+DKXVN15kKRYE11iIIXtZLhOKBHEZcuxZECYf5OdrzJ14BiREQGQL8ulQwCe9BWEmXaYIqq3g3v0gFFl7e5KCEBHZy3CZUCII4Qcy6rKCEOz/5dLDnFG/wAq0IFU5wzoXCXKuWSb06yslw0L0gNrq28fNPbnEIvxAItKXOROOIKe8BdlhIrJz+Vbd7RAGhLxik7CiF5DDw6faVRC5C0IpAuoxILjyVhYQlyG13/tjQRg/ms0TSUBcDZnfv9xXca+9MwqIOIkl74J8lgnyxWhB5FWpv02CeAxMkaWxIC5Dfsh8zoQjyOMmsiGCQ/cosn+Zu+rjXIGlWJBVQ4ZFLPqFTJCLIAvyhmujXwNrPjAo4CJLtSCEIe29zOdMBIIwG8JRhKC1M3N5f8Hesu0QBdFmWI/0BPmvyYIwAUH0uA4DJQOFUbGRzlOk/XsfKixGEMwQ34FwNRZiSOvSwqypd1p+6CyI7NF1JZbZgngUmYSv3IBhVmdBqIYgI9IvC4I/rg3hQiyiH/jXJYVZfIJlyLBcBVHvNSgm/VMEC3IdLpIMZJKlWhCXIbTMyj7kxfrRbDY/UHoI+oHo0bqsyazvH9oBFoS/96M593OoxrzGi1guRabAnA8gRrQWhDMi2c2ZCBUWIkj3QFYQKiCtVmv+EoLQybd2oIKYj1ZjinwxV1hPdfd+frsD7mNQkyyeH3yNRT59qLCYgqAiS1GQlvvp/2TWSNHIj+fSKkhVt0x4HiogL/g2+nUYShxU3DYpCGXI37MPeR9TfuAiS0iwPIYg7PR7zdCfwdJmWKvCSUXBolOK/HIu9dFNk7xEQWahvBrcsPduW88PZELwr3bmFsQjyOMDv5PO6QelSH/XDK/2bDvUgpBdkIrcJWTb6F6S9Vl7tJpvo0PrfJAxwc3ycvLhSgiiSIqj1fqQlxGkeWyWkJbTz7h35JaOH/KcidAFUdZtf/7ly8X5+cUfvwafHEU/wI/BxpwX8u6JKVaN/KPW/le2FsQnSPMDoYcnIK56uAzpY9x7Y0UiiH6ZUOBHReKHadtWXiYEe56LrFdnQDy0+2JBmt1mV8h4vRqLYme+X1+tCanAMnRB9EfdlwJfXpPX0YEfOcC40ib0FMRlSfunDENeX0BQkaW0QZiAtJy+xb0FqcAyd0FWuS5IJZKAyMuEwI88YDZEQWr1Wjt7C9LFn/eyfuy0fA1ptfoS986sGPmR1T0T1kZ/A/zIR5HVDlYQUmZlZkE8/UAEORFMOm9B8I/T6kPcqxRYegtSrVZ1N3mXQk4qipO84M/zgVFJQVx7zktIvd3LNuRF9Gh2u90PLkNasgWhBGllv6quFFhGC7Kqf5hQfBw9yILAdGJeMC0riFhj1clPO2ML0sUE6e7LEa+gIE7mcS+7ExfUJtS30eWXCUMtyCx8sXKCQuF2kAWhJKnXaz9lGvISBeke60Isp8X44WQc96oFluaeyYqa8rpd9KXoFuR/c9A/zw9G7qp99DZXYNFPvZZdyMsI0j0Q2bHDV1hO1gwZUQusyDd5o7xty1mQO7A8mCcNGRf76LKCUH4ghvSysiCMH+UTtY3OlViYIxk2RKQZrKhX3YUSK+xxdFpf3YGDuznLekNqrLqrIbUH2cyZMIJ0adQrDGIxBWHIrCEy9dbED/3j6JWEj6O/gIA3dxJCs15PQfQCQkUkSwtCXUhLFRDHVxCEbBoi4hZhyDIhpyBLS7G7IBBg5c+GKINYskf3KPIgEwvS7SoSomRYHjI5d3LroR3ZgpCr7joBeRTlcfQ5OA2XP0wE1FecgmD0spgzYfygLkSusAQBcRqN9C3DAn8HK2SZkEzyVoSTio9ivEwIBj2XmDMrCM+Oegn9epCZBUEMea+psAT9aKDPvbR/J2sS3oCXCatqiBX9ZUIwIPnETW0bXRUQzJFeNiEvoke3XBYrLEdSkAalyL10fy3rEl7TMqE7qFiRMqyoj6ODAckpRvltW6MFwfQoEYqkD3l9CREHTRzJgiB+NBrpGiK6hDekC1LVroKEWpDr8E3KK6ajWZB6CQFR5B/xjlabCFLuHotjWI5oQRrYg2CGpGmI6A2Ids5kparbBYlsQZrgz3NuQ0IsCJUQgl76kBcTpNx971r0HbmNzisIYkjihojegITdM6kkeRwdRnhzjMJCO9yCYHq4HKn3Uoe8xIUcs2F3IeT1BcSVkEYjYXmv7YDEXCaM1AWBAivnGDO00VWKMDxIF/JiAUHY35Hb6JyGNJiCICRqGRa0HZCIy4QV0+Po2gqrDAlvzm1ILZIF4RhS+jGlBcE5Fm6n8+u2XIVFQizGkE4nSctQvtIQNmeiX0ePIiDNKfgK5d2GRLcgLtZ6zxKHvExByn6J5dAQS2gTchLSid8ynDEYdNMyodgFqcSZ5P0evkC5tyE3a+EWhKPImkCRJBaE4EOLB88OXkAaHaQh92L+H03t2XZMC7KqbttGUZA3R+DQ84/RwEEsnYLgn14qC4LAb0s5Qi/d1Q8H04P8xGuqX+3ZUQjCWRChC+IqSCQL0gWHPgyYkAUk0IIQBSmtrfV6SUNeigPTGJagIMSGdGK0DAvjRTuqgJjvmUTMsDbgSPVQYFapsQItCOEHRi+5BUE2XZnk5S2IV2CRIqszH5khQfwIfBZEt40e0gU5ugbfneGwIbfD6CFaEJ8jzxJXWMimCxLC6NFQTDomSCdqU300iB/BuyCV4Da6ukxY/iv00IcEI+0ABSnpFYQw5NXaj7FDXob30q6U2gXpNJiCIESyw6PGBkjQ0eqweyYGAdkFhz40GDMKiIYhHj0oThNZkHL3WLpn0tJ0QbgqqzOZlh+Gx9GFew0xuiBnN+B7MzyYDoh5ZX6UeHpgFTmNHfKKNZa4DtJgGVaDFxCEqZT80D+OLgrIUuRlwvI2nGkYJswZLYhMj5JAj7VXCGun8Sss1gpxpJBXLLE4BQllyFgIPwwKop1UDJ3kfbwODn24sGC0ICUpxxIKrFcUy6fxCXKsE5CGkPEKCtIJbqqPR+eH2YKIFVaABdkAhz5sRt1gQUrBCsIIgihyGiPkZTWW0iV0FcThPXojAkMKV4u2HUtAVvl120o13rs5RxasEQ4bxk0WRPXoqoIgiiwvF0/jWBCWY4m7IHyLkFBEkBBzU32qZ8cgyHPhqvuqIcMyW5CyBUNYw4aC2y9U9CNQQV75WMYkKUavsGiN5cjLhL4H6bAuCE8Rw6b6zJ5tx1YQr49eCe2CiPx4vb4OdxqG1KjXtdu2xpCXJwjB/eJpZIKU2To6v0soNQlFE4LHTkZ08dVqPH5EehzdaEFebFgz8G0ZQg0pLNQ0XZDAkFchCKLI/dNoFqRc3tesozvcoIkqINrBrMniQzu2gHj3THRP2wYqCDIgu7AmNZS4orUgqoLoCLK87DMEy0gEfpCgVzpoQrnhSE1CEWPxy6uwq+5V8zLhz/KcyZFlwZrUkGrIeK0e7kGCBWT5PmYI4shJIEG6ftArTmI1HH6SV6Mg6D/wBmDy1koMfhjumcSxIGULHPrwYlpjQUoxLIirIBSnJyEKUm65MyYtSUE4/6FREG4wa/RGNPkIeByd3OStKk/bmizI43VrC4awhtioK/pRj2dBfIJsbm4WkY5oQt6uYEKklNfhOukmhjToV7Qw03toRyVIwD0TxYOYFeSf25YFa1LDjNvhChJsQXwFwRy5v1g8KesEpEs7IeqcCacgJgGho4sjM8UV205AEHkXRHetwbBM+GLDsnZhTWqYMbIQaEHCBYQjyCYlCeLICTvLK3dClLvVlCKdAAtCMH/1Rhx6mB5H13p0swV5emZZFgxhDTfGsrIghCGbuNJ68mSxeHTCawejin5S0fE9iJYe8x8ta/2dHQdB90z0cyY6C4L5AUNYw46JBBZEX2F5DMHAJDmWJUS5OdqQMywtOzDW39qJFCRkmTDgcXQc8FoWOHSIsswCUlqLUWHRGovxA2NzcfHIlxLs0qWbiuqqVEMkh8sOgl5ygiR6HJ3wA9akoBviRVlpMiyXH5sCQZ4sLiIlwVLiasl79Wi1ox91l8iBsBWDIREeRw99mZDwA9akAH6UldaCCBWWi0VEEAqkJccfxEZ6Q9qVoi69oXCDoZgqwxIfR/cEZElvQQg/wKEDiIgsxFOQiBUW1RAG/K8vNz4izM+3Wm6XkOsUzjvziBkGarg4e57CgohP21aWgh5Hp/4DHDrADXu/y8KCcAqi8oNi4+zsbMPF7sfdj9vos/5xfQt9rCjYeJd0zsSoIFoBOaN/HKxJAfywN60FIR5kM5ggmB0uQ3bRD8I2wTrCFkIoQ7Z7qTMs34M8MgxiPXX5AUNYAC7sjdxGNxHEdyBmBfGxS+HxIxpBLOs/D5NaELxMKL27pr1n8mzDTZZhTQrgh70lzSjvWqwuiGpBFjUKcmYgyFY0gmxZZ6uJlgmr6jq6/iYvnr8igDUpAIfZBBnWsp4fgQRhFOH4sR1DQPDf7L0ky4Rs0l24Z6LJsLrMDcGaFEDAXEoLEpEgZ+kqLIKXK0mWCc0e3VeQX4+8PwTWpAAibqeZ5NVVWAYFSU8Qa7udzTLhknTPhMVX4NABmrB3Id4yYfwKa/GlZEG241qQKCISY5lQEpDX277XgSEsgIwr36Voo0ckCMt4k1sQ9wtsDHyD7plUxHsmS2KGdcT9/rAmBVAxVu+vBfEVJF2F5fbV3yVdJpSXpQhYumvBEBbAhPEsLciiWUGShrzycNZKzMfRK+bH0Y+EPx6GsAA6FCb6akH8TmFaC8ISX/VGlmGZUPM4Ot9G//eG8PvCEBbAgOl+WhCmIOktiIdd+ZBD+OPo8j0TLB/S7woOHWDCbLJlwqgKcpaZBfk/e2fz2taVhvHihb2qs1OoA0lcSkoxsRuEQyB1vEljTJdhmI9NkRHqQJkKNFlElmJio4UqzEiLEbYkfGHwLDwLGYw/8CZgvFT0R839/jzn3nPuh/TWPL94W3dhHp73ec9zzuVIRODj6L94P47+r6W+71fimhSIVMhvshOWQARxtlipRBA7US/9W+7j6J6q+3+OAr8PCR3wY8gXz7PaYfkFksKEZUvkZ/mPo+vyWGoEfxsSOgjleVYRxAzpR2lOWPbS15i0RD+Orgvk96Ujxm9CQgcRJvIqQQT5IOAgWQhEDSNL/xN5z8Q2kF+H7FtauCYFohSyKR9BhAxESXXJy7hxuPTf6PdMDANZGnF+B0pYQEAhv2URQd6OsokgHo0on38O/Ti66iC/L424/z9ckwICzGxmKJBsJiznSpVqJJ//xntS8Z+flUbYf45rUkCE+XzqPZO3bz+MMljyclO7svT581/+binklz//49clZdSPCjK4JgWEmMunH0HejrKNIOzab7+v/i9Ffz+uSQFZhaQ3YRkCOcoygiQECR1IKyS1non3GCSjCJLMblDCAuKrLEMhqfVMvAKZ0IQlB65JARly+XQnrLdHWS95k4ESFpBXSIoCUYhPWChhAUnu59PrmZAXCEpYIIZC0lvyupdYFCMIEjqIM2WlF0FGpCMIrkmBZApJLBDSExYSOojHXD6lJa++xJpMzwQJHUyMWVMhiSOIQjmCIKGDhB6SSgQhO2HhmhSIz3w+hZ4JaYGghAUSjVmbqUYQchMWrkmBpApJbCAK4SUvrkmBpLxKQyBEJ6w+rkmB9BQSc8Ia0V3y4poUSIHniZa8hCMIEjpIhe/vZgTBNSmQEl/fySUvrkmBlFZZsw/+FDuCNKhGEJSwQHoSuZ//612bsFDCAikqZC4fSyAfyE5YKGGBVJnZjHOZkGzVHQkdpM2ru9TkxTUpkDrf353LhEjoIAO+vjOXCZHQQRbcz8steRWiS14kdJDRMmvzTrxngmtSIKtl1qs78KQiSlgg46ge81V3GhGki2tSIEMexHm0mlIEwTUpkHEQkXiTl96E9QbXpEDWQeQP/FmQLhI6yD6ICPRMFJoCQUIHkwgieTEDIbfk7SOhg0kwvxkhEKVBMoLgDB1MiCfT/zg6ztABYR7mRQ2EzJK3j5Y7mBxzy1EGQi2C4AgETJRveAJhGMj0I0j3zTz+ZGCi3M+zBdJoEIwgRzgCARNnJcRAaE1YXTz0A6bAgzzXQGgted/gGiGYBjMrnBUvrQmrgQELTImH+TADoSGQLt5pAERMZNSgF0G6b9AxATSSiJbQR64Ri0QEaeBbB2CazM4+cQxkRG7C6i+jYwKmTG6ZNWCR6Jl0hzn8fQCJsK40LAOhE0G6I2ywAAmehBjI9CasEY4IAZUs8ohcBOk2XuKIEBBh/f1eJ6SoOA2BNIYYsAAR/8i9VznoEeqZdBtDlNwBEWZWVX3s7e1pEiEyYY2GGLAAFR6/NwSiSmRMYsn7bjQc4hYhIMLijiOQvWpv+hGkPxwOcYQOiDCnDVimQPYOVDqN6UaQhqoPHKEDKmzs+ARycFAbTy+CdNXxCgEEkGF9xyMQVSIfVTSJTGXCOhpqYMMLyAQQUyDvbQfRBPKxWh73J28gun0Mh3gnDhBhZpUnEPWnMp6wQBq6PIbLeMkdkAkgPIFotLc1iUxsujLsYzjEJSlAhIWdHVshDIFU29V2ZzwZhfQteSCAACrkdsMFoupDZXvcn5x7IIAAQgGEKZADl4PoVNu18btMi1eOPBBAAJ0Asru7GyEQQyJl9aeWlY+os5Wi/jN5iUuEgAjru9ECMeRR1lA10ks9j7xrjBRdHpZCUMECRFjcjRaIOWOZEilvb293UjQSXR2K2z9QwQJkAvoqSyB7HoEYE5YlD00fGqqRJHeS7pEmDl0fim4guki+QwULUAno9WiBeB1k21BITaczjm8lhnPY+nDmK1SwABW+qocLxLPG8jhIzZRIpVZRVTLuy5hJt98YqeLY1/+5JGIYyEucEAIqAb0eEMj7EIG03QKx9aH9qPTUkUsVyrsQpbzrH2nK2DdwxGHJw/AQnBACGswu1qUE0i4HBVIz5dGpdNSfXkel1+u1WuPx4Xi8PzbY1/6pHO4fHh468nA7yNBO6QjogExATyIQa8Sy0CRi6kOnpcqk1Tp0sW+JQ1eGx0EU20FWvkBCB1QCuioPl0B2wgXiXWP5HKRiyaPjlodJUCE+CxnaDoITdECFjXrd6yA7Yg7iCyEBB/FJ5LDltpBDroXoDoIFFqASQNYNefAFchDqINt+B6n45GFbiFshHAexLQQLLECEhWK9GO4gB0EHYa+xah4LsSViT1mqMloBBwlkEE0gWGABKgusYtHtILuxHcQ1Y3EdpMXIIIpvzNL8AxV3QARVH7aD1GXLWIGTwmgHsSYsZ8nrOSU0miYr2F8BGsytFk0HqbMdRKCMZcnDm0E6YRnE5SCK/yRkqHyHBRagwYymD8tBpMtYgYMQTgbpBfa8+56jEN9R+vI8/jCAhj42ijqBNVakQOQcpGcZSMu/xVKCR+lY8AIqmPrwzFgxylgRDtJjHhR6DtNdKyw0FAGVBdZ6oRjmILJlLLaDaP4RcBDPgLXvPkl/iSuEgAjrBVsgxXoaZawa7yg96CCelO72EOgDEGGhULQUIusgZREHcWX0XuhRuuISCQ4IAREeFgp8B4lXxhJ3ECeEGMKwDOQbNHgBjfyxqMmD6yDpHqVHOIijExygAyJo+hB3kMRlrBa/jGWMVrqF4AAdEPGP3JahD4aDJC9jdYJlrB63jKU4ZyHQByCCqg+PQiTKWG3+QYiYgwTXWOZ8BX0AKvpY3SoEHUSojFWthjhI1FG6r4zl7SuuoIAFyOiD7SAJy1gVbp03rIxlVrGgD0BPH4Xwo3S5MlYtss7LKmOZIsENdEBIH5ZCioXQMhb/6biylIO4LMRzDnJoX0qHPgAlfRT8FiJdxirLlbFa/DKWBgrugJR/uCJIIVYZqyxZxurxy1iqg0AfgJY+bAspFjKs8zIyOtNBlnEBBJDRR2nLbSFxy1i+p+PkHcS1xoJ/ABrM5kqGPgrBEasu/rZiNUYZK+RlLORzQITFkuUfLgcppFvGcr1gzXMQbxkL5x+AiH8slkqaQiwP0SVSjFHnDXOQGq+MFXgZy3QQ6AMQ4Zmhj3AHES5jMddYrsdHo1/G0h0E/StAxD80fWgKKfG3WHWhOq/1NlZ0BulEvc57+AT6ADRYN/URw0HYbUWhg5DwMtb+Y/xdAA3/eF0qWQopsRxEqGti+kc1pZexDvEFKUCDmY1S01GIx0Fil7E4H5mSeBkL7zMAGsxtNL3+4VhIrHdNqpIOwnwZC+9fASLk1prNUrPpcZCC70JIRmUsvoMs4/1EQINFTR0BC7H1Ie8gVfG3FTs8B0H9ChDhWVOXh9dAtrYiHUSwjLVdjvO2Io4HARHWmwa+lO5ssQSP0iXLWKFvK7Zw/AFoMPu6OTDl0QyOWFsSDhJ1lB5VxnJbCNZXgMj6am1gCMQOIZ41luekULKM1ZYrY7kcBOsrQCWerw1cA5ZlIeyTQtkyFvsoXaCMhfUVoBLPByqWgwRSOstBJlDGWsHtKEAkfnD0YRoIJ4OIl7HkPnRrKuQx4jkgwfzG8UBXSFPKQcTLWKyQHnWU3nuIPwwgEj+Ojz0O4qx5k7YVnYPCtmQZS40fMBBAIn4cawxcHmIKZCvYViyIv63IWmMJOoj6g/gBaDDz2tZHc8AbscQc5L3c24ohZazePfxhAAlya59cAvEpxH8hxHupMLsyVg+nH4DIePXJ0IcV0ge+DFJidrHkHUSqjLWCciIgMl590tAFchx0EE8GCbaxJMpYbZky1j2Ec0BkvDpzBOLe83LXvFwHkXpbMfChWzuEqHy7iD8MoMDss7OzM4+D2DG9xJFIkZtBYpaxghn9KbZXgARzGxcegbi3WP4bUwVe10S8jCX2mcLKAv4wgEY6X7u4CHGQJlchAQeJFEiV13f3l7F6j3L4wwAa6fzi5CLgIIG6eyCEFAUcROQrbOw1FtI5oMHimioPXSBnlkCOfSG9Geog7htTUWUszUHKrOerK14L+QnVdkDEPk5O2AJpRq2xkpSxQl/G6nRQ3QU0lle5tROeQPxlLMZRunwZy/P6KNNBOpUK7AMQ0cfrm5uTKAcpxXQQ4e94+h0E6QNQsY+bEIH4boRslQJH6THKWOYWq80vYz2CfQAa+nhxc34T7iCD0Jex0nYQTSG1BdgHIEFu7VzThy6QE5dAPnEcxM4g7oPCeGUs77MNbgd5imYioMGz8/MogTghJFjn3UpSxrIcxFfGqvyEe7WAjn2cRzvIwDpJbwYeeE9Sxiq3mSHkHl4VBUTSx9XVlV8gFyEjFuNCyBbn4R+xtxUZDoLpChBhcc3UR6RABv6jdOcsPZDSBctYHAd5hF47oMHM66ur66tz20FuuAJp8h7+8a95Jeq8pkJ8DvItdleATDi/vtJhCeSMl0FKgYMQxp5XrIwVdJBthA9AhLkfr691gZyHC8T77k/J/40pXwZJVsZ6PIc3rwCRcK7Jw1CIgECaYUfp7mMQ+ZexnDrvU9z6AFSmqx9Or69NB7lK4CCMB97jvmvyJXolgAi5H1V56Aq5uhZ2kAGrzltgW4j8y1hfYnUFqOyuXpzqeAVyLuQgTe6n0otJXsZ6hHNzQGe6ury0BHLlZBDmUTr3bcXgy1iFQrw6r6oQuAegJI/TU5eDhAvkk1AGCa/zRpWxnkIegE74uNQJG7Ei6rzcW+kxyljtdvUrbK4AFeZf3DryCHUQ1lH6gF3n9bcVZcpYH+/N49wDkMnml7e3l7deB7kWFUjgTmEwg0iWsdqrCzg1B1SYffHD7a0lkNPTS49A/s/eueu2jawB2KIoWheboixZlg3qVhgWDLhIESCFAzcJXGxBv8IeLPIMW53iVH6DU2x5+lQni9iFi/jFVrJl3ThDzgwpa2R/3y6CBTbiiNJ8+uef+Wf4t3IE+bZYzvtN92SsRUH6PYIHWMOzHrEI8ryUrlKtGCtXTIwgacVY/yX1AIuix4fL+/v7X/cvgnz/IYsgCQshsxzkVrgpfXUlPanWpD8ZWxE+wCY97n9NQ8g8S0+JIMkrhbNqrN+TdoQIBPnPMdO6YFXucf/EUwCZDbG0I8it+SNCFgUhMQfL9Li7u5sa8mthiDWfxfqpXK34l6jWRFLvLlxK/3NA8ACLcBb0mEaQsR9zRUwiyDfZk6DnCyF/CIux/rzukXaARex+uptw/+LIPAn5Pk9CfqoWY8kfwxY74F0UQT5esRUKbGL49W7K/WII+TFdCPmhXWuycqyJ6OCfP8QR5N8fr5jUBav48PXh4eHuYWrI3XyEtTqNpVGtOHvG1O1yDjJP0n8XRZCP48SD2AF2pR4retwtTGONQ8h3swjy12oIER/8sxhBiB1g39jqYcqLIouzWLNaE+1qxYUnhNymH/wziSATOzyCB1gWPB6X9ViNICs5yE/dct5Zubvs4J/nCHI9zsoZWoFtwePx8fFhJYLczyZ6pUvpf6sUYy0/5zYpgny87rEcCJbhf7p8tmMlgrwY8muhGCsWQRSOjrsVFGOJcpDrq8lqILEDrBpaffj6OOE5gjxODZlFkDtpDmJQjDWbxIpHkI9XQ0IH2IY3teNxKYI8PIgXQgwiiNJjCj9+6flEDrA1dkwDyMPTHy9jrIeFCPJrMQfJUox1Gy82ub6ayAFgGbufFuyYhRBxDrI0jbVQrmgcQaZ+XE+GVczmgpV+XK7Y8fLPoiMvOch9bEuhbJ73/0rFWP/6dn31gXVAsJvhp6+XK45IIsisnPeHzlL6/8TFWNdfJm4QOGA78pAXS5YCyDyCGCylS4uxPn+5GvKENNg+2hNNFgdY81KTu5UIYlTO+/l6rAZDKthu/OHEk8v5RO/9PEmfhZDvOsVYnz9/+TJONhhNwRth0pW93bEoE1OeF0ISirFkEeTZi+FEDNyAN2vKWJX28MNEljGXY34IZ7HGhnwe83UixYexFtMFcbJweEdRxXv5D3+3PWfX952YVgAAAAAAAAAAAAAAAAAAAAAAAAAAAAAAAAAAAAAAAAAAAAAAAAAAAAAAAAAAAAAAAAAAAAAAAAAAAAAAAAAAAAAAAAAAAAAAAAAAAAAAAAAAAPB28IO92iJ7fCQAT2qELbfSjVYoJr3EXf3bUZnP0TYOY1+S7o/ewc0qu3bf8n7sDdezXjJojWJuIAiCIMgEp9qMZCAIgrxzQZxGJ4oQBEEQRIR3XowiBEEQBBGydxhFCIIgCCIOH+UoQhAEQRDJ1NUoQhAEQRAJYTFCEARBEMnwKuxGCIIgCCKhquQHgiDI+xSkEUUIgiAIIss/ugiCIAgiY68YIQiCIIgEvxMhCIIgiHrHRhAEQZDZBFaEIAiCIDKCIoIgCIKYDLAOW2HgZ7kSgiDIlgvi1aTBohyM/3c21RAEQbY9glTEenTLvvYbQRAEeXOChGI/KibHlyAIgrw5QcQl7q6zgyAIgiCSDKRk9kYQBEHeWgRxc/QDQRDkrQnii9ZAmh6CIAiCTBAtoheDHQRBEASZIDohLtxBEARBkKccXTDCcncQBEEQ5AnRHNYegiAIgjzTyjWAIAiCvDFB3DwzEARBkLcmSCH2YXU8BEEQBJnm6N3c1ggRBEHeniBBfIRVRRAEQZAptVznsBAEQd6YIIJSd+fVBXErKzTN21+9VKWazyfs16qtUsltHo6abqncqgbe2r9Uv9Yoj1tsVpquW2pVa77phcZvfIn40pdbElPNKojTHvYmDNs5GLTbjyG76snxMmexN9w/FjNIE6S48+qCFPJ7D/G9X43M34u3d96Mn4rULbjVYF1uTJqMd+OO2zBqUeHIfgklc0GcYf2iv9gvT/sX9V6mX9/dG+XAFY8YqpwtXyheidVBkKXvueomnGhRKIVrsCNMaLJTqm2BIEf1vqT/9Qc9b7sFKSDIvKvWSqnnvXTK+caRvXJak51WYLUgu/WD5C44OLJdkOqM+AOlOoEE570Jkvws08XNAfmFkVpTrcWatYL0VPpm/8SzWhCjDyt8X4L45+qnsUajfBQJ1buyW7NSkF5fsR8e1B0E2WJBvEZR79M5rGXWI3C1WnR96wQZ9jV64sEJgmytIKmP+s3UYcVKnmsqGRXPPasE8QeafXH/CEG2UhC/ZPQBFbMsuewVDFocBRYJ0jvV740DD0G2TxCjvpoxiFS7Zk6GtgjSHhh1x34bQbZNEMO++jxHblan47vGLZY9OwQ5M+yPpz0E2SpBHPO++rS+bjLM8kcZWmw6VghizgBBtkiQTH31iZb+7FUhU4OH/nYLcnPhIci2CBJUoszoli/vdTI2WAi2W5CbfQdBtkOQzH31uVdpTc0ExcwNdoLtFuSm7yDINggS5OKH3p7MXNqs+NstyM2+hyD2C+IXopxQz0P8Si4NJmfq9guilocgyEYFcUZRbpyrLp83c2rQ3XJBlOayEGSTgqT31U6zVG6dn7fK7mExlw9LeCrZUotuuRqGtVpYbbkpoSbpNtN3FJYbYsKsgpz1jwf1k3p9cJH2kl6ugqTvKLw4kYAgJn21UK4ujfODhpsoidrx32HSikqzMbnGfOjhV5M2p3Q1lijXsSddtAZ4cbK4Tu716km1jKftPAXxUiNK/ekvxf/dQRAhtYT182JZ1IG80E14zUhhUJ0wgdU5FxnmVOVxpODbJcj+iSAvag/kK+59L0dBdlQEkYMgsWS5k9BXpRlw0CpmWQ6RLtp3GrImvbCSff3lFQTZH8oyvfqZcRryeoJ0ZsS/4G5HQu0tCyLtq8VG4g+bX5JGkdTPSzbASn66sFctmjb4aoIcJCUUTl32srY1gsxhT3pyMlBKHbjsyeaIKilDBkcyq5z6SxRIphMOPUsESStiP/pNEnYQxFJBnE6GHR5eq2s019syLpn3WvozWa8nyFn6fJRzIX7pCYJYKYisw1UCtUbDosFMll80r1PxxCX5RccCQQ6UdniIh1lnHoLYKEggDgFN5XkhSQ1XST+AqGbaYTfD+uQ6BekrdtkTgxCCIBsSRLzD1tWoORRXrHcD3VGdehVXVZi+OJsW5DflHxWhIQcegtgniDiAuHo1uQXN/n6etc2GeRayPkEONE7grWuHEATZjCBl04W+JUOKeiGkkm2tTzIzXdisIKdDjWt4oky9jyDWCSLMltO2WChmBdKb38tYLbIjKT6ubVQQvZOufNGS4RGC2CaIaLDTNTgGTnSdoqcRtXQ369ZMk5h1CbKveZWe5nI6gmxEkMNcNpaPhwwj9foc0dPpC9pncZYMZ3rXJUhb9wYu9GZ6EWQDgniBwSK45Epd1X0anujHX/88FFGD4eYEGWjfwO6pVtk7gmwigpSzVDWlXqrrqy6CFLxcGixvTJBTg2dIHWtphiCbEESwHmH6BDhRui+OC6M8AogwhBQ2JsjA4AZ2teaxEGQDgohGWMaPMT1XzJqdrnGZyDKCssVgU4K0TW5AkIX4CGKTII38AogwhAifaBdmOwkl6etTiURrEaRvdAM9nSQEQTYgiJvPYEc+rxSoWWn2BB5BKCpvSJAToxvwTjV6LoJsQJCO+tqF2dKEoH0vnlx3DR//2jSJf2sRpG12A/Ex1gWCWCRIkNdgR+pbKa9urTgd1tmMIGeGN3CiMVZDkNcXJMxrsCOdeB0padQybE/w/v2NCHJheANH8eliBLFIkPPcBjuyDiu6l25ueU9gMge3DkEGhjfgaHR6BHl9QeJZdSXT/fsqv+hObkuTOztFg0utQ5AT0xs4UK9XRJDXF6SZbwoiGj3VVH72A9P2CgbBaB2CDE1vYF/9Ugjy+oIUTLetyqYtXYUOG5gkDso3vBlBjvITpIcg9gjSyXMVRDxmi78BwWYQ46nlkYHh6xCkbXoDFwhisyDF/LIB2bxrvMMKVkuM22saTIitQ5Bd0xs4Vk9nEOT1BREUqJcyMVLosAiCIFsiiB+tnzKCIAiCyCkhCIIgCBEEQRDECJJ0BEGQBEIEQRAEkeMjCIIgiBRBNS+CIAiCJLSPIAiCIC+34iMIgiCIxhwWgiAIgsx2l3gIgiAIIh1gCXsegiAIgjxt3xXvb0cQBEEQuR8IgiAIMvkkZd0OQRAEQbpl6TZaBEGQ9y5IpxzIW0UQBNkSQTzBwKiSlWapVUvcY44gCPJu96SrgCAIoiVIxSZBQgQxEaSNIOsTZJTfKTi6x/gUNIVCkCf6uZ2L5XHsj8mXbHyOmm5EGJm8XwTpr/NkRQRJf1Fg2Lz2qbcllf0bCJKhV6fxG0ePplLKLREQnFmY/N3Hz3nregiSyoVpf4sPsU7V05l3K4jKaYSmt/NPe+e25CgLxHHigRgTTzknFQ+5sJxKVZ5kLvT9n+YzO7Nb364N0oAzosN1VKL9498NTcP31qju80FmAshF2/kgx67RWz+A9HbCkXx89/waGy053g8gva17LtRWsv9XxFlVswVkU+ua511hQwpqa34B8wAka3QthHS1KPgBRCC0ljuqHMgccdEGNryPNT5AsKujS12n3AIrKpcfQDrtrMnPedToaAa4xJk6IDv1MaFEDPy8dm++5hjop+yZceMApDuNdZaaSzrU6LERCELSeOKAiBzygx6R5XysrofFWVFRAOSCEKrxAUJ9PX4OYOz9h57beLdseoCgD9mNGi0TvVZXiUr6NYDkJikIcCbZQcvDBdwlt9YVARkDiKfuVQKuUSlxPDDAWUCGACTCgDg+QICUKAkJ2dS1xIIKYK31btqAJBJC+6/olzokxKpQd5EHhGaNZHLMSADxgH0ZVN1WhHJWADhVDyocOSA6VkefgISgo5CiexNeWrCCgpwaySh9JIDIDf59f0UssWoPleuJpwxIrD5zBw3JonHvn3YEZCgngwBidS+tqEGAQPNPSCONbbHCuN0LU+DCgzVhQIBpdfTMHeRjITMWad7gllMUAAHyj8VWbsYCyAOqCoIxUgo5WGko1+eBZ7K+HRBXQ4INMEHblKhtU5CDxbV4FUCAh71TgwAJofEfo/teLX2DDVh2YT9hQABvNMXO3N0h884RYxrkpPFzHlUAgZ4WGQQIbODiw1oCGvlGttPDEvLtgMSQU4mdFAkgAw+E75JBPhp/Y6ICINQq5QRvNICAkYCwkfp1raBAsIQMl9b77YCAE37YvwsqQPMUJOQO8sHPV1FREGjaTUTwRgMIuGDXXi30vh+whQun4MHPrh1rooBQcEDBThvmICGB0EuD9aNnbUIJkExO8MYDCCwhtdMfZ1ss+xbuNRgB8YqHmq4gYaqBEFhCmlzAcYngS3sSHpUAoZWU4I0HEHA94pW22KcD8YpR+xMxc5mw6ocmdJKAKOk1PwppXfu+2d6QdeFxQEDgSbMmWBoDCF2hi9y+rnowRn9UkE0PrBqiq/UkAWHo9RtKMpewn9RnddeKcVlBhgSE0dsqMwUQKAPiU0QSi+lML5i11VEBxCZlltl11hMEhBV28UcjQU+p1YKI+faznHXR1hoUEIaEtG7W0RBAWB/thcge8pfCZMEuro40a59TiXrnW5MDJGaNCLYn/uas94aJSAGZnXVl4iGwDq8ICFPwmmdGjQDEWvGsNPmbkdh3Us7PsasY1OUVa7cdP54WIHTPKU3vJrdNHH423l2OJdvemzz6e1UjzC68nxdkYEDYgtc6Ws8oOx2BvzwqQOB8qv99OMdL/Nv65vues+AfP7BDB9fWou9Eg4+n97TYEED6/69Q/Yxrw21VUFyz7J5l1+iZ83+a08EBIT1d+NNGCwj1az3tLDHex2cdT3ZNAYQd8qEKzFwaPU0kV14ZkLvpgDDnepHNllq/2NizAgTO7sECYuV6+BDZvqQMCM/JMgQQwa/Gb6lk4Z51OitAwARodIkyPYQIJcqrAwImnJgFCCNzENWk9wPe0jkBIuZU9tbwW27V+RArqqUBELHOjhoQqkpIqrBfdm3PCZC+SRExQOixUuVDcDe7BkDIsjIdEFUvK1UqjLg5zwkQKuBUClSBXb5/hX7oAYScSuMBUYrUbcV173g1I0BEJFOkTLJSHFIKb9TVAgi5V8YDQnxpT2elvJ5neXMCpF8yheqIW09pPirxs6n0AEKOW+MBIfFBzjy17ODw7RkB0iuZgoX2r6UcHwEi90sTIGSZGw8Ic48H/1tqKmcVv80IkD7JFD2J4igViESYjAddgBAaGQ9Ia0ULtHzEevggVEFEzAOkRzJFAaFWgcYjx52Nqw0QQrPKeEA4Oz3g9Hatx3qE7owAIaGnDshLRAJcdB4hE+b0AdLqZmE8IK2r4wkv3J21b/2L3XQ2gBByO2gApI1ExP2sssCvYWgEhJJ7YDwg7dC2F1KRhT/EzlgEn8YD0nZqpwEQ3n4oVTz0AvJrwjcwHhBKwqQvYk6d21AnN8eP1WwAabvl2uqAtIg8eye08khqtlE3IIScispsQD7MdM82U3vnh2TItvHOcwHktd3AXSgD0rNvsKmKk2T39APyCtcvW9MBafUhbL9c2oVjv6Zk+Bb77nkegHz8W89Z2UqAtB/FygoIkjKI7vJdGwKQX/d9becqYUA23r/tMTpAfr/2+PbwXGf3tnMc10vWIfnCFq4Tz3lbnO1UAyCbVadJd8zt3CrR8oet+HeTf2f3a/HM36uyKattHlyi7Kg2nllFp+ksFmAtj5/tP2Y2g+yAlaCMAAAAAElFTkSuQmCC;" parent="61" vertex="1">
                    <mxGeometry x="104.51999999999998" width="46.97" height="34.23" as="geometry"/>
                </mxCell>
                <mxCell id="29" style="edgeStyle=none;html=1;strokeColor=default;endArrow=none;endFill=0;" parent="1" source="26" target="15" edge="1">
                    <mxGeometry relative="1" as="geometry"/>
                </mxCell>
                <mxCell id="26" value="" style="sketch=0;outlineConnect=0;fontColor=#232F3E;gradientColor=none;fillColor=#4D27AA;strokeColor=none;dashed=0;verticalLabelPosition=bottom;verticalAlign=top;align=center;html=1;fontSize=12;fontStyle=0;aspect=fixed;pointerEvents=1;shape=mxgraph.aws4.internet_gateway;" parent="1" vertex="1">
                    <mxGeometry x="576" y="160" width="58" height="58" as="geometry"/>
                </mxCell>
                <mxCell id="33" style="edgeStyle=none;html=1;endArrow=none;endFill=0;strokeColor=default;" parent="1" source="32" target="26" edge="1">
                    <mxGeometry relative="1" as="geometry"/>
                </mxCell>
                <mxCell id="32" value="Client" style="sketch=0;outlineConnect=0;fontColor=#232F3E;gradientColor=none;strokeColor=#232F3E;fillColor=#ffffff;dashed=0;verticalLabelPosition=bottom;verticalAlign=top;align=center;html=1;fontSize=12;fontStyle=0;aspect=fixed;shape=mxgraph.aws4.resourceIcon;resIcon=mxgraph.aws4.client;" parent="1" vertex="1">
                    <mxGeometry x="587" y="40" width="36" height="36" as="geometry"/>
                </mxCell>
                <mxCell id="94" style="edgeStyle=none;html=1;" parent="1" source="57" target="91" edge="1">
                    <mxGeometry relative="1" as="geometry"/>
                </mxCell>
                <mxCell id="57" value="" style="sketch=0;points=[[0,0,0],[0.25,0,0],[0.5,0,0],[0.75,0,0],[1,0,0],[0,1,0],[0.25,1,0],[0.5,1,0],[0.75,1,0],[1,1,0],[0,0.25,0],[0,0.5,0],[0,0.75,0],[1,0.25,0],[1,0.5,0],[1,0.75,0]];points=[[0,0,0],[0.25,0,0],[0.5,0,0],[0.75,0,0],[1,0,0],[0,1,0],[0.25,1,0],[0.5,1,0],[0.75,1,0],[1,1,0],[0,0.25,0],[0,0.5,0],[0,0.75,0],[1,0.25,0],[1,0.5,0],[1,0.75,0]];outlineConnect=0;fontColor=#232F3E;gradientColor=#F34482;gradientDirection=north;fillColor=#BC1356;strokeColor=#ffffff;dashed=0;verticalLabelPosition=bottom;verticalAlign=top;align=center;html=1;fontSize=12;fontStyle=0;aspect=fixed;shape=mxgraph.aws4.resourceIcon;resIcon=mxgraph.aws4.cloudwatch_2;" parent="1" vertex="1">
                    <mxGeometry x="610" y="641" width="58" height="58" as="geometry"/>
                </mxCell>
                <mxCell id="72" value="" style="group" parent="1" vertex="1" connectable="0">
                    <mxGeometry x="680" y="450" width="208" height="90" as="geometry"/>
                </mxCell>
                <mxCell id="73" value="" style="sketch=0;outlineConnect=0;fontColor=#232F3E;gradientColor=none;fillColor=#D45B07;strokeColor=none;dashed=0;verticalLabelPosition=bottom;verticalAlign=top;align=center;html=1;fontSize=12;fontStyle=0;aspect=fixed;pointerEvents=1;shape=mxgraph.aws4.ecs_task;" parent="72" vertex="1">
                    <mxGeometry width="15.42" height="20" as="geometry"/>
                </mxCell>
                <mxCell id="74" value="" style="group" parent="72" vertex="1" connectable="0">
                    <mxGeometry width="208" height="90" as="geometry"/>
                </mxCell>
                <mxCell id="75" value="&lt;div&gt;&lt;span&gt;&amp;nbsp; &amp;nbsp; &amp;nbsp;ECS Task&lt;/span&gt;&lt;/div&gt;" style="outlineConnect=0;gradientColor=none;html=1;whiteSpace=wrap;fontSize=12;fontStyle=0;strokeColor=#FFB366;fillColor=none;verticalAlign=top;align=left;fontColor=#858B94;spacingTop=3;" parent="74" vertex="1">
                    <mxGeometry width="168" height="90" as="geometry"/>
                </mxCell>
                <mxCell id="76" value="color app" style="sketch=0;outlineConnect=0;dashed=0;verticalLabelPosition=bottom;verticalAlign=top;align=center;html=1;fontSize=12;fontStyle=0;aspect=fixed;shape=mxgraph.aws4.resourceIcon;resIcon=mxgraph.aws4.container_1;labelBackgroundColor=none;fillColor=none;" parent="74" vertex="1">
                    <mxGeometry x="22" y="30" width="40" height="40" as="geometry"/>
                </mxCell>
                <mxCell id="77" value="FireLens" style="sketch=0;outlineConnect=0;fontColor=#232F3E;gradientColor=none;strokeColor=#232F3E;fillColor=none;dashed=0;verticalLabelPosition=bottom;verticalAlign=top;align=center;html=1;fontSize=12;fontStyle=0;aspect=fixed;shape=mxgraph.aws4.resourceIcon;resIcon=mxgraph.aws4.container_2;" parent="74" vertex="1">
                    <mxGeometry x="108" y="30" width="40" height="40" as="geometry"/>
                </mxCell>
                <mxCell id="101" value="" style="shape=image;imageAspect=0;aspect=fixed;verticalLabelPosition=bottom;verticalAlign=top;image=data:image/png,iVBORw0KGgoAAAANSUhEUgAAAyAAAAJHCAMAAABfKMIMAAACfFBMVEVHcEwAAAAtg4YAAAAAAAAAAAAtfn8xtKUAAAAAAAAAAAAAAQIAAAAwuZ8dVlcwuZ8CBAgAAAAwuZ4AAAAAAAAAAABNrZQlmLkAAAAwuJ4yt50emcYAAAAAAAAxtJ0wt54xt55WtYkcnccwV5Qco80wuZ4Yn8YwuJ4AAAAimssAAAAhjrUxaKQwtp4Un7cUoLcudq+PwGo1a64ahKweoc9Yq4UvdbIfrtmjx2AeutwestoZmralyF9/unInfbRerYEthsYjnc86a64tUIl4uHWpyV0DrMBhr4EguOIegK0kmcswtJ4EqsAqSX0QHC4AAAAwuZ4AuLtOXKgRiqg6Z7AXhak3dbhEcLc4crYZg6k4b7Ugfao5bLNKZK40gr9IZ7A1gb5eroFksH40h8FarIMxkMZqsntGbbVHarM2ebo1fr02e7tMX6o2d7kdgKo8opU0hcAod6syoJ5DdLoCtLszisMkeqo5abFNp4pCo485oZc2oZpWq4UTiKhQqIgqveZFpI5TqYdKposquuQGrLszjMQUh6gptuJwtHlBd7wnnqgsc6sfnbA9gcNAer4/o5IuoKE0g78rweg/fcBLYawBtrs7hMVHpY0jnawrn6QDsrt1tncpsuAEr7sYnLU+f8IbgakziMI6iMh4t3UzbawwcKword0nqNqDu284aawyjsX///82kM4Um7uTwWg4jMsmodZ+uXI0ldKJvW2AunGXw2aMv2suotuQwGmlyF+fxmIqquExm9Z7uHOrylwlmdGGvG4nseabxGS0zlgjuOskkswkiscgv/EuY6AkhMENpLgrfrQaqqwPt8lhj8jH2OyPrteqw+KDp9R/p9VQofF6AAAATnRSTlMA1wruqJkEGovMWDUvuRF6HmbcunrJJC7gmmJFRvhLyos5Xvx285HlxL1w/l6pzK2BVdzy0tuqpnX65+3X0sF63PX11pWo77TG3uXU25xOnBtFAAA+l0lEQVR42uydz0sjaR7GGw96WGjmZA65WSEQNkyLK0rbIK1eemW9SHAkRBOQxti2EJEmxz0tjTQK0uJJdlDyg1oaDF5ySCAIJlMhMIf5i/b9VVXvm1TFiiZtKj4fo4e5TcaPz/f5vm9lXr0aEqZXtJhurKz97RUAoI1JLZaNcbS1X/B+ANDmh4S+EsVbAoCN4gdiBAC1f7T7QeetlbUxvDMAOAWIGSOv8d4AMKHH3FjBqAVePGuufrBRC40dvGxWYt3RVhAjAIK4shzTV3B+CCBINzBpgZeK9rAeWYIGRQASxF0Quvcdx7sFIIjTNosqksgaa0E4Al4Ya54CRKCthHB8CF4UUQ+CcEcS2UQ8rs2EJ/CmgZfDmOE1QRLMkaw2sxjA2wZeDJq3CsIjhL5yWguKALR0xwChr4SuNaEIQAmxKoiVIcwPgmE03wfx3gHMWEqCSEARgBlL2mHxAJGIa4dQBLz4GUsKkDZB4lmtCUXAyDOudd9hxRwDhAgSj5M5C4qAFz1juQcIw8gTRbDRAqPML/pjKghXhLT1VrO5OIl3EbzICLHvmXQmiEgRncxZzTlcQAGjyljUwzF6RwUxhyxRRZpzuMYIRtUQrfuzIO4VhLO5YRw2G80wPksLjCTjax52WFnXAIlvbpIUISHSDOF5ETCKBLTuFSThtORNSIJsxjdzBgkR7HzBKCaIa0133WG1JQiFzFmNRgM7XzCCTGvdHyZMdJ+wBGTOIoosYqEFRi5DtC4VJJbIdu/oNrlvxJAG2joYNea0Bx5H71jyJpwEISHSIoY0p/COgpFiUnOrIA8ueRVBNjbiRgNVBIwcM1pv90ycA2SDfrGy3oigioARImroLkusmOOSN+4mCOGAlfXGNE5FwOiwrPV0z6RLghBD8qysX+FUBIwM07rhUtK9VxBmhxwi73HNF4wI4x0R0nsFMRPEDhGsfMGoMKdrziNWwmsF4XoIQ1iI1BuNL1j5gpHgdbsgvKI7HKN3SRBLD8LeJgmROuYsMCIz1lxMc7mo2CVBOgYs25CDg408aSL1eiOMfRbwP5Mxpadn3Tt6Iu4WIHKCHBBDSIjUaYpgnwX8z4wSIa5L3oSnCkL9oOSb1JD6e5wbAr8TiMmGiHsmDhWkS4KoAcKgIUIdwZwF/B8h9nn6Q59n4qGCUPbI97dmnbKK+1nA30SlCHH7OJOOhwmVCtIhyMEeYfOQZUg9gkMR4PMIsXa9vTxMaB2jO0xYzJADOmYRGjgUAf6OEN0csqQllrcJq22JpQiyt5dvMUNQ1oHPI0QMWdlsjw8TOix5JUH29w++cUPq03iXgZ8jhA9Zvd/kda4gIkCoI6Kro6wDH7McixlGl47e/SavW4CwDNk/OBQhgo0v8HGE0CErm7X3vB4D5GFB9vdpV6+R10ecrAN/Mk4ihAxZrhexPAaIiyD7LdrVa+QLG1/g3wjRtUdWEHc/hCD7+4fCkCVsfIEfE4S0ED1m6Fm3U5DHVxDOJ3YkghABPo8Qlw/8eVIFYYJ82msxP2q1OkIE+JAZ05BsNtvDw4SOgux1CkIUOeR+1GqzODYE/owQ3XB7FORpFYToQQ1pUD3IN5oI8GeExDT9oQTZfEwFIXZQWs3aLVUEIQL8R5BGSEx76Kaie4B0rSCc/UM2Y1FCeMeB3yLEqiGeHyb0PGGZHAo/ECLAbwRYhDBDvD9M2MuERUntNU1DamgiwEeM80UWOw3x/DBhz4LQJlJDiAA/MikiRM/28DBhLxWERcinlG0IQgT4icUYL+oJTwnymAoiMoQUkWqtVkKIAF8xQY9C6LMh3v6/OY+asFIpmiENlh9V4gjORIB/mIt1GvL0CqLGR4o5wqt6iToSeY03HviD1zGRIcbjK4jzPRMlQqghLWIHmbFK5OcSnhMBPtlkTevMD93QPX2eySN2WEKQFK/qVBHyNY+HDYE/DFk2a0jW0+eZ9C5IyoJUdTJiET9IiuCJdeAPQaI8QWJWDfFY0b1XEJtPDTNBiCK4egJ8wQw3xCrq/bjJ6yJIKtVkHaRaosyiqwMfREiAz1hZYcjTHybsIshZqlmiq94SG7Sw8AV+MGRGNzH69DCha4Bsb6dafMBiGVKKoKuDoWeC3TcxDenDw4TdBNnOcEPEmIWuDoafOepGVufL3kFWkG3KWctOEHR14APGlrkezJA+V5D2ANk+O8u06pIhJXzqCRh2pnmE5NiQNdAKQvwgbNdL1pBVKuJcHQw7y0SNHIuRnJYYWAXZNgU5O2uY+VGmP8L4LwCGmijrIDmaITmtjzd53QTJ2IYU6Qt34MFwY656iSO2IZv9ryAiQDKZs6apB1PE/2PW+GQgGp2mzJHvaDDwzM5PTIXnP8wuLCy8ffv269d7GfJPFhY+hKfwV8k7AaGHkiH9vWeiCmIawhOkXPTxmDUWnF6c2U2n07uE3xhH9OtoP/V+cTrwU496AqF5IsXbwuUd4/7unr4Ef9z/obKAX3zPzDE3mB9WhvThYUKXCpKhNHkDYYaQL1/ePBmLLi4nk8k0Y5cZsmsbcnR0TCCahCZ+hhjFQqFSIVpU7iw97hQ/qCKKJMgQ7/+l6R4rx3tILmf0qYKkXCpIxjTE0qNU9N+YNTlH5UimhR+yIMKPo2OqyOn309PUu8hALtYEwkSMYrHCKBA3KpIfcoJQPToiBIJ4Z1pKEJ0Z0o+HCV0nLMsQMWEVy0V/jVlj4eXkVjLJDUlafuwqfvAIIYqcnhJNUv+L9PFvQDA8u1QsliuVstCDIvnRniBmgEiSzOPXvreebuqRYxnSt4cJXQUhhpgJQl/F4qxfDg2D/0xubdGXFCG7aYcEMf0gfP/+/fR7ZjX81H/H8an52aVSuVwmdpTJq0Jfph3yiEUdubdLiC3Hvz/Mh0LPvkbw2xYmoOuyIsbgKkgm02lImSuy5Iu7WVP/IG5sCUPSSgUReih+CEGoIYTfMx/fPPZXczLM1RBwP8oVCUkPPl/dyQHyYT5MxMAN0cf2dKaHziNENwZdQQg7O00xYTE/qCUhH+ixdX6+xQ2REkQJEDFhsQpyLOnxO+Xk5KT3YStA3ahWy+Uq+ZL0aEsQ2Y87u4HQrW4QifG0CBkzA4QbkjMGuOQ1BckQQ/iMVS4KhvwKfOBd8tz0Y4u1kLRDgkhLLEdBTi4u/uN52ArOry5VGeWqpYciidJAZEXuv5JpKjiJzOhTT+cJYmL0s4JsOwqysyMMESWEsjrEf+nGft38fE4FObcTJJ1s08Oq6DxAjk+POwS5IIacXFx/nA2Nda8bEerGbdWkLAvSNl7dqR39kqqB0Oh7T89Jihh9fJjQsYJQQa6adLay9CgWC6Wh3fdO/f38Mxeks4I4bHk7G4gZIMQPzvX1x1XHBfBEiLhxe0vkuL2V7aB+VN1aCNcDagxsfDDPQToypL/3TGQ/aIaI/sGnrAL5Dg9tfHyWBFEriHpMKFeQY6cJS+jBufm4tBoJT1FC4cjs6hJRw4Tmx62UIHYF6SjolQrtGijhA+3pMnluyMbAKoigIU9YxJDCUO57g/9Nqn5wQ5QlrzpjdasgVA/6RfW4vqGvm5sfNz9Mbn/YfnQkiDpkCUkWaNnAr/CAi/qySBCd6WFlSP/vmSiC7NSlAYsZUhi+fW+49XndEuRcCpA0UWQ37XBKeOy6xGpLEK6HZMitKQibr+wKIieIZAd1g/xFGUd0DJxoTo0QM0MGtOQ1yVBDyrYixJDikO1732wyPToSxDxGT3dexDpyDZATdcK6bguQWztApAqiJkhFKIJbuT+5p0sVJE8E4YYMdsIiRX2nJidIgWZIcZguQoz/S1f8UBOk4xhduWbSpYJcqAEiJ4g8YNmKKMzOh9A3fjYT1hIrzyMknzf6+zChoyBXVzV5yKKOFArDU0TG3m2ttwdIUgRI2uki1m/eKog6YikD1g+5pMunINySCBuqwDMchuSUBKE/VEP6d89EEaRZsho6SxD6c2FISufEu8/riiCdpyDpR1WQi7YAaU8QOT6sQ8Iq5HjOWeLVsmoI4ZtiyAAqyBWjpLR0RjE4HPlB/eioINJFXvUQ5MEA8V5B5JLODImEIcdzH4ZYcnA92qesQVQQRtMMEFFCGKGh9OO87RRkV6og9k33I48V5Ka9glA9zAyRdlhIjuHIkDl5i5UXGRIf4JKXC/LlqlGUpyzB81d17odrBXG4iOX1FMS1glhL3qrZQVbnpyDH8ByGWHbkLENy/b5nstOeIF/ogaEZIaYil4Xnvrz46/l6uyDeLmLxpwltQdonLEsR1wpi2hEJ4RNah4mgWGJJM1b+Wz434Anry9WXL3WlgTA/Cperz/qw+puk7EfHPRPPz0q5BsjN9fWNSwVhS95ICOccw8aidUyYlxQxHhJk/0mCMENKIj6KtiGXlwvP+PczlFsXgqy3nRLax+jOCXL6519//XnqWEFOHANEUeT/7F1Na1RpGh2yqOxcJouAixAEqWCCPQQygoiLwQy9uTc46VCkMzAUVS1OmMJYO6nFTaVoamyw2rgIiaNiEqx0GP+Bq4ROCo2x/9C8H/e99/283xWtW8+p2DS9UBrqeJ5zno/XBRRW3yRG7ooWhEoIYUifQl6XIa9fHwgKskM/Xy/MGu/Zth1kQYSQt+I3QT5dHBJcfApREBbyagTk+iQ8MfSNYtqlh0gRzJA+hLy+giAJOTmgBuTAL7GQhnytMGukaGsI8lxQEL/C4nYJPx96+MMY8hopgk36b9fG/wRt8m+6yBLpgfiBGPJD3ywILbEQQ2QLQhnydZ7FZQZdbYKs8PdMxItYSwI/Dg+/6AUkUEH+DKXVN15kKRYE11iIIXtZLhOKBHEZcuxZECYf5OdrzJ14BiREQGQL8ulQwCe9BWEmXaYIqq3g3v0gFFl7e5KCEBHZy3CZUCII4Qcy6rKCEOz/5dLDnFG/wAq0IFU5wzoXCXKuWSb06yslw0L0gNrq28fNPbnEIvxAItKXOROOIKe8BdlhIrJz+Vbd7RAGhLxik7CiF5DDw6faVRC5C0IpAuoxILjyVhYQlyG13/tjQRg/ms0TSUBcDZnfv9xXca+9MwqIOIkl74J8lgnyxWhB5FWpv02CeAxMkaWxIC5Dfsh8zoQjyOMmsiGCQ/cosn+Zu+rjXIGlWJBVQ4ZFLPqFTJCLIAvyhmujXwNrPjAo4CJLtSCEIe29zOdMBIIwG8JRhKC1M3N5f8Hesu0QBdFmWI/0BPmvyYIwAUH0uA4DJQOFUbGRzlOk/XsfKixGEMwQ34FwNRZiSOvSwqypd1p+6CyI7NF1JZbZgngUmYSv3IBhVmdBqIYgI9IvC4I/rg3hQiyiH/jXJYVZfIJlyLBcBVHvNSgm/VMEC3IdLpIMZJKlWhCXIbTMyj7kxfrRbDY/UHoI+oHo0bqsyazvH9oBFoS/96M593OoxrzGi1guRabAnA8gRrQWhDMi2c2ZCBUWIkj3QFYQKiCtVmv+EoLQybd2oIKYj1ZjinwxV1hPdfd+frsD7mNQkyyeH3yNRT59qLCYgqAiS1GQlvvp/2TWSNHIj+fSKkhVt0x4HiogL/g2+nUYShxU3DYpCGXI37MPeR9TfuAiS0iwPIYg7PR7zdCfwdJmWKvCSUXBolOK/HIu9dFNk7xEQWahvBrcsPduW88PZELwr3bmFsQjyOMDv5PO6QelSH/XDK/2bDvUgpBdkIrcJWTb6F6S9Vl7tJpvo0PrfJAxwc3ycvLhSgiiSIqj1fqQlxGkeWyWkJbTz7h35JaOH/KcidAFUdZtf/7ly8X5+cUfvwafHEU/wI/BxpwX8u6JKVaN/KPW/le2FsQnSPMDoYcnIK56uAzpY9x7Y0UiiH6ZUOBHReKHadtWXiYEe56LrFdnQDy0+2JBmt1mV8h4vRqLYme+X1+tCanAMnRB9EfdlwJfXpPX0YEfOcC40ib0FMRlSfunDENeX0BQkaW0QZiAtJy+xb0FqcAyd0FWuS5IJZKAyMuEwI88YDZEQWr1Wjt7C9LFn/eyfuy0fA1ptfoS986sGPmR1T0T1kZ/A/zIR5HVDlYQUmZlZkE8/UAEORFMOm9B8I/T6kPcqxRYegtSrVZ1N3mXQk4qipO84M/zgVFJQVx7zktIvd3LNuRF9Gh2u90PLkNasgWhBGllv6quFFhGC7Kqf5hQfBw9yILAdGJeMC0riFhj1clPO2ML0sUE6e7LEa+gIE7mcS+7ExfUJtS30eWXCUMtyCx8sXKCQuF2kAWhJKnXaz9lGvISBeke60Isp8X44WQc96oFluaeyYqa8rpd9KXoFuR/c9A/zw9G7qp99DZXYNFPvZZdyMsI0j0Q2bHDV1hO1gwZUQusyDd5o7xty1mQO7A8mCcNGRf76LKCUH4ghvSysiCMH+UTtY3OlViYIxk2RKQZrKhX3YUSK+xxdFpf3YGDuznLekNqrLqrIbUH2cyZMIJ0adQrDGIxBWHIrCEy9dbED/3j6JWEj6O/gIA3dxJCs15PQfQCQkUkSwtCXUhLFRDHVxCEbBoi4hZhyDIhpyBLS7G7IBBg5c+GKINYskf3KPIgEwvS7SoSomRYHjI5d3LroR3ZgpCr7joBeRTlcfQ5OA2XP0wE1FecgmD0spgzYfygLkSusAQBcRqN9C3DAn8HK2SZkEzyVoSTio9ivEwIBj2XmDMrCM+Oegn9epCZBUEMea+psAT9aKDPvbR/J2sS3oCXCatqiBX9ZUIwIPnETW0bXRUQzJFeNiEvoke3XBYrLEdSkAalyL10fy3rEl7TMqE7qFiRMqyoj6ODAckpRvltW6MFwfQoEYqkD3l9CREHTRzJgiB+NBrpGiK6hDekC1LVroKEWpDr8E3KK6ajWZB6CQFR5B/xjlabCFLuHotjWI5oQRrYg2CGpGmI6A2Ids5kparbBYlsQZrgz3NuQ0IsCJUQgl76kBcTpNx971r0HbmNzisIYkjihojegITdM6kkeRwdRnhzjMJCO9yCYHq4HKn3Uoe8xIUcs2F3IeT1BcSVkEYjYXmv7YDEXCaM1AWBAivnGDO00VWKMDxIF/JiAUHY35Hb6JyGNJiCICRqGRa0HZCIy4QV0+Po2gqrDAlvzm1ILZIF4RhS+jGlBcE5Fm6n8+u2XIVFQizGkE4nSctQvtIQNmeiX0ePIiDNKfgK5d2GRLcgLtZ6zxKHvExByn6J5dAQS2gTchLSid8ynDEYdNMyodgFqcSZ5P0evkC5tyE3a+EWhKPImkCRJBaE4EOLB88OXkAaHaQh92L+H03t2XZMC7KqbttGUZA3R+DQ84/RwEEsnYLgn14qC4LAb0s5Qi/d1Q8H04P8xGuqX+3ZUQjCWRChC+IqSCQL0gWHPgyYkAUk0IIQBSmtrfV6SUNeigPTGJagIMSGdGK0DAvjRTuqgJjvmUTMsDbgSPVQYFapsQItCOEHRi+5BUE2XZnk5S2IV2CRIqszH5khQfwIfBZEt40e0gU5ugbfneGwIbfD6CFaEJ8jzxJXWMimCxLC6NFQTDomSCdqU300iB/BuyCV4Da6ukxY/iv00IcEI+0ABSnpFYQw5NXaj7FDXob30q6U2gXpNJiCIESyw6PGBkjQ0eqweyYGAdkFhz40GDMKiIYhHj0oThNZkHL3WLpn0tJ0QbgqqzOZlh+Gx9GFew0xuiBnN+B7MzyYDoh5ZX6UeHpgFTmNHfKKNZa4DtJgGVaDFxCEqZT80D+OLgrIUuRlwvI2nGkYJswZLYhMj5JAj7VXCGun8Sss1gpxpJBXLLE4BQllyFgIPwwKop1UDJ3kfbwODn24sGC0ICUpxxIKrFcUy6fxCXKsE5CGkPEKCtIJbqqPR+eH2YKIFVaABdkAhz5sRt1gQUrBCsIIgihyGiPkZTWW0iV0FcThPXojAkMKV4u2HUtAVvl120o13rs5RxasEQ4bxk0WRPXoqoIgiiwvF0/jWBCWY4m7IHyLkFBEkBBzU32qZ8cgyHPhqvuqIcMyW5CyBUNYw4aC2y9U9CNQQV75WMYkKUavsGiN5cjLhL4H6bAuCE8Rw6b6zJ5tx1YQr49eCe2CiPx4vb4OdxqG1KjXtdu2xpCXJwjB/eJpZIKU2To6v0soNQlFE4LHTkZ08dVqPH5EehzdaEFebFgz8G0ZQg0pLNQ0XZDAkFchCKLI/dNoFqRc3tesozvcoIkqINrBrMniQzu2gHj3THRP2wYqCDIgu7AmNZS4orUgqoLoCLK87DMEy0gEfpCgVzpoQrnhSE1CEWPxy6uwq+5V8zLhz/KcyZFlwZrUkGrIeK0e7kGCBWT5PmYI4shJIEG6ftArTmI1HH6SV6Mg6D/wBmDy1koMfhjumcSxIGULHPrwYlpjQUoxLIirIBSnJyEKUm65MyYtSUE4/6FREG4wa/RGNPkIeByd3OStKk/bmizI43VrC4awhtioK/pRj2dBfIJsbm4WkY5oQt6uYEKklNfhOukmhjToV7Qw03toRyVIwD0TxYOYFeSf25YFa1LDjNvhChJsQXwFwRy5v1g8KesEpEs7IeqcCacgJgGho4sjM8UV205AEHkXRHetwbBM+GLDsnZhTWqYMbIQaEHCBYQjyCYlCeLICTvLK3dClLvVlCKdAAtCMH/1Rhx6mB5H13p0swV5emZZFgxhDTfGsrIghCGbuNJ68mSxeHTCawejin5S0fE9iJYe8x8ta/2dHQdB90z0cyY6C4L5AUNYw46JBBZEX2F5DMHAJDmWJUS5OdqQMywtOzDW39qJFCRkmTDgcXQc8FoWOHSIsswCUlqLUWHRGovxA2NzcfHIlxLs0qWbiuqqVEMkh8sOgl5ygiR6HJ3wA9akoBviRVlpMiyXH5sCQZ4sLiIlwVLiasl79Wi1ox91l8iBsBWDIREeRw99mZDwA9akAH6UldaCCBWWi0VEEAqkJccfxEZ6Q9qVoi69oXCDoZgqwxIfR/cEZElvQQg/wKEDiIgsxFOQiBUW1RAG/K8vNz4izM+3Wm6XkOsUzjvziBkGarg4e57CgohP21aWgh5Hp/4DHDrADXu/y8KCcAqi8oNi4+zsbMPF7sfdj9vos/5xfQt9rCjYeJd0zsSoIFoBOaN/HKxJAfywN60FIR5kM5ggmB0uQ3bRD8I2wTrCFkIoQ7Z7qTMs34M8MgxiPXX5AUNYAC7sjdxGNxHEdyBmBfGxS+HxIxpBLOs/D5NaELxMKL27pr1n8mzDTZZhTQrgh70lzSjvWqwuiGpBFjUKcmYgyFY0gmxZZ6uJlgmr6jq6/iYvnr8igDUpAIfZBBnWsp4fgQRhFOH4sR1DQPDf7L0ky4Rs0l24Z6LJsLrMDcGaFEDAXEoLEpEgZ+kqLIKXK0mWCc0e3VeQX4+8PwTWpAAibqeZ5NVVWAYFSU8Qa7udzTLhknTPhMVX4NABmrB3Id4yYfwKa/GlZEG241qQKCISY5lQEpDX277XgSEsgIwr36Voo0ckCMt4k1sQ9wtsDHyD7plUxHsmS2KGdcT9/rAmBVAxVu+vBfEVJF2F5fbV3yVdJpSXpQhYumvBEBbAhPEsLciiWUGShrzycNZKzMfRK+bH0Y+EPx6GsAA6FCb6akH8TmFaC8ISX/VGlmGZUPM4Ot9G//eG8PvCEBbAgOl+WhCmIOktiIdd+ZBD+OPo8j0TLB/S7woOHWDCbLJlwqgKcpaZBfk/e2fz2taVhvHihb2qs1OoA0lcSkoxsRuEQyB1vEljTJdhmI9NkRHqQJkKNFlElmJio4UqzEiLEbYkfGHwLDwLGYw/8CZgvFT0R839/jzn3nPuh/TWPL94W3dhHp73ec9zzuVIRODj6L94P47+r6W+71fimhSIVMhvshOWQARxtlipRBA7US/9W+7j6J6q+3+OAr8PCR3wY8gXz7PaYfkFksKEZUvkZ/mPo+vyWGoEfxsSOgjleVYRxAzpR2lOWPbS15i0RD+Orgvk96Ujxm9CQgcRJvIqQQT5IOAgWQhEDSNL/xN5z8Q2kF+H7FtauCYFohSyKR9BhAxESXXJy7hxuPTf6PdMDANZGnF+B0pYQEAhv2URQd6OsokgHo0on38O/Ti66iC/L424/z9ckwICzGxmKJBsJiznSpVqJJ//xntS8Z+flUbYf45rUkCE+XzqPZO3bz+MMljyclO7svT581/+binklz//49clZdSPCjK4JgWEmMunH0HejrKNIOzab7+v/i9Ffz+uSQFZhaQ3YRkCOcoygiQECR1IKyS1non3GCSjCJLMblDCAuKrLEMhqfVMvAKZ0IQlB65JARly+XQnrLdHWS95k4ESFpBXSIoCUYhPWChhAUnu59PrmZAXCEpYIIZC0lvyupdYFCMIEjqIM2WlF0FGpCMIrkmBZApJLBDSExYSOojHXD6lJa++xJpMzwQJHUyMWVMhiSOIQjmCIKGDhB6SSgQhO2HhmhSIz3w+hZ4JaYGghAUSjVmbqUYQchMWrkmBpApJbCAK4SUvrkmBpLxKQyBEJ6w+rkmB9BQSc8Ia0V3y4poUSIHniZa8hCMIEjpIhe/vZgTBNSmQEl/fySUvrkmBlFZZsw/+FDuCNKhGEJSwQHoSuZ//612bsFDCAikqZC4fSyAfyE5YKGGBVJnZjHOZkGzVHQkdpM2ru9TkxTUpkDrf353LhEjoIAO+vjOXCZHQQRbcz8steRWiS14kdJDRMmvzTrxngmtSIKtl1qs78KQiSlgg46ge81V3GhGki2tSIEMexHm0mlIEwTUpkHEQkXiTl96E9QbXpEDWQeQP/FmQLhI6yD6ICPRMFJoCQUIHkwgieTEDIbfk7SOhg0kwvxkhEKVBMoLgDB1MiCfT/zg6ztABYR7mRQ2EzJK3j5Y7mBxzy1EGQi2C4AgETJRveAJhGMj0I0j3zTz+ZGCi3M+zBdJoEIwgRzgCARNnJcRAaE1YXTz0A6bAgzzXQGgted/gGiGYBjMrnBUvrQmrgQELTImH+TADoSGQLt5pAERMZNSgF0G6b9AxATSSiJbQR64Ri0QEaeBbB2CazM4+cQxkRG7C6i+jYwKmTG6ZNWCR6Jl0hzn8fQCJsK40LAOhE0G6I2ywAAmehBjI9CasEY4IAZUs8ohcBOk2XuKIEBBh/f1eJ6SoOA2BNIYYsAAR/8i9VznoEeqZdBtDlNwBEWZWVX3s7e1pEiEyYY2GGLAAFR6/NwSiSmRMYsn7bjQc4hYhIMLijiOQvWpv+hGkPxwOcYQOiDCnDVimQPYOVDqN6UaQhqoPHKEDKmzs+ARycFAbTy+CdNXxCgEEkGF9xyMQVSIfVTSJTGXCOhpqYMMLyAQQUyDvbQfRBPKxWh73J28gun0Mh3gnDhBhZpUnEPWnMp6wQBq6PIbLeMkdkAkgPIFotLc1iUxsujLsYzjEJSlAhIWdHVshDIFU29V2ZzwZhfQteSCAACrkdsMFoupDZXvcn5x7IIAAQgGEKZADl4PoVNu18btMi1eOPBBAAJ0Asru7GyEQQyJl9aeWlY+os5Wi/jN5iUuEgAjru9ECMeRR1lA10ks9j7xrjBRdHpZCUMECRFjcjRaIOWOZEilvb293UjQSXR2K2z9QwQJkAvoqSyB7HoEYE5YlD00fGqqRJHeS7pEmDl0fim4guki+QwULUAno9WiBeB1k21BITaczjm8lhnPY+nDmK1SwABW+qocLxLPG8jhIzZRIpVZRVTLuy5hJt98YqeLY1/+5JGIYyEucEAIqAb0eEMj7EIG03QKx9aH9qPTUkUsVyrsQpbzrH2nK2DdwxGHJw/AQnBACGswu1qUE0i4HBVIz5dGpdNSfXkel1+u1WuPx4Xi8PzbY1/6pHO4fHh468nA7yNBO6QjogExATyIQa8Sy0CRi6kOnpcqk1Tp0sW+JQ1eGx0EU20FWvkBCB1QCuioPl0B2wgXiXWP5HKRiyaPjlodJUCE+CxnaDoITdECFjXrd6yA7Yg7iCyEBB/FJ5LDltpBDroXoDoIFFqASQNYNefAFchDqINt+B6n45GFbiFshHAexLQQLLECEhWK9GO4gB0EHYa+xah4LsSViT1mqMloBBwlkEE0gWGABKgusYtHtILuxHcQ1Y3EdpMXIIIpvzNL8AxV3QARVH7aD1GXLWIGTwmgHsSYsZ8nrOSU0miYr2F8BGsytFk0HqbMdRKCMZcnDm0E6YRnE5SCK/yRkqHyHBRagwYymD8tBpMtYgYMQTgbpBfa8+56jEN9R+vI8/jCAhj42ijqBNVakQOQcpGcZSMu/xVKCR+lY8AIqmPrwzFgxylgRDtJjHhR6DtNdKyw0FAGVBdZ6oRjmILJlLLaDaP4RcBDPgLXvPkl/iSuEgAjrBVsgxXoaZawa7yg96CCelO72EOgDEGGhULQUIusgZREHcWX0XuhRuuISCQ4IAREeFgp8B4lXxhJ3ECeEGMKwDOQbNHgBjfyxqMmD6yDpHqVHOIijExygAyJo+hB3kMRlrBa/jGWMVrqF4AAdEPGP3JahD4aDJC9jdYJlrB63jKU4ZyHQByCCqg+PQiTKWG3+QYiYgwTXWOZ8BX0AKvpY3SoEHUSojFWthjhI1FG6r4zl7SuuoIAFyOiD7SAJy1gVbp03rIxlVrGgD0BPH4Xwo3S5MlYtss7LKmOZIsENdEBIH5ZCioXQMhb/6biylIO4LMRzDnJoX0qHPgAlfRT8FiJdxirLlbFa/DKWBgrugJR/uCJIIVYZqyxZxurxy1iqg0AfgJY+bAspFjKs8zIyOtNBlnEBBJDRR2nLbSFxy1i+p+PkHcS1xoJ/ABrM5kqGPgrBEasu/rZiNUYZK+RlLORzQITFkuUfLgcppFvGcr1gzXMQbxkL5x+AiH8slkqaQiwP0SVSjFHnDXOQGq+MFXgZy3QQ6AMQ4Zmhj3AHES5jMddYrsdHo1/G0h0E/StAxD80fWgKKfG3WHWhOq/1NlZ0BulEvc57+AT6ADRYN/URw0HYbUWhg5DwMtb+Y/xdAA3/eF0qWQopsRxEqGti+kc1pZexDvEFKUCDmY1S01GIx0Fil7E4H5mSeBkL7zMAGsxtNL3+4VhIrHdNqpIOwnwZC+9fASLk1prNUrPpcZCC70JIRmUsvoMs4/1EQINFTR0BC7H1Ie8gVfG3FTs8B0H9ChDhWVOXh9dAtrYiHUSwjLVdjvO2Io4HARHWmwa+lO5ssQSP0iXLWKFvK7Zw/AFoMPu6OTDl0QyOWFsSDhJ1lB5VxnJbCNZXgMj6am1gCMQOIZ41luekULKM1ZYrY7kcBOsrQCWerw1cA5ZlIeyTQtkyFvsoXaCMhfUVoBLPByqWgwRSOstBJlDGWsHtKEAkfnD0YRoIJ4OIl7HkPnRrKuQx4jkgwfzG8UBXSFPKQcTLWKyQHnWU3nuIPwwgEj+Ojz0O4qx5k7YVnYPCtmQZS40fMBBAIn4cawxcHmIKZCvYViyIv63IWmMJOoj6g/gBaDDz2tZHc8AbscQc5L3c24ohZazePfxhAAlya59cAvEpxH8hxHupMLsyVg+nH4DIePXJ0IcV0ge+DFJidrHkHUSqjLWCciIgMl590tAFchx0EE8GCbaxJMpYbZky1j2Ec0BkvDpzBOLe83LXvFwHkXpbMfChWzuEqHy7iD8MoMDss7OzM4+D2DG9xJFIkZtBYpaxghn9KbZXgARzGxcegbi3WP4bUwVe10S8jCX2mcLKAv4wgEY6X7u4CHGQJlchAQeJFEiV13f3l7F6j3L4wwAa6fzi5CLgIIG6eyCEFAUcROQrbOw1FtI5oMHimioPXSBnlkCOfSG9Geog7htTUWUszUHKrOerK14L+QnVdkDEPk5O2AJpRq2xkpSxQl/G6nRQ3QU0lle5tROeQPxlLMZRunwZy/P6KNNBOpUK7AMQ0cfrm5uTKAcpxXQQ4e94+h0E6QNQsY+bEIH4boRslQJH6THKWOYWq80vYz2CfQAa+nhxc34T7iCD0Jex0nYQTSG1BdgHIEFu7VzThy6QE5dAPnEcxM4g7oPCeGUs77MNbgd5imYioMGz8/MogTghJFjn3UpSxrIcxFfGqvyEe7WAjn2cRzvIwDpJbwYeeE9Sxiq3mSHkHl4VBUTSx9XVlV8gFyEjFuNCyBbn4R+xtxUZDoLpChBhcc3UR6RABv6jdOcsPZDSBctYHAd5hF47oMHM66ur66tz20FuuAJp8h7+8a95Jeq8pkJ8DvItdleATDi/vtJhCeSMl0FKgYMQxp5XrIwVdJBthA9AhLkfr691gZyHC8T77k/J/40pXwZJVsZ6PIc3rwCRcK7Jw1CIgECaYUfp7mMQ+ZexnDrvU9z6AFSmqx9Or69NB7lK4CCMB97jvmvyJXolgAi5H1V56Aq5uhZ2kAGrzltgW4j8y1hfYnUFqOyuXpzqeAVyLuQgTe6n0otJXsZ6hHNzQGe6ury0BHLlZBDmUTr3bcXgy1iFQrw6r6oQuAegJI/TU5eDhAvkk1AGCa/zRpWxnkIegE74uNQJG7Ei6rzcW+kxyljtdvUrbK4AFeZf3DryCHUQ1lH6gF3n9bcVZcpYH+/N49wDkMnml7e3l7deB7kWFUjgTmEwg0iWsdqrCzg1B1SYffHD7a0lkNPTS49A/s/eueu2jawB2KIoWheboixZlg3qVhgWDLhIESCFAzcJXGxBv8IeLPIMW53iVH6DU2x5+lQni9iFi/jFVrJl3ThDzgwpa2R/3y6CBTbiiNJ8+uef+Wf4t3IE+bZYzvtN92SsRUH6PYIHWMOzHrEI8ryUrlKtGCtXTIwgacVY/yX1AIuix4fL+/v7X/cvgnz/IYsgCQshsxzkVrgpfXUlPanWpD8ZWxE+wCY97n9NQ8g8S0+JIMkrhbNqrN+TdoQIBPnPMdO6YFXucf/EUwCZDbG0I8it+SNCFgUhMQfL9Li7u5sa8mthiDWfxfqpXK34l6jWRFLvLlxK/3NA8ACLcBb0mEaQsR9zRUwiyDfZk6DnCyF/CIux/rzukXaARex+uptw/+LIPAn5Pk9CfqoWY8kfwxY74F0UQT5esRUKbGL49W7K/WII+TFdCPmhXWuycqyJ6OCfP8QR5N8fr5jUBav48PXh4eHuYWrI3XyEtTqNpVGtOHvG1O1yDjJP0n8XRZCP48SD2AF2pR4retwtTGONQ8h3swjy12oIER/8sxhBiB1g39jqYcqLIouzWLNaE+1qxYUnhNymH/wziSATOzyCB1gWPB6X9ViNICs5yE/dct5Zubvs4J/nCHI9zsoZWoFtwePx8fFhJYLczyZ6pUvpf6sUYy0/5zYpgny87rEcCJbhf7p8tmMlgrwY8muhGCsWQRSOjrsVFGOJcpDrq8lqILEDrBpaffj6OOE5gjxODZlFkDtpDmJQjDWbxIpHkI9XQ0IH2IY3teNxKYI8PIgXQgwiiNJjCj9+6flEDrA1dkwDyMPTHy9jrIeFCPJrMQfJUox1Gy82ub6ayAFgGbufFuyYhRBxDrI0jbVQrmgcQaZ+XE+GVczmgpV+XK7Y8fLPoiMvOch9bEuhbJ73/0rFWP/6dn31gXVAsJvhp6+XK45IIsisnPeHzlL6/8TFWNdfJm4QOGA78pAXS5YCyDyCGCylS4uxPn+5GvKENNg+2hNNFgdY81KTu5UIYlTO+/l6rAZDKthu/OHEk8v5RO/9PEmfhZDvOsVYnz9/+TJONhhNwRth0pW93bEoE1OeF0ISirFkEeTZi+FEDNyAN2vKWJX28MNEljGXY34IZ7HGhnwe83UixYexFtMFcbJweEdRxXv5D3+3PWfX952YVgAAAAAAAAAAAAAAAAAAAAAAAAAAAAAAAAAAAAAAAAAAAAAAAAAAAAAAAAAAAAAAAAAAAAAAAAAAAAAAAAAAAAAAAAAAAAAAAAAAAAAAAAAAAPB28IO92iJ7fCQAT2qELbfSjVYoJr3EXf3bUZnP0TYOY1+S7o/ewc0qu3bf8n7sDdezXjJojWJuIAiCIMgEp9qMZCAIgrxzQZxGJ4oQBEEQRIR3XowiBEEQBBGydxhFCIIgCCIOH+UoQhAEQRDJ1NUoQhAEQRAJYTFCEARBEMnwKuxGCIIgCCKhquQHgiDI+xSkEUUIgiAIIss/ugiCIAgiY68YIQiCIIgEvxMhCIIgiHrHRhAEQZDZBFaEIAiCIDKCIoIgCIKYDLAOW2HgZ7kSgiDIlgvi1aTBohyM/3c21RAEQbY9glTEenTLvvYbQRAEeXOChGI/KibHlyAIgrw5QcQl7q6zgyAIgiCSDKRk9kYQBEHeWgRxc/QDQRDkrQnii9ZAmh6CIAiCTBAtoheDHQRBEASZIDohLtxBEARBkKccXTDCcncQBEEQ5AnRHNYegiAIgjzTyjWAIAiCvDFB3DwzEARBkLcmSCH2YXU8BEEQBJnm6N3c1ggRBEHeniBBfIRVRRAEQZAptVznsBAEQd6YIIJSd+fVBXErKzTN21+9VKWazyfs16qtUsltHo6abqncqgbe2r9Uv9Yoj1tsVpquW2pVa77phcZvfIn40pdbElPNKojTHvYmDNs5GLTbjyG76snxMmexN9w/FjNIE6S48+qCFPJ7D/G9X43M34u3d96Mn4rULbjVYF1uTJqMd+OO2zBqUeHIfgklc0GcYf2iv9gvT/sX9V6mX9/dG+XAFY8YqpwtXyheidVBkKXvueomnGhRKIVrsCNMaLJTqm2BIEf1vqT/9Qc9b7sFKSDIvKvWSqnnvXTK+caRvXJak51WYLUgu/WD5C44OLJdkOqM+AOlOoEE570Jkvws08XNAfmFkVpTrcWatYL0VPpm/8SzWhCjDyt8X4L45+qnsUajfBQJ1buyW7NSkF5fsR8e1B0E2WJBvEZR79M5rGXWI3C1WnR96wQZ9jV64sEJgmytIKmP+s3UYcVKnmsqGRXPPasE8QeafXH/CEG2UhC/ZPQBFbMsuewVDFocBRYJ0jvV740DD0G2TxCjvpoxiFS7Zk6GtgjSHhh1x34bQbZNEMO++jxHblan47vGLZY9OwQ5M+yPpz0E2SpBHPO++rS+bjLM8kcZWmw6VghizgBBtkiQTH31iZb+7FUhU4OH/nYLcnPhIci2CBJUoszoli/vdTI2WAi2W5CbfQdBtkOQzH31uVdpTc0ExcwNdoLtFuSm7yDINggS5OKH3p7MXNqs+NstyM2+hyD2C+IXopxQz0P8Si4NJmfq9guilocgyEYFcUZRbpyrLp83c2rQ3XJBlOayEGSTgqT31U6zVG6dn7fK7mExlw9LeCrZUotuuRqGtVpYbbkpoSbpNtN3FJYbYsKsgpz1jwf1k3p9cJH2kl6ugqTvKLw4kYAgJn21UK4ujfODhpsoidrx32HSikqzMbnGfOjhV5M2p3Q1lijXsSddtAZ4cbK4Tu716km1jKftPAXxUiNK/ekvxf/dQRAhtYT182JZ1IG80E14zUhhUJ0wgdU5FxnmVOVxpODbJcj+iSAvag/kK+59L0dBdlQEkYMgsWS5k9BXpRlw0CpmWQ6RLtp3GrImvbCSff3lFQTZH8oyvfqZcRryeoJ0ZsS/4G5HQu0tCyLtq8VG4g+bX5JGkdTPSzbASn66sFctmjb4aoIcJCUUTl32srY1gsxhT3pyMlBKHbjsyeaIKilDBkcyq5z6SxRIphMOPUsESStiP/pNEnYQxFJBnE6GHR5eq2s019syLpn3WvozWa8nyFn6fJRzIX7pCYJYKYisw1UCtUbDosFMll80r1PxxCX5RccCQQ6UdniIh1lnHoLYKEggDgFN5XkhSQ1XST+AqGbaYTfD+uQ6BekrdtkTgxCCIBsSRLzD1tWoORRXrHcD3VGdehVXVZi+OJsW5DflHxWhIQcegtgniDiAuHo1uQXN/n6etc2GeRayPkEONE7grWuHEATZjCBl04W+JUOKeiGkkm2tTzIzXdisIKdDjWt4oky9jyDWCSLMltO2WChmBdKb38tYLbIjKT6ubVQQvZOufNGS4RGC2CaIaLDTNTgGTnSdoqcRtXQ369ZMk5h1CbKveZWe5nI6gmxEkMNcNpaPhwwj9foc0dPpC9pncZYMZ3rXJUhb9wYu9GZ6EWQDgniBwSK45Epd1X0anujHX/88FFGD4eYEGWjfwO6pVtk7gmwigpSzVDWlXqrrqy6CFLxcGixvTJBTg2dIHWtphiCbEESwHmH6BDhRui+OC6M8AogwhBQ2JsjA4AZ2teaxEGQDgohGWMaPMT1XzJqdrnGZyDKCssVgU4K0TW5AkIX4CGKTII38AogwhAifaBdmOwkl6etTiURrEaRvdAM9nSQEQTYgiJvPYEc+rxSoWWn2BB5BKCpvSJAToxvwTjV6LoJsQJCO+tqF2dKEoH0vnlx3DR//2jSJf2sRpG12A/Ex1gWCWCRIkNdgR+pbKa9urTgd1tmMIGeGN3CiMVZDkNcXJMxrsCOdeB0padQybE/w/v2NCHJheANH8eliBLFIkPPcBjuyDiu6l25ueU9gMge3DkEGhjfgaHR6BHl9QeJZdSXT/fsqv+hObkuTOztFg0utQ5AT0xs4UK9XRJDXF6SZbwoiGj3VVH72A9P2CgbBaB2CDE1vYF/9Ugjy+oIUTLetyqYtXYUOG5gkDso3vBlBjvITpIcg9gjSyXMVRDxmi78BwWYQ46nlkYHh6xCkbXoDFwhisyDF/LIB2bxrvMMKVkuM22saTIitQ5Bd0xs4Vk9nEOT1BREUqJcyMVLosAiCIFsiiB+tnzKCIAiCyCkhCIIgCBEEQRDECJJ0BEGQBEIEQRAEkeMjCIIgiBRBNS+CIAiCJLSPIAiCIC+34iMIgiCIxhwWgiAIgsx2l3gIgiAIIh1gCXsegiAIgjxt3xXvb0cQBEEQuR8IgiAIMvkkZd0OQRAEQbpl6TZaBEGQ9y5IpxzIW0UQBNkSQTzBwKiSlWapVUvcY44gCPJu96SrgCAIoiVIxSZBQgQxEaSNIOsTZJTfKTi6x/gUNIVCkCf6uZ2L5XHsj8mXbHyOmm5EGJm8XwTpr/NkRQRJf1Fg2Lz2qbcllf0bCJKhV6fxG0ePplLKLREQnFmY/N3Hz3nregiSyoVpf4sPsU7V05l3K4jKaYSmt/NPe+e25CgLxHHigRgTTzknFQ+5sJxKVZ5kLvT9n+YzO7Nb364N0oAzosN1VKL9498NTcP31qju80FmAshF2/kgx67RWz+A9HbCkXx89/waGy053g8gva17LtRWsv9XxFlVswVkU+ua511hQwpqa34B8wAka3QthHS1KPgBRCC0ljuqHMgccdEGNryPNT5AsKujS12n3AIrKpcfQDrtrMnPedToaAa4xJk6IDv1MaFEDPy8dm++5hjop+yZceMApDuNdZaaSzrU6LERCELSeOKAiBzygx6R5XysrofFWVFRAOSCEKrxAUJ9PX4OYOz9h57beLdseoCgD9mNGi0TvVZXiUr6NYDkJikIcCbZQcvDBdwlt9YVARkDiKfuVQKuUSlxPDDAWUCGACTCgDg+QICUKAkJ2dS1xIIKYK31btqAJBJC+6/olzokxKpQd5EHhGaNZHLMSADxgH0ZVN1WhHJWADhVDyocOSA6VkefgISgo5CiexNeWrCCgpwaySh9JIDIDf59f0UssWoPleuJpwxIrD5zBw3JonHvn3YEZCgngwBidS+tqEGAQPNPSCONbbHCuN0LU+DCgzVhQIBpdfTMHeRjITMWad7gllMUAAHyj8VWbsYCyAOqCoIxUgo5WGko1+eBZ7K+HRBXQ4INMEHblKhtU5CDxbV4FUCAh71TgwAJofEfo/teLX2DDVh2YT9hQABvNMXO3N0h884RYxrkpPFzHlUAgZ4WGQQIbODiw1oCGvlGttPDEvLtgMSQU4mdFAkgAw+E75JBPhp/Y6ICINQq5QRvNICAkYCwkfp1raBAsIQMl9b77YCAE37YvwsqQPMUJOQO8sHPV1FREGjaTUTwRgMIuGDXXi30vh+whQun4MHPrh1rooBQcEDBThvmICGB0EuD9aNnbUIJkExO8MYDCCwhtdMfZ1ss+xbuNRgB8YqHmq4gYaqBEFhCmlzAcYngS3sSHpUAoZWU4I0HEHA94pW22KcD8YpR+xMxc5mw6ocmdJKAKOk1PwppXfu+2d6QdeFxQEDgSbMmWBoDCF2hi9y+rnowRn9UkE0PrBqiq/UkAWHo9RtKMpewn9RnddeKcVlBhgSE0dsqMwUQKAPiU0QSi+lML5i11VEBxCZlltl11hMEhBV28UcjQU+p1YKI+faznHXR1hoUEIaEtG7W0RBAWB/thcge8pfCZMEuro40a59TiXrnW5MDJGaNCLYn/uas94aJSAGZnXVl4iGwDq8ICFPwmmdGjQDEWvGsNPmbkdh3Us7PsasY1OUVa7cdP54WIHTPKU3vJrdNHH423l2OJdvemzz6e1UjzC68nxdkYEDYgtc6Ws8oOx2BvzwqQOB8qv99OMdL/Nv65vues+AfP7BDB9fWou9Eg4+n97TYEED6/69Q/Yxrw21VUFyz7J5l1+iZ83+a08EBIT1d+NNGCwj1az3tLDHex2cdT3ZNAYQd8qEKzFwaPU0kV14ZkLvpgDDnepHNllq/2NizAgTO7sECYuV6+BDZvqQMCM/JMgQQwa/Gb6lk4Z51OitAwARodIkyPYQIJcqrAwImnJgFCCNzENWk9wPe0jkBIuZU9tbwW27V+RArqqUBELHOjhoQqkpIqrBfdm3PCZC+SRExQOixUuVDcDe7BkDIsjIdEFUvK1UqjLg5zwkQKuBUClSBXb5/hX7oAYScSuMBUYrUbcV173g1I0BEJFOkTLJSHFIKb9TVAgi5V8YDQnxpT2elvJ5neXMCpF8yheqIW09pPirxs6n0AEKOW+MBIfFBzjy17ODw7RkB0iuZgoX2r6UcHwEi90sTIGSZGw8Ic48H/1tqKmcVv80IkD7JFD2J4igViESYjAddgBAaGQ9Ia0ULtHzEevggVEFEzAOkRzJFAaFWgcYjx52Nqw0QQrPKeEA4Oz3g9Hatx3qE7owAIaGnDshLRAJcdB4hE+b0AdLqZmE8IK2r4wkv3J21b/2L3XQ2gBByO2gApI1ExP2sssCvYWgEhJJ7YDwg7dC2F1KRhT/EzlgEn8YD0nZqpwEQ3n4oVTz0AvJrwjcwHhBKwqQvYk6d21AnN8eP1WwAabvl2uqAtIg8eye08khqtlE3IIScispsQD7MdM82U3vnh2TItvHOcwHktd3AXSgD0rNvsKmKk2T39APyCtcvW9MBafUhbL9c2oVjv6Zk+Bb77nkegHz8W89Z2UqAtB/FygoIkjKI7vJdGwKQX/d9becqYUA23r/tMTpAfr/2+PbwXGf3tnMc10vWIfnCFq4Tz3lbnO1UAyCbVadJd8zt3CrR8oet+HeTf2f3a/HM36uyKattHlyi7Kg2nllFp+ksFmAtj5/tP2Y2g+yAlaCMAAAAAElFTkSuQmCC;" parent="74" vertex="1">
                    <mxGeometry x="104.51999999999998" width="46.97" height="34.23" as="geometry"/>
                </mxCell>
                <mxCell id="81" value="" style="sketch=0;points=[[0,0,0],[0.25,0,0],[0.5,0,0],[0.75,0,0],[1,0,0],[0,1,0],[0.25,1,0],[0.5,1,0],[0.75,1,0],[1,1,0],[0,0.25,0],[0,0.5,0],[0,0.75,0],[1,0.25,0],[1,0.5,0],[1,0.75,0]];outlineConnect=0;fontColor=#232F3E;gradientColor=#60A337;gradientDirection=north;fillColor=#277116;strokeColor=#ffffff;dashed=0;verticalLabelPosition=bottom;verticalAlign=top;align=center;html=1;fontSize=12;fontStyle=0;aspect=fixed;shape=mxgraph.aws4.resourceIcon;resIcon=mxgraph.aws4.s3;labelBackgroundColor=none;" parent="1" vertex="1">
                    <mxGeometry x="447" y="641" width="58" height="58" as="geometry"/>
                </mxCell>
                <mxCell id="86" value="" style="group" parent="1" vertex="1" connectable="0">
                    <mxGeometry x="330" y="580" width="150" height="20" as="geometry"/>
                </mxCell>
                <mxCell id="83" style="edgeStyle=none;html=1;" parent="86" source="17" target="81" edge="1">
                    <mxGeometry relative="1" as="geometry"/>
                </mxCell>
                <mxCell id="84" value="長期保存用アクセスログ" style="text;html=1;resizable=0;autosize=1;align=center;verticalAlign=middle;points=[];fillColor=none;strokeColor=none;rounded=0;labelBackgroundColor=none;" parent="86" vertex="1">
                    <mxGeometry width="150" height="20" as="geometry"/>
                </mxCell>
                <mxCell id="90" value="" style="group" parent="1" vertex="1" connectable="0">
                    <mxGeometry x="599" y="575" width="80" height="20" as="geometry"/>
                </mxCell>
                <mxCell id="88" style="edgeStyle=none;html=1;entryX=0.5;entryY=0;entryDx=0;entryDy=0;entryPerimeter=0;" parent="90" source="17" target="57" edge="1">
                    <mxGeometry relative="1" as="geometry"/>
                </mxCell>
                <mxCell id="89" value="エラーログ" style="text;html=1;resizable=0;autosize=1;align=center;verticalAlign=middle;points=[];fillColor=none;strokeColor=none;rounded=0;labelBackgroundColor=none;" parent="90" vertex="1">
                    <mxGeometry width="80" height="20" as="geometry"/>
                </mxCell>
                <mxCell id="95" style="edgeStyle=none;html=1;entryX=0;entryY=0.5;entryDx=0;entryDy=0;entryPerimeter=0;" parent="1" source="91" target="92" edge="1">
                    <mxGeometry relative="1" as="geometry"/>
                </mxCell>
                <mxCell id="103" style="edgeStyle=none;html=1;" edge="1" parent="1" target="102">
                    <mxGeometry relative="1" as="geometry">
                        <mxPoint x="800" y="671" as="sourcePoint"/>
                    </mxGeometry>
                </mxCell>
                <mxCell id="91" value="" style="sketch=0;points=[[0,0,0],[0.25,0,0],[0.5,0,0],[0.75,0,0],[1,0,0],[0,1,0],[0.25,1,0],[0.5,1,0],[0.75,1,0],[1,1,0],[0,0.25,0],[0,0.5,0],[0,0.75,0],[1,0.25,0],[1,0.5,0],[1,0.75,0]];outlineConnect=0;fontColor=#232F3E;gradientColor=#F78E04;gradientDirection=north;fillColor=#D05C17;strokeColor=#ffffff;dashed=0;verticalLabelPosition=bottom;verticalAlign=top;align=center;html=1;fontSize=12;fontStyle=0;aspect=fixed;shape=mxgraph.aws4.resourceIcon;resIcon=mxgraph.aws4.lambda;labelBackgroundColor=none;" parent="1" vertex="1">
                    <mxGeometry x="740" y="641" width="59" height="59" as="geometry"/>
                </mxCell>
                <mxCell id="96" style="edgeStyle=none;html=1;" parent="1" source="92" target="93" edge="1">
                    <mxGeometry relative="1" as="geometry"/>
                </mxCell>
                <mxCell id="92" value="" style="sketch=0;points=[[0,0,0],[0.25,0,0],[0.5,0,0],[0.75,0,0],[1,0,0],[0,1,0],[0.25,1,0],[0.5,1,0],[0.75,1,0],[1,1,0],[0,0.25,0],[0,0.5,0],[0,0.75,0],[1,0.25,0],[1,0.5,0],[1,0.75,0]];outlineConnect=0;fontColor=#232F3E;gradientColor=#FF4F8B;gradientDirection=north;fillColor=#BC1356;strokeColor=#ffffff;dashed=0;verticalLabelPosition=bottom;verticalAlign=top;align=center;html=1;fontSize=12;fontStyle=0;aspect=fixed;shape=mxgraph.aws4.resourceIcon;resIcon=mxgraph.aws4.sns;labelBackgroundColor=none;" parent="1" vertex="1">
                    <mxGeometry x="870" y="641" width="59" height="59" as="geometry"/>
                </mxCell>
                <mxCell id="93" value="担当者" style="sketch=0;outlineConnect=0;fontColor=#232F3E;gradientColor=none;strokeColor=#232F3E;fillColor=#ffffff;dashed=0;verticalLabelPosition=bottom;verticalAlign=top;align=center;html=1;fontSize=12;fontStyle=0;aspect=fixed;shape=mxgraph.aws4.resourceIcon;resIcon=mxgraph.aws4.user;labelBackgroundColor=none;" parent="1" vertex="1">
                    <mxGeometry x="1030" y="640" width="60" height="60" as="geometry"/>
                </mxCell>
                <mxCell id="99" value="" style="group" parent="1" vertex="1" connectable="0">
                    <mxGeometry x="960" y="620" width="106" height="40" as="geometry"/>
                </mxCell>
                <mxCell id="97" value="" style="verticalLabelPosition=bottom;shadow=0;dashed=0;align=center;html=1;verticalAlign=top;strokeWidth=1;shape=mxgraph.mockup.misc.mail2;strokeColor=#999999;labelBackgroundColor=none;fillColor=none;" parent="99" vertex="1">
                    <mxGeometry y="20" width="46" height="20" as="geometry"/>
                </mxCell>
                <mxCell id="98" value="障害通知" style="text;html=1;resizable=0;autosize=1;align=center;verticalAlign=middle;points=[];fillColor=none;strokeColor=none;rounded=0;labelBackgroundColor=none;" parent="99" vertex="1">
                    <mxGeometry x="46" width="60" height="20" as="geometry"/>
                </mxCell>
                <mxCell id="102" value="" style="shape=image;imageAspect=0;aspect=fixed;verticalLabelPosition=bottom;verticalAlign=top;image=data:image/png,iVBORw0KGgoAAAANSUhEUgAABLAAAASwCAYAAADrIbPPAAAABGdBTUEAALGPC/xhBQAAACBjSFJNAAB6JgAAgIQAAPoAAACA6AAAdTAAAOpgAAA6mAAAF3CculE8AAAABmJLR0QA/wD/AP+gvaeTAACAAElEQVR42uzdeZyVdf3+8et932eGnZkBUUPZ0tSCGSAYkAEVymTTzGpI0cyyqG+L2Wol2EnFTFs0v222L5ZC30qRAdJCkxn2HzJIYposLqkwMMPOzJz7/ftDKjOB2ec+93k9Hw96mDJzzrnu+9zn87nO575vCQAAAAAAAAAAAAAAAAAAAAAAAAAAAAAAAAAAAAAAAAAAAADwL0YEAIBsVz7Pw20D9x2neu8ry3STpChUoUwmt5TJe0mS3PZ74Ickyd12hxnPBGFUH0SZmtqi43ZsHGr1pAkgbgYvTXct2NvQN5PK62uZTJ6ZUh6+fFwLMuoaBUE3SQqk3ZFFGYsUeWR1kuTy/UFeqqZ6uXYonY5IEwCQrSiwAACxNvIve/qlwmiw3IeYabCkwZIPlKyvpL6SjpNU1EYPt0dSjaTtctUo0HPutkWuzR7ali6ZQ5srxx/3D5k5WwZAq6XTwbBxDScFHgy2jA2W+ZBIPthk/WU6Tq7jDh/nerbRI9a88o9JWyTf4h5scfctDV0bt2w696s1bBgAQBxRYAEAYmHkX/b0S+VlhlvGi92s2EwlinSGTD1i9lQPSfaUyzfItN7cNqQUPVY1vmgrWxHAa3JZyR9nD/bGoETy4sBU4q5imV4vKT9mz3aPS5vMtF7SBsvYhsZUsH7jlPRONiQAoDNRYAEAOtyoNc93D+q7lVpk42VeJtloSSdk+cuqddOj5qo0t6pDDVHVo5OKatnaQA4e4xakj2sIo3EmjXf3MjcNN6l3lr+s5yStdakylCpru4Vrt0xKH2RrAwA6CgUWAKDdTVz6Us8D+XlvjTyYGJiXuTRSUl7CX3Yk2eMur5TbXxqj4I/rzu61nb0BSJ5Ri7/0ugZPnefuZ5urTKbTc2CcfcjM1rp7lcv+nJ8JHl57QXo/ewMAoL1QYAEA2kXpI7WvD0K/QJGd76azJHXJ8UgimdbJ9aAHejDKK3h47WhrYE8Bsk/5vPJwU/czRpjZBQr8fLnezLhaB+Va5uYPKrIHN5x/w1r2FABAW6LAAgC0DfegdHntWYHbDJfeLulkQjmqnSaviCKft2tP0R+fmmaHiASIr3HzPtVtX49e0zzwGeaaLKmAVI72maDNMt0rRfdUT527UiZufgEAaBUKLABAq4x9pHaUAr88UvBuk/cnkRapk/w+j3z+/j5FSzYOtXoiATrfqRWf6NJdRefJonK5vUNSL1JpkWfk+r0F0fz1U+ZWUmYBAFqCAgsA0Gylj9S+3gJdKelysdKqre2UdE9k/sM1ZUXriAPoeMWL5oyT64OS3p2Ai6/HzdMm/dwV/qR6WvpZ4gAANBUFFgCgSYZu9PwedXUXyv1yyaZKCkmlvT+l/a9y+0Vo9sPlZQXcwh5oR6MeuKagvjH/Peb+P5KNIJF2F8n1Zw/szvx+L/xh7eg7uSYgAODoQ2MiAAAcTenDNQMsL/yEXFdI6kcincC1T6Z7LIxuX3lmn2oCAdrOsIXXjjYFnzTTuyV1JZHOOMTpH4Hrx40Kv7NxevoFEgEAvBYKLADAayqt3DXCpE9LdrGkPBKJyQe3e2Xk/rXVE4rulxnXkQFaIp0Ois9sfItF9klJ5xNIbNTL/B5lUrdUn59+jDgAAP8xDiYCAMC/uNuY5Xumy6NPS5pEIDHeVNIGc//GvqLC33DRd6Bpxs37VLf9PXq+z02fknQaicT4EGda4ubf2DDlxgeJAwAgUWABAA4rXV57rrlulmsUaWSVZ8z8GzW1hd9/apodIg7gvw2dl84PemWuMNeXJXG31OyyUrK51dOuX0AUAJDbKLAAIMeVLq891yLdJKmUNLLaVjPd1O1QwU8emmSNxAFIo9bMymt46YRL5ErLNIREsnjSYlblHs2pnnbjn0kDAHL0s4AIACA3lVbtOieINNfNxpNGoj7YN0Wu9OrxBfO4RhZyVjodFJdG7zPz6yQNJpAEcT1oYXTt+ilzVxEGAOTcOBcAkEtKH64ZYKlgrmTvJY1EW+0WXL26rHcVUSCXlCycM1am2yWNJY3EcpN+G3j0uXXT524lDgDIDRRYAJArk7olL/To2rPL5yS7RtwqPmcmeZJ+m/Hos2sn9NlGHEiyYUuuHRBENldulzHGzRn7TXZHY7fgxo2T0nuJAwCSjQ93AEg6dxtbVXuFu90k04kEkpP2muumvUUF3+COhUiaUQvS3RvCzLWSPi3K+Vy11c0+t2Hq9fOJAgCSiwILABKs9JHa1wemH7jpXNKApCeDyGetOKvoIaJAEhQvvPZss+CHkk4jDUiqyGTC/9l4QZoVpwCQQBRYAJBAE5d66kCX2o95ZHNl6kEieAV36Yf53vDZygn99hAHstGI36cLvUvmay59iPEsXmW/y68/Y+8TX58/Y36GOAAgOfjAB4CEOXN57ZujSD+SNJI0cBTbzO1/Vk4oqCAKZJPhC+fMcNO3JZ1AGjiKyijyDz12/o2PEwUAJAMFFgAkhXswdnntJ9ztFkn5BIIm7ji/7F7f8NGHJh3PBZARa6MeuKagvj7/f810GWmgiQ66PL1hVepWpdMRcQBAdqPAAoAkTOyW7RwYWvBLSWeTBlowGtjsCi5bXda7ijAQR8WL5owz168kvZ400GyuB8O88H3rzks/TxgAkM1DVgBAVhtTVVsu1w8kFZEGWqFR8rmDniu8Yf4M47oxiIWJS9Opnfuj2TKfLSkkEbTCDnf74Ibp199LFACQnSiwACBLlSx5oUe3nl2+7zJOp0FbejiTybtk7dk9/kEU6Nxj3OwhygTzJB9NGmgzru/ut9pPPzXtjkOEAQDZhQILALLQuKq6Uxvdf2dSMWmgHWyXdPGq8YV/Jgp0huH3XzfJA79b0vGkgbbn/y+w1LsenZreQhYAkD0CIgCA7DKmsm56xn0V5RXaUT9JS8ZU1l5DFOhQLiuumH2NB/6AKK/QbuzNkWdWFy+efS5ZAEAWHb2JAACyZWLnNqaq7vOSbhJfQKDj/Obg3oMfqp584j6iQHs6/d7P9+qS6vIzmd5JGuggGZdfu2HqjbfI5MQBAPFGgQUAWaBkyQs9uvTs9muTv5000NFc+n/53nBB5YR+3MEL7aL4/vTrzTILZTqDNNDhxzjXrw5Y7Qe5LhYAxBsFFgDEXOmqvSdaQ+MCSVzIGJ03wZM97xadv6asaB1poC2VLJwzVqZ7JZ1AGui0SZFZVaoxuHDtBekdpAEA8cQpKAAQY6XLaoZaQ+MKUV6hsyd38v6B21/GLqubRhpoK8MXXXeRTH8W5RU6mbuXNYaZ5SMWzH4DaQBAPFFgAUBMjamsfYtZuEzSINJATPR083tLK2v/hyjQWiULZ3/S3X8rqTtpIA5cOjUKbfnwRddOIA0AiB8KLACIodJHdl4gqUJSIWkgZlImfXdMZe3NRIEWtgRWUjHnVpndxlgUMdTXPVgyfNF1k4kCAOKFQQMAxMyYqrpLLAh+J6kLaSDGrqHEQrO5rGTRdd+S9FnCQIx1d/f7hi+azR0xASBGuIg7AMTI2KraWe76nviCAdnje6vKCj4us4gocDTl88rDTT3PuNOkD5AGskRGZldWT73+50QBAJ2PAgsAYmJsVd3H3P0Ojs3IvsGE/6pbfeH7H5pkjaSB1zJxaTpVsz/zUzNdRhrIMpFcH66efsOPiAIAOhff8ANADIytqv2su/+vKK+QhVx22f683T+WO+MK/JeJS9OpmgOZeZRXyNr5kunO4kVzZhEFAHT2ARkA0KnGLKu90l23kASymvnlY6rqfih3Slj8Wzod7DrQ+DOTLiIMZPMRzlzfH14xh9NfAaATUWABQCcaU7XrcpnuFCuvkAwfKK3a/S1igCTJZcWl0XdddilhIAHMpTuHL5wzgygAoHNQYAFAJyldtuudcvsxx2IkaoYn/+SYyl1pkkDJojm3mPmHSQIJErrplyMWXzedKACgM8aZAIAON3ZZ3TQ3/4OkPNJAIrl/etWEIlZj5ajiiuuuN/kckkBCHTCLzls/de4yogCAjkOBBQAdbHTVrpGB218k9SQNJJjL7LJVZQW/JorcMrxizgdc+jFJIOF2yryseuqNTxAFAHQMCiwA6EDjl23v32B5KyWdTBrIAQfdgreuLutdRRS5YcSi2RMjtyWS8kkDiefarFR4ZvXk9EuEAQDtj+uuAEAHGb9se68Gy6sQ5RVyR1fz6N6xK+reQBTJN7Ii/abI7feivEKuMA3xTOb+UQvS3QkDANofBRYAdIBRazyvwfJ+K2k4aSDHHOcZXzTyL3v6EUWCj3GLv/S6jDKLJBWSBnKJSaUNYebnSqeZVwFAO+NACwAdIKyv/aak80gCOeqUvDBz98SlniKK5Bm1ZlZeQxTOlzSQNJCj3l1SGl1HDADQviiwAKCdjamqmym3j5MEctxb9ufX3UgMydPw0vHfkTSeJJDTzK8bvui6iwgCANrxUEsEANB+xq7YWeKZYLkkro8BSC7Te1aVFc4nimQYvvC697r5L0gCkCTVZoKwdOOU9FNEAQBtjwILANrJhEdqi+oDrZZ0CmkA/7LXMuHYlWf3+itRZLcRC9MjIstUSepGGsC/bFB4YFz15K/vIwoAaFucQggA7cHd6gP9SpRXwKv19DDz24lLX+pJFNlr1IL0cZFl7hXlFfBqxZbp+gNiAIC2R4EFAO1gTFXtpyRNIwngNb1xf37+7cSQvRrDzHfFRduB1+SyS0sWXfc+kgCAtsUphADQxkqX1Qw1C9dI6koawFEmea6LV08ovIckskvxojmzzMUKE+Do9gYZf/OjF9z4JFEAQNtgBRYAtKFTK7yLKfy1KK+AYzLT90ct28kqniwyrGL2Keb6OkkAx9QzE9pdo9bMyiMKAGgbFFgA0Ib6FNTeKlMJSQBNUhha8MvyeR4SRfxNXJpOBbK7JPUiDeDYTCptePHEa0kCANoGBRYAtJHSqropkn2cJIBmOXvbyXWfIob423kgSksaSxJAM5hfW7xozjiCAIA2OKQSAQC0XsmSF3p07dV1g1xDSANotkMZC0asLeu9iSjiadiidEngmTWSOB0KaL4ndncLR2yZlD5IFADQcqzAAoA20LVXl5spr4AW6xJ69H2588VaDL186mDmJ6K8Alrq9N77oy8QAwC0DgUWALTSmY/UjZXb/5AE0CrnjKmsu5IY4qfmQObTco0iCaAVzL84fPGcoQQBAC1HgQUArTB0o+dHgX4siYtQA62e4Onr46p2nEQQ8TFiUXqwSdeRBNBq+R7px+XzyhkvAEALUWABQCv03LX7C5LzjSrQNgoynvoWMcRH5JkfSepBEkCbGLup5xms2AaAFuJaEwDQQqUP1wywVLhJUnfSANp0cDJ55fjCP5JE5yqpmP1uyeaTBNCmduVlwtPWXpDeQRQA0DyswAKAlk6y88Kvi/IKaHNu/q2JSz1FEp3n1IpPdDHZV0kCaHNFDWF0PTEAQPNRYAFAC5RW7S6Tq5wkgHbg9qb9eXUfJIjO012Fn3HpVJIA2uUgN2vYonQJOQBA81BgAUCzx50emEe3idOwgfZjmjuuqq4PQXS8Yfd+6QSXriEJoN2EgWe43h8ANBMFFgA009iq2vdJKiUJoF31yUiziaETZtap8GaTepME0K7eUrzwuguJAQCajtUDANAMp1Z4lz4FdU9KGkAaQLurV6POWHVO4Wai6BjDF88Z6pGqxZecQEf42+l7N71p/oz5GaIAgGNjcAIAzVBUsPvDorwCOkq+pfRFYug4HukrjA+BDnPapp5vvJgYAKBpWIEFAE00cal33Z9f95Skk0gD6DANHumM1WcVPk0U7at44ZxiMz0qCiygIydjTxV1C9/40KR0I2kAwNExQAGAJjrQpe7jorwCOlpeENgcYuiAibRpLmNDoGO5dGrNwcxlJAEATRirEAEAHFvJkhd6dO3Z9WlJx5MG0OEyGQuGrS3rvYko2kfx/XNGWaDVjA2BTrE1szc8beOMdD1RAMCR8S0bADRB155dPybKK6CzhKFnvkQM7ccCpUV5BXSWQWGv6L3EAADHGK8QAQAc3ag1nhceqvu7uHg70JkavDFzyupz+j5DFG2rZNHs0+X2V/HFJtCZnqheFb5J6XREFADw2hioAMAxpA7tvliUV0Bny7NU+HFiaA/2WcaEQKc7fcSZ0VRiAIAjY7ACAMfg8k+RAhALHxm1ZmcBMbSdkiXp4+W6lCSAzhe5f4YUAODIKLAA4ChKl9eeK2kkSQCx0Ds8aB8ghrbjmejjkrqRBBCHN6QmDV987RiCAIDXRoEFAEdhkVh9BcTqTWmfnLjUUwTReuPmfaqbyT9CEkB8eBR8khQA4LVRYAHAEYx5uHaIpCkkAcTKoIN5tdOIofX29exZLqkfSQCx8u6SJWnuegwAr4ECCwCOJKUPcpwE4icKgg+SQluwD5EBEDv5lml8LzEAwH9jYgYAr2HiUk+57AqSAGLIfVrpwzXcGbQVShbNPl3y8SQBxPAQJ/uQXEYSAPCfKLAA4DUcyK+dbvL+JAHEUqhU6n3E0KoJ8iyJCTIQU6eXLJkzgRgA4D9RYAHAa07uxKk1QIyZ+QfkzjimBYbOS+ebi1OUgDiLxKnSAPAqDPwA4FXGL9veXzIu3g7EmWtI6Yq6txBE84U9G98uLt4OxF352Ip0b2IAgH+jwAKAV2kMUjMkhSQBxJtFeg8ptIDbJYQAxF63gx5dSAwA8G8UWADw6rmdq5wUgKzwrqEbPZ8Ymm7o0nRPmaaSBJAF4xFzxiMA8AoUWADwCi/f2czGkQSQFYq61+3mNMLmDPz2Z94uqRtJAFlh8tDF6T7EAACHxzFEAACvkApmiDtzAdnDfQYhNJ0FIi8ge+QHnnk7MQDAyyiwAOCVkzszlusD2fSelS7iNMKmOf3ez/eSazJJAFl0jOOyBgDwLxRYAHDY2BU1J8s1hiSArFLIaYRN0yW/6/mSupIEkFXext0IAeBlFFgAcJg3hlPE6YNA9olYVdTEoLh4O5B98g5a9FZiAAAKLAD4FzdNIQUg+5g5xcwxD3AyuZ1HEEA2vn+d8QkAiAILACRJE5d6yiS+4QSy0+mlj9S+nhiOrHjhnDdLOoEkgOzj0jRSAAAKLACQJO3Lry2TVEgSQNaOaDiN8GhMrFIDstfJIyvSbyIGAAz3AACSGcvzgex+E/MePuohjlOkgWwWqZESGkDOo8ACAEnmOpcUgCx+D8snlc/zkCT+29Cl6Z6SxpIEkL3cjHEKgJxHgQUg541a83x3SSNIAshqvZ4ZUDecGF5jsHeo8UxJKZIAspe7ysrnlVPSA8jtMQ0RAMh1qYPdxkrKIwkgu0WRjSeF/2YucgGy/X0s9X6819ChJAEgl1FgAch5blZGCkASJnhOUfNaxzjnGAckYuLmjRzjAOT2cZAIAOT8pNdYnQAkgUsTSOFV0unAuP4VkIzxihivAMhtFFgAcnzG6+bO5A5IiJPKKncNIoZ/G3pmplhSAUkACRiyiNOkAeQ2CiwAOW105Z7TJPUhCSAZGtwopF850ItsDCkAiTF42L1fOoEYAOTsuIYIAOQyU8Rdy4AkDWzMi0nhlQM9LyEFIEFSKd7TAHJ4XAMATHYBJESkgMndK7iMPIAECcW4BUAOz92IAACTXQBJYZTSr+LDyABIFI5xAHIWBRaA3J7scnoNkCyuwWNX1PQmCGnYkmsHiGv8Ack6xAUUWAByFwUWgJw1ftn2XpK4YxmQLOaZvKHEIKU8pKAHksY1tHxeeUgQAHIRBRaAnJXx/DdJMpIAkjbBiyiwJEUevYkUgMTp+mS3019PDAByEQUWgNyd3IViAAgkkWkIIUjygByAJL61Q45xAHITBRaA3J3jRj6YFIAkzu7Ee/vlIMgBSOQAhgILQG6iwAKQsyJjkgswuUswJwcgkeOXyBi/AMhJFFgAcniOS4EFJBLFjeQymQayMwAJHL+Yc4wDkJMosADkssFEACRxdqcTRq15vnsuRzC0In2CpO7sDEAiD3KMXwDkJAosALnJ3SRWJwBJnd2pvmdOv79DZQaxGwCJNZgIAOQiCiwAOWnEQ7UFkrqSBJDQAY5njs/xAE5gLwAS6zil08zjAOTe8IYIAOSiMN/6kgKQXGbK6fe4uR3HXgAkdxgz9EwVEgOAXEOBBSAn5UVM7oAk8xwvcNyckh5IsFRGjGMA5BwKLAA5OrkTkzsgyXJ+BVbAMQ5IsCjI8B4HkHMosAAwuQWQwNldbr/H3SNWZwBJnsRFrLIEkIPHPiIAkJMsYuAHJPo9nuMFllkfdgIguaKASyEAyD0UWAByc+CnoBcpAMllUs+cfv0ujnFAknluH+MA5CYKLAC5efCLojxSAJI8t7MuOR2AWT57AZDgcYyL9ziA3Dv2EQGAnJzcMrkDEs3cc/09zjEOSPI4Rt6FFADkGgosALk58HNj4AckmSnH3+NMboGEz+IoqQHk4KEPAHLx4GfOwA9IMFZgMbkFEs1ZSQ4gB+dwRAAgJ8d9TO6AhM/tcn6VJcc4INFYSQ4g91BgAcjNYZ8sRQpAgnGBY25UAST6EEdJDSD3UGAByNWhXwMZAAAAAEB2oMACkJPc/BApAAAAAEB2oMACkJs8qCcEAAAAAMgOFFgAcpK5U2ABAAAAQJagwAKQk6KAAgsAAAAAsgUFFoCcZJFxDSwAAAAAyBIUWABykgVWRwoAAAAAkB0osADkJlcNIQAAAABAdqDAApCb3CmwAAAAACBLUGAByEmZwHeQAgAAAABkBwosADnJI1ZgAQAAAEC2oMACkJu6HmQFFgAAAABkCQosADlp7ej++yXtIQkAAAAAiD8KLAA5y6UtpAAAAAAA8UeBBSBnmdkWUgAAAACA+KPAApC7PNpCCAAAAAAQfxRYAHLZFiIAAAAAgPijwAKQs9wpsAAAAAAgG1BgAcjdA2DKnyIFAAAAAMiC+RsRAMhVe3sVbZJUTxIAAAAAEG8UWABy1sahVi/pbyQBAAAAAPFGgQUg120gAgAAAACINwosADnNnAILAAAAAOKOAgtATnOzalIAAAAAgHijwAKQ0yxsXE8KAAAAABBvFFgActrKM/s+K+kZkgAAAACA+KLAApDzTKoiBQAAAACILwosADnPZZWkAAAAAADxRYEFIOdZ5KzAAgAAAIAYo8ACkPO6NRasl7SXJAAAAAAgniiwAOS8hyZZo7lWkAQAAAAAxBMFFgBIctMDpAAAAAAA8USBBQCSQosWkQIAAAAAxBMFFgBIWl7WZ4OkZ0gCAAAAAOKHAgsA/sn0R0IAAAAAgPihwAKAw8y1mBQAAAAAIH4osADgsMYu0QOS6kkCAAAAAOKFAgsADls7uk+d5NyNEAAAAABihgILAF7JNI8QAAAAACBeKLAA4BUsiP4g6SBJAAAAAEB8UGABwCusPLPvbpdxN0IAAAAAiBEKLAB4Nec0QgAAAACIEwosAHiVfNXfJ2kvSQAAAABAPFBgAcCrVE7ot0diFRYAAAAAxAUFFgC8BnP7ISkAAAAAQDxQYAHAa1g5oWCFpPUkAQAAAACdjwILAI7AZT8hBQAAAADofBRYAHAEDfXRLyQdIAkAAAAA6FwUWABwBI9OKqqV6dckAQAAAACdiwILAI4iioJbJUUkAQAAAACdhwILAI5izYTeT5hpCUkAAAAAQOehwAKAY4ikb5ACAAAAAHQeCiwAOIbVZYV/krSOJAAAAACgc1BgAUBTmH2dEAAAAACgc1BgAUATDHq29z2SHicJAAAAAOh4FFgA0ATzZ1jGXWmSAAAAAICOR4EFAE20enzBfEnrSQIAAAAAOhYFFgA0lZnLPE0QAAAAANCxKLAAoBlWjSu8V9IakgAAAACAjkOBBQDNYeZREFwtyQkDAAAAADoGBRYANNOacb0rXfodSQAAAABAx6DAAoAWsEZ9TtJBkgAAAACA9keBBQAtsOqcws1u+hZJAAAAAED7o8ACgBbqcaj+Jpc9TxIAAAAA0L4osACghR6adPxeM32WJAAAAACgfVFgAUArrCor+I3L7iMJAAAAAGg/FFgA0EqRZz4haQ9JAAAAAED7oMACgFZaO6HPNpfNJgkAAAAAaB8UWADQBlaX9f5fc68kCQAAAABoexRYANAWzKLGIPygpP2EAQAAAABtiwILANrI2rLem1z2OZIAAAAAgLZFgQUAbWj1+ILvcldCAAAAAGhbFFgA0MYaM8EHJf8HSQAAAABA26DAAoA2tu7sXttNdoUkJw0AAAAAaD0KLABoByvHF/5R0q0kAQAAAACtR4EFAO1kVVnBFyUtIQkAAAAAaB0KLABoL2ZRaDZTps2EAQAAAAAtR4EFAO1oeVnBzkj+LkkHSAMAAAAAWoYCCwDa2ZqyonVyXUUSAAAAANAyFFgA0AFWTSj8kUnfIAkAAAAAaD4KLADoICvLCj4n6TckAQAAAADNQ4EFAB3FzEPbc6XkVYQBAAAAAE1HgQUAHWh52YADmfrwQklPkgYAAAAANA0FFgB0sLWTeu9QFJwv6UXSAAAAAIBjo8ACgE6w6qzefwstepukGtIAAAAAgKOjwAKATrK8rM+GyPxtkmpJAwAAAACOjAILADrRmrKidW7BdLn2kQYAAAAAvDYKLADoZKvLelcpsHdJOkgaAAAAAPDfKLAAIAZWlRUscfMpkvaQBgAAAAD8JwosAIiJ1WVFD7vsrZJ2kgYAAAAA/BsFFgDEyOrxBasj83MlbScNAAAAAHgZBRYAxMyasqJ1lgknuux50gAAAAAACiwAiKWVZ/f6a77Xl0paRxoAAAAAch0FFgDEVOWEfs93r68/W1IFaQAAAADIZRRYABBjD006fm/3+oILJX2PNAAAAADkKgosAIi5hyZZ46rxhR8115ckRSQCAAAAINdQYAFAllg5ofCrkdv5knaSBgAAAIBcQoEFAFlkzYSCRRmPRkpaTRoAAAAAcgUFFgBkmbUT+mzrXl9wtqSfkAYAAACAXECBBQBZ6KFJdnDV+MIrXfqopAMkAgAAACDJKLAAIIutHl/4vSAIR0laRxoAAAAAkooCCwCy3IpxvR7PdCkYK/lXxF0KAQAAACQQBRYAJMDa0dawanxR2gNNlvQciQAAAABIEgosAEiQ1eMKH8x0iYaa/NtiNRYAAACAhKDAAoCEWTu6T93K8UWfNI/OkfQ4iQAAAADIdhRYAJBQKyf0Wda9vuDNh6+NVU8iAAAAALIVBRYAJNhDk+zgqvFFaffMm116gEQAAAAAZCMKLADIAasn9N24enzheR7obZJtJBEAAAAA2YQCCwByyMsXee890syvllRHIgAAAACyAQUWAOSYtaOtYWVZ0e2Z+uBUd31d0n5SAQAAABBnFFgAkKPWTuq9Y/WEws81ZMLBkr4m6QCpAAAAAIgjCiwAyHHrzu61fdX4wi9YmDlN0vckHSIVAAAAAHFCgQUAkCStPLPvs6vGF340pXCg5F+RVEMqAAAAAOKAAgsA8B+qxvd6adX4ovTOuoKTZP4+SU+QCgAAAIDORIEFAHhNT02zQ6vKin4x6LmCoe7+LklLJEUkAwAAAKCjpYgAAHA082dYRtLvJP1uXNWOkzKeukzSRyQNJh0AAAAAHYEVWACAJltedtxzq8YXfm3QcwWnSna+pPmS9pMMAAAAgPbECiwAQLMdXpW1UNLCcVXPdGvM9DjXAiuX2ztl6kFCAAAAANoSBRYAoFWWlw04IGmBpAXjl23/WL3nv90Cf7tcb5NUREIAAAAAWosCCwDQZion9Nsj6S5Jd5XP83Db6+pGeKBzzf0CNxsnTl0HAAAA0AIUWACAdnH4NMO1h/98raxyz/EZZc6O3Mab+XhJI/kcAgAAANAUTBwAAB2ianyvlyT99vAflSx5oUe3Hl3GREEwwdzfLKlE0hBJRloAAAAAXokCCwDQKaonn7hP0tLDfyRJE5e+1PNAXpdhkXmxmZe42+n2cqk1UFI+qQEAAAC5iQILABAbD006fq+kFYf//Jt7UPqXnSdZaIMV2BD3YKBcfc2ivmZ2nFx9XeorqY+k3pJC0gQAAACSgwILABB/ZtFq6Rm9/OeRpvxI+TwP//G6ut6SlAkbuzdmUl0IMncEeZl6UgAAAEgOCiwAQCIdvoj8rsP/dxeJAAAAANmL25kDAAAAAAAg1iiwAAAAAAAAEGsUWAAAAAAAAIg1CiwAAAAAAADEGgUWAAAAAAAAYo0CCwAAAAAAALFGgQUAAAAAAIBYo8ACAAAAAABArFFgAQAAAAAAINYosAAAAAAAABBrFFgAAAAAAACINQosAAAAAAAAxBoFFgAAAAAAAGKNAgsAAAAAAACxRoEFAAAAAACAWKPAAgAAAAAAQKxRYAEAAAAAACDWKLAAAAAAAAAQaxRYAAAAAAAAiDUKLAAAAAAAAMQaBRYAAAAAAABijQILAAAAAAAAsUaBBQAAAAAAgFijwAIAAAAAAECsUWABAAAAAAAg1iiwAAAAAAAAEGsUWAAAAAAAAIg1CiwAAAAAAADEGgUWAAAAAAAAYo0CCwAAAAAAALFGgQUAAAAAAIBYo8ACAAAAAABArFFgAQAAAAAAINYosAAAAAAAABBrFFgAAAAAAACINQosAAAAAAAAxBoFFgAAAAAAAGKNAgsAAAAAAACxRoEFAAAAAACAWKPAAgAAAAAAQKxRYAEAAAAAACDWKLAAAAAAAAAQaxRYAAAAAAAAiDUKLAAAAAAAAMQaBRYAAAAAAABijQILAAAAAAAAsUaBBQAAAAAAgFijwAIAAAAAAECsUWABAAAAAAAg1iiwAAAAAAAAEGsUWAAAAAAAAIg1CiwAAAAAAADEGgUWAAAAAAAAYo0CCwAAAAAAALFGgQUAAAAAAIBYo8ACAAAAAABArFFgAQAAAAAAINYosAAAAAAAABBrFFgAAAAAAACINQosAAAAAAAAxBoFFgAAAAAAAGItRQTJVT7Pw+dO2ts3CtTXMw19ZdZXpr6RBz1N3k2STN7TZXmS5FIRqQFILLf9Zn5IksxV56ZIrsgC1cltdxT4DkW+Q41RTdTjUM3a0f33ExoAAEDbGluR7r1Pjf0Ct+M88L5BFPSVvEdkXiBJgayLZN0PD+B6SLbv5X/0hsh8rySZ2QFz7Y3caoIgU5PJWE2Ql6o5vW5jzfwZ8zOknEwUWFls6EbP775r5xssyBuiyAfLNMTMB0euwSYN2Kq6fpKkSJIdXmznksn/PZ+T/eufjUgBJJm94thn/z7wuR8+GkaH/0UqVHiou8ZU1h6Q9KxLWwJpi7u2KLAtLttioZ5YNbZ3DaECAAD8p5ELrx2UMTvFZIMj2WCzaLA8GCL5YEknHFAmL5BJJpmb/PAYzQ7PSP0V/6tX/rP9++/IX/63Zi73QEEgKZPREz3PUEnFnO0ybZNri2RbXL4lcN8SWOrp4Pjnn1w7+s4GtlJ2osDKEmNX1JycaUwVB+YlcpW4qdhq686QhXny6F/tkztFFAC0kW6S3mDSG/zwoEnuL38J0CiVVtY9b/INMlWb24ZI0Yb9hYV/3TjU6okOAAAkfo5ake59SJlidxW7abikYknDMlKBdLhgkh/+5tA78qn1k6ufpFH/XLLhZsooo8xLJzSUVMx+3KQNkbRBCqqDTKZ6/QVzn2OLxh8FVgyVz/NwS/+dZwRBON7dJ0h2lmc0OLBXNs8AgM5k8v6S+ss12eUymXrU1jWOqapdb+6VbrasoTF8aN3ZvbaTFgAAyHYj/5ju35iJxlvkExRo/AHPjJQUZNnkNE+yEpdK/rney8NAxRVz/mHSWpcvC8wr9/nu1U9Nu+MQWz1u4290PvdgTGXdm91siszfaq4xkroTDAAk4oN2k6RHIvfFQSp6cOWZfXeTCtpbScWczZIGkwSQ0OmD7I4N066/iiTQnoYtuXaAZcIpJj9P0gRJJ+bQy98n0yq5HlQQLq6enF73H9fiQWeNq9EZxqzc3VeZ6C3uOtek6ZJOIhUASLyMTI/K/X6LbMHKCQX/T2YMhtDmKLCAZKPAQnuYuDSd2nWw4Ux5eL6bnyvXm+kM/mW7SQ9FpgejKLxv4/T0C0TS8dgZO9C4qro+GUXny1Uu2RRxCicA5LpnTf47uc9fOb6okjILbYUCC0g2Ciy0lfJ55eGm3qdPMtflcnu7Dl+/CkcVSVou9/kZpe6hzOo4FFjtbMIjtUX1oV9wuLSaLCmPVAAAr2Gbyf9AmYW2QIEFJBsFFlqjfF55+Ldep43zKCiX6RJJ/UilxTKSVsh9vlKp31RPTr9EJO2HAqtdPlE8KF1R9xaLNEvShZLyCQUA0AxPSPppQyb8CReBR0tQYAEJn25QYKEFRiyY/QYPgytd/n5Jx5NIm6s36V6X/fL0vY9XzJ8xP0MkbYsCqw2N+su+14Vhw+WSZkl6PYkAAFrpkKT7PNCdq88s+BOrstBUFFhAslFgoalOrfhEl25W9HaLfJZMb6UD6DDPmuyuwDPfWzd97lbiaBvsvG1g9PLd40OPPu2uCyWFJAIAaAdPyu3bB/cd+Gn15BP3EQeOhgILSDYKLBz7cyB9sinzCZc+JKmIRDpNo1z3RR5947Hz51YRR+tQYLX4U8OD0mW7pltgX5CsjEAAAB1kt8l/pjC6deWZfZ8lDrz2xIUCC0j0VIQCC0cwdPGc4alIH3XpckldSSRGTGvl+nafbuGvH5qUbiSQlkSIZhlX9Uy3Ru/9ITO/Wq4hJAIA6CSHXPp1GIS3rhjX63HiwCtRYAHJRoGF/zruL5w9RWaflfRW0oi9v7t0255u4Y+2TEofJI6mo8BqoqEbPb9nXd0VkduXTd6fRAAAMRFJ+j9FwexVZ/X+G3FAosACko4CC/80fNG1EyIPbjBpImlknZdc/s093VK3U2Q1DQXWMYxa43lhfe0lcvuyuDA7ACC+Ikn/F5p9aXlZwVPEkdsosIBko8DCsPuvLQuC4Hqx4ioJnpH7N/Zb3fefmnbHIeI4soAIjvSp4Fa6rO7SsL7uCbn9XJRXAID4f6aXZ9w3jq2s/c7Iv+zpRyQAACTL0MVzhhdXzFkSBEGlKK+SYoDMbuuuwo0li+ZcLGeh0dEGu3iVMctqR4+trH3EzH/Fda4AAFkm36WP5oWZp8dU7kqfWuFdiAQAgOx2xoNf7FuycM7tYaS1Jp1HIol0ily/KV40Z2XxojnjiOO/UWC9wvhl2/uXVtb+QKaVbjaeRAAAWaynZF/uU1C3YUxVbTlxAACQfUatmZVXsnD2J/PrU3+X6SpJIakkm0ml5qocXjFn3tAF6YEk8m8UWHr5Oldjl9V+sUF5fzNpFrkAABLkDXLNG1NZu3hcVd2pxAEAQHYYXjH7vIaXTtgos9skFZBITjGXysMws7Fk0ezPTVyaThEJRY1KK3eNCOvrlrvpJpl6sEsAABJqcsa9ekzlrvTQjZ5PHAAAxFPx/V8oGl4x5wcuWyzpDSSS03rK7ZadBxrXjlg0pzTXw8jZAmtc1TPdxlTW3myyNXKN4n0BAMgB3ST7co9ddatLK+tKiQMAgHgpXnRduQV5m/zlM4O4mDcOs5LIVVWycM7tQ5eme+ZqCjlZYJUurz03o14bJV0jziEGAOTcGEglJq8aU1n7tYlLvSuBAADQuUoq0icXL5xzv7nPk3Q8ieA1pGS6KjyQeXT4/ddNysUAcqrAOrXCu4yprL3ZIi3h7oIAgJwfBEmf39+ldm1p5a4RxAEAQOcYvmj2O6XMo2aaThpoglM88D+VLJxz+6kVn8ipu03nTIF15vI9b+xTULdcL6+64iLtAABIktubTLZ8TGXtNXLn8xEAgA4yakG6e8nCObe72/9J6ksiaAaT6aruKlgzbFG6JFdedPIHqu42tqp2VhRl1kgayX4OAMB/6Srp5rGVdUvGL9venzgAAGhfIxbNKW0IM4/KdBVpoOVsWOCZlSULZ39SnvxrpiW6wBqxdFfhmOW773XXDyR1Z+cGAODI3HRug+U9Oqay9i2kAQBAe3zYykoq5nw2clWJOwyibXSV2W3DF8353diKdO8kv9DEFlijqnafkZ9vVXK/gP0ZAIAm6yfpj2Mqd6Xlzt2PAABoI0OXpnsWL55zt6Rb9fK1KIE249I7DiizpuT+9LCkvsZEFlhjK+suDqNojaQ3shsDANBsoWRfLq3a/YdRa3YWEAcAAK0zYsHsN4QHGpebawZpoB29QUFm+fCK696TxBeXqAJr4lJPlS6r+5bLfyNTD/ZdAABazuRvDw8Fy0cv2306aQAA0DLFC6+7MBPaGsmGkQY6QE+X/6ak4rqvT1yaTtRKv8QUWBOXvtRzf37tH8z8avZXAADazBsDi1aXVtVNIQoAAJqnZOHsT5r570zqTRroQCb5Z2oOZBYm6bpYiSiwxi/b3n9/fv5fJJvOfgoAQJvrZe4LxlbVziIKAACOrXxeeTh80XX/K7PblPCbpyG+TDrvgDLLhi25dkASXk/Wv5HGVe0sbrC8FZJGsnsCANBuUu76wdjKXbdzcXcAAI5s6NJ0zyd6nvEHd/8YaSAGioNMsGJ4xZys70yyusAavaxuasaDSkkD2CcBAGh/LrtqTOXun41a43mkAQDAfxr5x3T/8EDjI5LOJw3ESP9Iemh4xezzsvlFZG2BVbqsdkZgfq+kXuyLAAB0IPPLw0N1fxhX9Uw3wgAA4GUjF147KGrMPCzZCNJA7IZvUm+XLSipmP3ubH0NWVlgjamqm2mmuyTx7S8AAJ1jWsZ7LRq/bDtfJAEAcl7JotmnZyx4xKVTSQMxli/Z3cULr3t/Nj75rCuwxlTVfljuv5SUYt8DAKBTndNgeX8aV1XXhygAALlqZEX6TXL7s7i0DbJDaOY/Llk056pse+JZVWCNrar9rFzfE3dxAAAgLkob3R8YtXT3cUQBAMg1wxZeOzqjzCOS+pMGsojJddvwitmfyaYnnTVFUGll3VXuulUSdz4CACBWIyC9OcyLWIkFAMgpwxalSwILlkji8w9ZOYRz2ddLFs3+XLY84awosMZW7fqAyW9j/wIAIK5DIJVk5BVcEwsAkAuGL0yfFnjmj6K8QrZz+9rwhXM+kg1PNfYF1tjKuve62w/FyisAAGI+ANLYRqUWlSx5oQdhAACSaljF7FPcMkslnUAaSABz03eHV8z5QNyfaKwLrDFVuy5y+U/ENa8AAMgKbja+S8+uvz+1wruQBgAgaUoq0icHbg+Ia14hWcylO4cvnDMjzk8ytsVQ6fLac+V2t7jbIAAA2TUCkt7Wt6Du53LnCygAQGKc8eAX+0qZP8k0hDSQQKGbfllSMfstcX2CsRxYjv3LnjdZpPmS8tmHAADIPi69Z0xV3U0kAQBIgqHz0vn5Dan5kk4jDSRYvst+X7xwTnEcn1zsCqxRf9n3Og8zFZIK2XcAAMhq15RW1n2UGAAAWc1lQY/Mj+WaRBhIOpN6m+m+oQvTJ8btucWqwBq15vnuYarh95IGsdsAAJCEQZB/u/SRnReQBAAgW5Usvm6umS4jCeSQwWGQub9kyWdjdWOe+BRY7kFY3+NuucayrwAAkBihBcFdYx7ZNZwoAADZpmTRdVfK/YskgZzjGqWo211Kp2PTG8XmiYypqrtB7nxDCwBA8vRSYPeOWrr7OKIAAGSLkoprz5T7d0gCOct1YfGYzJfj8nRiUWCduWzX2yXRagMAkFyDUnnRb8rneUgUAIC4G3bvl06Qgt9K6kIayGUmzRm+aPY74/BcOr3AGrui7g2R2S9ezgUAACSVm87ddlJtmiQAAHE2cWk6FeSF90g6iTQAmbv9rHhJ+ozOfiJB5x4YXurpGf1eUgH7BAAAyeeya0uX7XonSQAA4mrngcytks4hCeBfelkmM6+zL+reqQXWvvz8H0o+lH0BAICcYWb2k9JHal9PFACAuBm+cM4MSVeTBPBfir2x2/c78wl0WoFVWrnrCpMuZh8AACDnFFigu0et8TyiAADERUlF+mQ3fY8kgNdmpsuKK667tLMev1MKrDEP1w4x2e1sfgAAclZpeKj2WmIAAMRCOh3IMr+Q1IcwgCMz+XdGLEoP7ozH7vACa+JSTymluyT1ZtMDAJDTQ6A5pVW7uMYIAKDTlZQ2XiPXJJIAjqkg8syvyueVd/idpTu8wNqfXztb0ji2OQAAOS8w2U/HrqjhSy0AQKcpWZx+s8zSJAE02fi/9Tz9Sx0+cOzIBxtdVTdGMk4XAAAAL3MNiTLhbQQBAOgMg5emuyqTuUtSPmkAzRnC2XXDFl47uiMfs8MKrIlLPRW4f19Sik0NAAD+yaT3j62sPY8kAAAdrffB6DqZziAJoNlSgdmPR62Z1WE35emwAmtfl91flDSSbQwAAF7NpR9MXPpST5IAAHSUYYvSJXL/LEkALWUlDS8e32HvoQ4psMY8svs0c/8SGxcAABzB4H15+V8mBgBARyifVx4GHv1YUh5pAK1g9uVh989+Y0c8VPsXWO6BAv+RpK5sWQAAcOTxjz41ZlntaJIAALS3v/U8/WrJ+cwBWq9LENj35LL2fqB2L7DGLq/7oORnsU0BAMAxhDLdWT7PQ6IAALSXkQuvHeSy60kCaDPnDF805/3t/SDtWmCNWLqr0F1z2ZYAAKCp84ptJ9ddSQwAgPbSGAS3SOpOEkDbcemrox64pqA9H6NdC6z8LsF1ko5jUwIAgCYPgFw3jli6q5AkAABtbdj915aZq5wkgDZ3fEN9l2vb8wHarcAaV1V3qtw/yjYEAADN1K9Lvs0mBgBAm0qnAwuC26T2v1YPkJPMPzl8Yfq09vr17VZgZTy6TVIXtiAAAGgulz4x5pHdp5EEAKCtDB+TucKkUpIA2k2+B5lb2uuXt0uBNXZZ7dskm862AwAALR8A+a3EAABoC0OXpnu6uD4z0O5cF5ZUzH5Le/zq9lmBZbqRrQYAAFo3nPC3j11WdyZJAABaKzyQuUrSiSQBdITga/K2P1W3zQussZW7LnRpDBsMAAC0VmTObc4BAK1y+M5onyEJoKP46BFLrpvW1r+1bQssd3NZmo0FAADagklvK63adQ5JAABaqqG+y6ck9SEJoONEUXR9W6/CatMCa8zyundLGsGmAgAAbcU84NIEAIAWGfH7dKHMP0kSQIeP4N48fPF172jL39h2BZZ74K45bCQAANC2fEJpVe1byQEA0FxR1+jzkgpJAuiEEZz7DUqn26x3arNfNLaq7p0mFbOJAABAWzPXtaQAAGjWHLUi3VvuHyUJoNMMLR7T+Pa2+mVtVmC59Gm2DQAAaCeTRlfVcZMYAECT7VfmI5IKSALoPKagzW6g0CYF1ujlu8dLGsemAQAA7SVwv5oUAABNMWrNrDyTPk4SQGfzCSUV157ZJmPBNvklmYhbkgIAgPZWXla5axAxAACOpXH7Ce+RNIAkgM5nCtrkjL1WF1hjHq4dItPb2SQAAKCdpRoVXEUMAIBjcecSN0Bs3o/SO4dVzD6ltb+n9SuwUv4pSSGbBAAAdMAQ6INjV9T0JgcAwJGMWDR7oqSRJAHERhi4tfpLyFYVWOOqnukm2WVsCwAA0EF6KwovJgYAwJFEro+QAhAzpstHLUh3b82vaFWBlYl6zpBUxJYAAAAdxV0fIgUAwGs548Ev9pXsHSQBxE5hYyrzztb8glYVWCYGkAAAoMONHl21i1NDAAD/pcuh1PskdSEJIH7c9cHW/HyLC6xRVbvPcLMyNgEAAOhoFulKUgAAvFpkfD4AMXbOsPtnv7GlP9ziAiuUz5Jk5A8AADqamV02as3z3UkCAPBPwxddO8GkN5EEEF+BBe9v8c+25IcmLvWU3Ll4OwAA6CwFYX2PdxADAOCfPLIrSAGIOfP3ls8rD1vyoy0qsA7k171FUj+SBwAAnTdT0QxCAABI0qg1s/JkdhFJALF34hM9Tz+nJT/YogLLjQEjAADobD5l1JqdBeQAAKjffvzbJPUhCSALRnAetKhTanaBNWqN58n1DiIHAACdrEtYbxcSAwDAWJULZM/71fxdE5emU839uWYXWHZw97mS+hI5AADodK5yQgCA3DZ0XjpfsreTBJA1jtuxP5rU3B9qdoEVcvogAACIDZs8rqqOU0YAIIeFPaPJkopIAsgeQeDN7paaV2C5By6fRtQAACAm8jLSZGIAgBzmEaeTA1n3vtWFSqeb1Uk16y+fuWx3qaTjSRoAAMRGpCmEAAA5zOw8QgCyTr/i0ZmRzfmBZhVYURBNJWMAABCviYtPlXtAEACQe4YtSpdIGkASQBYO4QJv1peQzRvsmfENJwAAiJt+Y5fVjSQGAMjBCbBnmKMCWStonwJrXFVdH7lGEzAAAIgbDziNEABykRnHfyCLR3Djhi5ON/lmPE0usA5fIDUkYAAAEMMpDBMYAMgxp9/7+V5yjScJIGuFgUdvbepfbnKBZe6TyBYAAMSTjx215vnu5AAAuSM/r+sESfkkAWQvczW5a2pygeXmNNsAACCu8vIOdBtDDACQOwL3MlIAsl3U5K6pSQXWhEdqi+R2BsECAIDYDn8C48s2AMghHnD6IJD9bNioB64paMrfbFKBVR9YmZp7x0IAAICOHP4YExkAyBUTl6ZTcpWSBJD1gob6vHFN+otN+30szQQAAPHmrvHl85wbzgBADtixv2GEpJ4kAWQ/U9NW0Td1VRXfaAIAgLjr/ezJu95EDACQfEEQsMgCSIimng587ALL3SSNJFIAABB3kdtoUgCAnJjycrwHEvN21mi57Fh/7ZgFVumyuiGSepMoAACI/fjHgmJSAIDks8hKSAFIjF4jFqcHHesvHbPAstA5MAAAgOzgjFsAIOkmLk2n3HQGSQDJEXl0zC8hj11gRQEDQQAAkC0YtwBAwu3cpzMkdSEJIEmiY47hjllguTlL8QEAQLboN3bF3hOIAQCSyy3DlxVA8rR+BZb4JhMAAGSRyBv58g0AcnyiCyC7uKx1BdaoNZ4n6fVECQAAsoVF9kZSAIAkH+h1OiEASXtb6w3l88rDo/2doxZYwYG6AZJSRAkAALLIYCIAgCRPdH0IKQCJk/fXbkNPOtpfOGqBZQEDQAAAkGUTG3PGLwCQ7CM9x3kggYIwc9RyOmAACAAAksRdfDMPAAk16oFrCiQVkgSQPGZHL6ePfhH3iBVYAAAg63D9TgBIqMaGfI7xQFJFavkKLDcKLAAAkHUKRizdVUgMAJBAxumDQHLf39FR39/BMX56IAkCAIBs06WbM4YBgARy+QBSAJL6/rZBR/vvRy+wzPsRIQAAyDZRFDCGAYAEskgc34Gkvr/lxx3tvx+9wHI7jggBAEDWidSXEAAgedzEHBVILGthgeVukooIEAAAZN/4hwILAJJ5eOf4DiRYX7nsSP/xiAXWiIdqCyTlkR8AAMi+GQ6ryAEgiZwCC0iyvLGL0r2O9B+PWGB16xIw8AMAANk6w2GCAwDJPMAzTwUS7EDYeMQx3BELrAapD9EBAIBsFCiiwAKARDIucwMkWNTozS+wUpmoO9EBAICsHPzIupECACQS81QgwYIwOOIY7ogFlgeWT3QAACAbmTGOAYCE6kIEQHK5/Ijv8SMWWFEUcWAAAABZOvpxxjEAkEx8QQEkegx35Pf4EQusIAg4MAAAgOwc+xgTHABI4MTWJOURBJBcgYLmr8Bylt4DAIAsZc4pJgCQNEPnp/MkGUkACdaSFViKIgosAACQpWMfCiwASJx+rK4Fkj+G85aswKLZBgAA2cmO9iVdbojYC4BEH+Ny8j2eV6sUWx9INrejXOrqyD8VNBAdAADI0tndodwe/amenQBI8iHOD5ECgGQe3+yIx7cjFlgWOAMfAACQnTzHCyxjHAckWXSUCR4AZPkB7ohjmCMXWM7ABwAAZCfL+RVIAeM4IMmYqwFI6hhOUfNXYEUW0OoDAIDsnNtZbp9eY8YphEDCZ3i8xwHk3PGNFVgAACB53HJ6HONcHwdI9vzOeY8DSKaoJdfAcgsOEh0AAMhGzkXcGccBCWZcAwtAYo9vLTiFMDTbRXQAACArudfkeAKM44Bk20kEAJLIPO+Ix7cjFliHGrSD6AAAQFYKlNsFljOOAxL9FjfnPQ4gkRrDI49hjlhgnfpCz52SIuIDAADZN7sLcrrAMlMNOwGQXJnAeI8DSOThbeMK1R7pPx6xwJo/wzLSkX8QAAAgrsxyewVSxCmUQKKlGiJWYAFIol1Kp4+4kCo4xg8z+AEAANkop8cwgQVMboEE635gP9fAApBz47djFVgMfgAAQNZxz+0LHEdBxJeQQHLtXz7jWweIAUDSmFnLCyyXnidCAACQbaJM6tlcfv3eqOfYC4DE4v0NIKEDGD/q8e3oK7Bcm0kQAABkmYNrz+r+Qi4H0Gv/vi2SnF0BSOD8TszRACTWUY9vRy2wTLaV/AAAQDYxaYvMcrq8OXx60UvsDUACuVFgAUjm4U2+5Wj/PTjGCJCDIwAAyK7Bj2sLKUgSOQBJFATOextAQgdxrViB5d7IwREAAGQXvoD7J3IAEjnBYwUWgIQKWlFgHdrXsIUEAQBAlmH8IlaiAcl9b7MCC0AyD2+7u6aOehmroxZY1ZNP3CfucgEAALKJ+ZOEIAUmcgASKBOGvLcBJNEzWyalDx51bHPMX+HaQI4AACBrJndu1aQgZTwiByB5nt04Jb2TGAAk0DHHLccusEwMfgAAQHZw7VtbVsD1YST12rd/o6QMSQCJwuICAMlkdszj2zELLJdxkAQAANkh0GMyiwhCWj7jWwckPUUSQILmdxRYAJKr9QVWEGZYgQUAALJjcuesHG/uYBBANh3keE8DSKhM0PoCa2+vok2S6kkTAADEHSvHXz3XZbILJGp+p5CSHkAS1Wf262/H+kvHLLA2DrV6SX8lTwAAEHeuaD0pvDIPW0cKQGIc8j3aRAwAEmjjxhnpYy6cCprym0yqIk8AABBzDVGXA2uI4d/q8xuqJDlJAElgq5sywQOArDu6SZVN+XtNKrAiNwosAAAQd2vWju6/nxj+bdO5X62Rjr0kH0D8ufsyUgCQyOObtWGBFYZRJZECAIB4T+7EeOW1chG5AEkQyHkvA0ikKIjarsBaMa5oi6RniRUAAMSVBUzujjDYIxcg+3kqSq0gBgAJtO2xyXOfaeKYpsmWkysAAIjt5M5TXPLgtYIxij0g69/H0uNrL0jvIAkACdTk06ObXmC5/YVcAQBAHJn0RNX4Xi+RxH+rnnLj3yS9SBJAFnN7hBAAJPQA1/YFlqW0hGABAEAcRW6LSeFIgzi5zP9IEED2CgLmYgCSyaNUk49vTS6wVp5Z8KSkvxMvAACIGwtEgXXUwSEFH5DFGlKpQ38mBgAJ9MSG89NPN/UvN+caWHJ3Bj8AACBuDoTazaUOjiIKw8WSMiQBZB+XKte+7Wt1JAEggRY15y83q8AyCxaRLwAAiBMzPbS8bMABkjiyjVPSOyWtIQkgG7GIAEBSx3DNWyHerAIr02XfUkkHiRkAAMQF179q6hyYnICsPMYFvHcBJNKB7nv2NGsFfbMKrLWj+++XxPnXAAAgRrM7v58Qjs3dF5ACkHW2bZx8QzUxAEigPy2f8a1mraAPmvsILp9PzgAAICbWrD6r8GliOLYN59+w1qSnSALIJjZfJicHAIk7upnuae7PNLvAaqjXHyQdIm4AANDpXPMIoRlxmfFFJJBNE7wgwzEOQBIdSqXqm70yvNkF1qOTimolf4C8AQBAJ/MgZGV4swZ+UcBkGMiaI5w2r588dzVBAEgakxa15O6qQcsejMEPAADodCtXjCvaQgxN9+j09KNybSIJIAsmeGbzOH0QQBK5WYs6pRYVWCmv/4MkblcNAAA6cfTjfKHWkkmx9FtSALLgEBewaABAIh3s5sHClvxgiwqsygn99sjEnWwAAEBnacxT4z3E0JJJsf9KYlUHEHOPV09J/z9iAJC8gYj/fuW09O6W/GjQ0se0SD8ieQAA0DlsYeWEfs+TQ/NVT73xCbmWkQQQ4yOcM9cCkNQDXMuPby0usFaOL3hQ0t9JHwAAdPzgx5jctWrsaD8kBSC26gNr/CUxAEigp6tXpR5q6Q+3uMCSmUv6KfkDAIAO9tygZ3stIoaW675vz28l7SIJII789+umfXU7OQBI3uHNf6R0Omrpjweteuy81I8lNbIVAABARzH5T+fPsAxJtNzyGd86YNJdJAHEcH4XcPoggERqDPNSP2/NL2hVgbV6TM8XJFvIdgAAAB0k8kb7CTG0XsZCTiME4ufpDStSfyYGAElj0v3rzku36vqlQaufhEe3sykAAECHDH5Mf1h1TuFmkmi9x6amq2VaShJAjLh/uzWn1wBAXEXSba39Ha0usFZOKFoqaTWbAwAAtP/gJ/gGKbSdwIw8gfjYleme+jExAEgeW7Nh2g0Pt3rc0hZPxd1YhQUAANp36COtWl3Wu4ok2s6jk6+vcOmvJAHE4SBn3984Kb2XIAAkcAz39bb4PW1SYPVo6H2PpG1sFgAA0F4i96+RQpuPKN1c3yIIoNM1yIPvEgOABNpS1C34v7b4RW1SYD00yRrNdAfbBQAAtJOnBz9feC8xtL39VvtLSS+QBNB5XP6r6mnpZ0kCQPIOcH7bQ5PSjW3xq4I2e1JB5k5JO9k6AACgzZlumT/DMgTR9p6adschuX+bJIBOEwUB16MDkEg72vLafm1WYK08s+9uuTjwAgCAtrZ1X0HBT4mhHaUOflvSSwQBdIq710+5YSMxAEgc81va8tp+QVs+t4P7Dt7O4AcAALTp2Ef+lY1DrZ4k2k/15K/vk3QrSQAdLuNheAMxAEig7Zmuqe+15S9s0wKrevKJ+8wY/AAAgDbzVLf6wl8SQ/vb3S38X0nPkQTQccz1yw2T05tIAkDiuM9t6zurBm39HLsdKmDwAwAA2mjsY+mHJlkjSbS/LZPSB2W6hSSADtMQOauvACRw/Cb9o8e+fXe29e9t8wLroUl2UG43s8kAAECrmP918PO97yaIjrPfa38gaRtJAB1wiJN+uuH89NMkASB5xze/YfmMbx1o698btMeT7d7Q+/uScSFCAADQYq7gM9x5sGM9Ne2OQzL7AkkA7W5PKsikiQFAAj2ed/xLP2qPX9wuBdZDk6zRA7+a7QYAAFrG719dVrCYHDpe9ZTr75brEZIA2pH5DWun3PQPggCQuMOb2afWjr6zoT1+d9BeT3r1uMIHzbSIzQcAAJqpIfLws8TQWSNPucLwakkRYQDt4u/7ve7bxAAgge5bP/X6Je31y4P2fOaNCj4tqYFtCAAAms7uWDOh9xPk0Hmqp6T/n+Tc/RFol0Ocf/qpaXccIggACVNvHn6uPR+gXQustWW9N7nsu2xHAADQRNvr6yPuyhUDeUH0RUl7SQJoQ64Hq6feeB9BAEgeu2P99PTf2vMRgvZ+CUHYeJ2kZ9mYAADgmEMf2WcenVRUSxKd7/D1eeaQBNBmDkXuVxEDgATadqjh4Ffa+0HavcBaeWbf3ZJ9hO0JAACO4c8ry3r/ihjio3pV+G0zqyIJoE1c/9j5Nz5ODAASx/wTT1x4y572fpigI17LqvEFC2Wax1YFAABHsN8jfUhmThQxkk5Hngk+LKmeMIBW2ZB3/Iu3EgOAxHH/TUedGh101GuyIHWVpJ1sXQAA8Bqjnzmrzyp8mhzip/r89GMu+xpJAC0WuenD7XVbeQDoRDujxuhTHfVgHVZgrTyz54sm55bYAADg1VYPeq7wdmKIrwPaNVeuTSQBtMi3N0y9YTkxAEgcs08/duFNL3bUwwUd+dpWji/6qcu46wYAAPing6FFV86fYRmiiK+npt1xyF2XiVMJgeZ6PC8TXksMABLHdG/11Ot/3pEPGXT0a2zMBB+U/B9sbQAA4NKnl5f12UAS8bfh/BvWSn49SQBN1hCY3rf2gvR+ogCQMC9G9ZkPd/SDdniBte7sXttNdsXLY1YAAJCrzLRodVnB90kie1SvSn1VpqUkATTJlx6desNqYgCQMO7mH+jIUwf/KeiMV7tyfOEfJf9ftjsAADnrJQWp93PXwSyTTkfy8HJJuwgDOKqHq1eF3yQGAEnjpm9tmHpjRWc8dtBZL7p7feHnJT3G5gcAIPfGPm72vpVn9nyRKLJP9bT0szL7GEkAR1RjmehSpdMRUQBIEnOtP+C1X+qsx++0AuuhSXZQUfAuSXXsBgAA5NDgRz53dVnBYpLIXtVTr/+NXN8lCeC/RC577/oL5j5HFAASZk+UCi9+atodhzrrCQSd+epXndX7b4H75eJ6WAAA5ARzPTjwucI0SWS/vBNevFquR0gCeCW/bsO06xeRA4CkHdzM/IoNk9ObOvNJBJ2dwooJRfe56Wb2BwAAEm9rY0NwyfwZliGK7Ld29J0NGYUzJD1PGoAkaUH1qtRXiQFA0rjsxvVTb/xdZz+PIA5hrB5XMFsuTiUAACC5Dlqkd62d1HsHUSTHxunpF6IoKpdUTxrIcU8Gh8LLue4VgMRxPXjG3se/EoenEosCS2aR8oLLJD3N3gEAQAKZf3jlWYVrCSJ5Hjt/bpVMnyMJ5LA9isJ3PnpRupYoACTM3zNh+J75M+bHYvV8EJdUVo3tXZOxYLqknewjAAAkh5tfv6qs6BckkVzVU2/4tsvuIAnkoIxkl1afn+bu6gCSZqfMp2+cko5NRxPEKZ21Zb03yaN3SDrEvgIAQPYz6Z7V47hoey7YsCq4WqZ7SQI5dpC7qnra9QsIAkDC1Ftk766eeuMTcXpSQdxSWjWhzyMmu0LcmRAAgGyf2T1SU1fwPpnxmZ4L0ukorzGcKWklYSAXuOvm6qk3fJckACTt8GZuH1x//vVL4/bEgjimtXJ8wd3mlma/AQAgO5m0KTS946lpxqrqHLL2gvT+vCBzkaStpIGEH+Pmb1gdXksSABJo9vrp1/8yjk8siGtiKycUXO/u32HfAQAg6zwTyqcsLyvgupY5aO2Um/7hYThF0kukgURyPbhPte/ljoMAknd4szuqp91wU1yfXxDn8FaPL/yEpB+xGwEAkDVeylhwXtX4Ilbg5LANk9ObIgvfJm7Og+RZnukeXvTUtDtYXQogYfznG1YFV8f5Gca6wJKZD3qu4CMu3c3OBABA7NVG5lPWlvXeRBR4bGq6Wq5pkvaQBpLAXOs9api+cVJ6L2kASBTX7/p0S30w7itLg7jnOH+GZaIuBZdLfj97FQAAsbXbZeetKStaRxT4p+rpN6wMpKmS9pEGstwTmcbM5A3n37yLKAAkzJL9VjvzoUnpxrg/0SAb0lw72hq61xeWS1rCvgUAQOzsNo+mrx5fsJoo8GqPTruh0szeJekAaSBLPZ4XZCY9duFNLxIFgEQxLd7dLXxHtpwWHWRLrg9NsoP7Cgve7tL/sZcBABAbu8xt8soJfZYRBY5k/dTrlyjQZJd2kwayiz8aqvGctVNu+gdZAEiYBbu7hhdtmZQ+mC1POMimdDcOtfrBzxW8R2Y/Z18DAKDTvajIJ62cULCCKHAs1VNueMQ9equkGtJAdrA19fmZc9dN++p2sgCQKO6/6dMtfGc2lVdSlhVY0svXxFo1rvf7Zf6/7HUAAHSaZxQFZ686q2g9UaCpHps+d40FOsclVrMg5uwvhxoOvmXTuV+lcAWQrKObdGf16tRl2XDNq1cLsjNx81XjCq8y6RvsfgAAdLgngsDPXnVW778RBZpr/ZQbNnrkb5W0jTQQU/f12LtnyhMX3sIdNAEkikm3rJ96w0fifrfBIwmyN3nzleMLP+vSLEmN7IoAAHSI5Q2Z8KwV44q2EAVa6rHzb3w84+FYydaQBuLFf9inW/iu5TO+xU0HACRJxt0/vn7aDdfI5Nn6IoJs3wqrxxf+UGbni4uCAgDQ3uaHtuet687uxfVg0Gobp6dfULh/oqT7SAMx4HL7SvW0G2dl42k1AHAUe839HRum3/idbH8hQRK2xqqygiUWRmdJepZ9EwCAtmfyb68qK7h4edkAViWgzVRP/vq+0/dueqfL7iANdKKDJrukevr1aaIAkCQu/cMjTVw//cb7k/B6gqRsmJVn9qnOeDRe0jp2UwAA2m5i5/L3rxxf9EmZRcSBtjZ/xvzMhmnXXyX3q8VlIdDxnrMgOmf9tOvvIQoAiWJa62E0dsP5N6xNyksKkrR91k7os617fUGZTD9mbwUAoNWeDSKbuHp80c+IAu2tevqNt5tFk7hDITqM65GMh6PXT5m7ijAAJIr5L/Maw7Mfmzz3mUS9rKRur7FVtbPcdYekfPZeAACaOa8zPRQEqYtXntnzRdJARxr5x3T/KBPNd/cy0kA7ToLuTB3/4sfXjr6zgTSyx4jfpwujLpldJAEc0SG5X1M9/cbbk/jigqRutZVlhXfKNV7SVvZhAACazE3+7R6HCt5GeYXOsO689PNFXYNzTPY10kA72Guyi9dPu+HDlFcAEuY5KZqY1PJKSvAKrH8qq9xzfKMyP5U0jf0ZAICjekkWXLmqrPf9RIE4KFk052K5viepkDTQBtZFkV/62Pk3Pk4U2YkVWMAR3Req8YPrpn010XeKtpzYlO42dnndhzzSN2Xqwb4NAMCrPiqlB/K94YrKCf2eJw3EydAF6YFhmPmFpHNIAy0+xLnu2G+1n39q2h2HiCN7UWAB/+WA3L9YPe3Gb8vkSX+xlktb9szle94YRZm7JI1kPwcAQJJ0UFJ6VVnBrdxlELHlspKK2VfJ7BZxfVM0z4sue/+GadcvIorsR4EF/MeH42PuNnPD9Bs25MorDnJp864Y1+vxnXUF40z6hqQMOzwAIMetixSVrhpf+DXKK8Sayaun33i7BdFZcm0iEDRtt9H8+vzGoZRXABImY9Itmb2pUblUXh0+ruem0spdI8zsR3KNYv8HAOSYA5Lfsq+w8KaNQ62eOJBNRq2ZlVf/0vGfNtlXJHUhEbyaS/8w+VXV0278LWkkCyuwAK+2wD+0fsrcVbn46i2XN/3EpZ7an1/3GUlpSV15MwAAcuCj/5GM2ay1Zb1ZxYKsVnJ/epiC6IeSn0ka+OfMTua/yljq6o1T0juJI3kosJDDDsjtlsy+4KaNM9I5++WjsR9Io5ftPj2w6Afi4qAAgOTaaeafWzmu8Kcyc+JAEpTPKw+f6HH6x2V2g6ReJJLTHjeLZq2fOncZUSQXBRZy1J8zQfjhjVPST+V6EBRYr1D6yM4LLAxul2sIaQAAEqLRpZ80ZsLZ687utZ04kESjFn/pdY1RmHbpSkkhieSUWpfffEB1t3GHweSjwEKOeVbStdVTb/hlLtxhsCkosF5lXNUz3TLe6ypJ14pv8gAA2e3PFkafWnlmn2qiQC4oWZx+szKZ22Q6izQSL5L5XQpSn62enH6JOHIDBRZyxH653bq7e3Dzlknpg8TxbxRYRzB2Rc3JngluluwS5djdGgEAWe/JwP2zKyYU3UcUyDkuK1l83cVyv1nSQAJJpD9FFn76salpyvkcQ4GFhIsk/SpMhV9cd176eeL4bxRYx1C6rGaoWfhlSe8mLwBAzG0z09xuhwp+8tAkayQO5LKh89L5Qa/MFea6TtJJJJKIqcsKSTdVT7t+AVnkJgosJJRLWmjSdeun3bCOOI7yKUAETTOuamdxxoM5osgCAMTPs2b+9W6HCn/w0CRjqTnwCv8ssuRKm/Q6EsnKuV21W3DjhqnXzyeL3EaBheQd3vSgu76w4fwb1hLGsVHENNOYyt3jzKI57ppCfgCATvaMy77eo773nRRXwNGVLPlsD890/bjJrpZ0Iolkw7xOq838xuopNy7gAsaQKLCQnMObuyqCMLp+/ZS5q4ij6ShgWmjsiro3KBN93GUfktSNRAAAHWi9zL+ZyS/8zdrR1kAcQNMNnZfOD3tmLpb8c5INI5H4Tezk+pPMvs2pgng1CixkuXqZ32NmX1s/5YaNxNF8FFitVFa55/hGNX5Uso9L6ksiAIB2+9B2r4zcv7Z6QtH9MmM1AtBKwxddO8E9uEbSdMbF8ZjYhZ66ed209F+JA6+FAgvZyKXd5vqZRdEt6y+Y+xyJtGIsTARto2TJCz269ewy4/CKrHEkAgBoI9tN+kWjBT9aW9Z7E3EAbW/YonSJefRBk18mqYhEOnRmt0mmH4dq/Pm6aV/dTiA4GgosZBMzq4rkP8xvDOetvSC9n0TaIFMiaHujqnafEXp0haQPSOpHIgCAZorM9WcP/Jeh9s5fXjbgAJEA7e/Uik906WZFb7fIZ8n0VsbK7eagSQuiwO/cMPnGP3F9KzQVBRayQK1J8xoDfXfjlBvWE0fb4kO5XQdB3qWod907THqPTFMldSUVAMCRuLTBpHuCwO9aMa5oC4kAnadk0ezT3YNLTT5D0ukk0moZSQ+76Z7wYDjv0YvStUSC5qLAQkwdkFThZvcc8F33PTXtjkNE0j4osDrIuKpnujVmepxrgZVL9i5J3UkFACDzv8o1PwhS96wY1+txAgHiZ/jiOUM9Y+Uyv1iUWc0RSVou9/l5YTRv7ZSb/kEkaA0KLMTIIUkPSJrfTeEfVk5L7yaSDhg2E0HHG7VmZ0FYH06TR1MlmyzpeFIBgJzRIKnKTYsVZRasntCXu9AAWWR4xZyRkp/vsqmSxkgKSeU/7HHpwcB8Scqi+yit0JYosNDJXpS0RKZF3TysoLTqeBRYnc09GLusbqQHmmLuU91srKQUwQBAomwzaUnkvjhIRQ+uPLMvAx4gAYYuTvdJZTLnRuZTJJti0utycTRrrmqZLTaLFof9XqpcO/rOBvYOtAcKLHSwRrmWy7RYQbi4enJ6Hdfs61wUWDFTsuSFHt165I90C8ZLPkGyMkl9SAYAssrTklea2bIoylSyygrIDSP/mO7fmInGW+QTFGi8XCMlBYmb0JnWK1KlB7Ys5Q0PcfdAdBQKLLSzvZLWm2yZS5XBoeARrtcXLxRYMVc+z8MtJ9UWB2ZjoshLzKxYUrG4xTMAxGMiJ3vC5I/JtT4je7SxIVr+6KQiBjsAdMaDX+zb5VA4LpKNCEwl7iqW6Q3KntMO97n0VzOtV+SPBWZr9qp2DRcoRmehwEIb2iWp2swei+TVkWnlm3Zvemz+jPkZookvCqwsVfpwzQAPU8PCwIfKNcSlwZKGHP7D3Q4BoO24pOcl2yxFm821JbLgb1L02P7Cwr9uHGr1RASgqQYvTXfttS8zVKGKze1UyYeY2eDIfUgnnYLYIGmbXJsVaItcm818U6Olqjeu0NNKpyO2GuKCAgvNdMClzSZtMbPN7r7FZRtNwYbqaelniSf7UGAlUOmqvSdaQzTEo8bjFFhfSX1l1tdc/eTqa1IvSXJTgUyBIuXJ1JPkAOSABpn2SpJc+8xV76Z6yWvcgxqZaiSvMdMOi3yHe/jczj29tj41zVhtAKDdDV6a7tqrXoMt09jfFPRz877m3tcV9HX3vmbqK1eepC4KDt/R2tVL/75+6gGZDh7+93VyRTLtd3mNyWpcvsMs2OEe1VhgNZmGcOubDmx8jhUHyBZjK9K9DyizjiRyke+VWYO7InPVHZ7P7jFTjWTbzaOayKzG3GqkzPaM523ZOD39ArkBAAAAAAAAAAAAAAAAAAAAAAAAAAAAAAAAAAAAAAAAAAAAAAAAAAAAAAAAAAAAAAAAAAAAAAAAAAAAAAAAAAAAAAAAAAAAAAAAAAAAAAAAAAAAAAAAAAAAAAAAAAAAAAAAAAAAAAAAAAAAAAAAAAAAAAAAAAAAAAAAAAAAAAAAAAAAAAAAAAAAAAAAAAAAAAAAAAAAAAAAAAAAAAAAAAAAAAAAAAAAAAAAAAAAAAAAAAAAAAAAAAAAAAAAAAAAAAAAAAAAAAAAAAAAAAAAAAAAAAAAAAAAAAAAAAAAAAAAAAAAAAAAAAAAAAAAAAAAAAAAAAAAAAAAAAAAAAAAAAAAAAAAAAAAAAAAAAAAAAAAAAAAAAAAAAAAAAAAAAAAAAAAAAAAAAAAAAAAAAAAAAAAAAAAAAAAAAAAAAAAAAAAAAAAAAAAAAAAAAAAAAAAAAAAAAAAAAAAAAAAAAAAAAAAAAAAAAAAAAAAAAAAAAAAAAAAAAAAAAAAAAAAAAAAAAAAAAAAAAAAAAAAAAAAAAAAAAAAAAAAAAAAAAAAAAAAAAAAAAAAAAAAAAAAAAAAAAAAAAAAAAAAAJrAiCCZNp3+gV7d9zcMyoR+XBD5cZF7PwvU19z7uqyvpK6SekjKP/wjhewPuWnQttPGmNIRSSBbPN//kuMOdglPCjOZ4yPXcRZYX3O9fGwzHSf3lEkFLgV6+U/Bqz759srV8PL/8VpXEJlphyKvMVON5DVuQU0QaUcU2LODt/7qH6QOoCO4y2ruH95fGT85Cr1v4EFfk/d1t76SH6fA+so9kL18XDNXvr88ngOAXJCRaffLB0wdlNkByfd75DVmVuPu2y0IdkRRVBN6asf++q6bB8xYfoDYkoPCIos9e9LlfRtTDcOl4I2KoiEyGyzpn3/6khCaYtC200IKLMTv+HbpyY0pFXvkZ8g0WNIQSYPt5eNbrw5+OgclbZHZFnPfImmLm54Mosz6Ac+8cTPvHwDN4fPKwx1dnjg1kJe47FQzG+zSEMkHSxooqQspAUCbeVGmLe7aYvLNLm0OPdyoQ+FjfWasrSOe7EKBlSWeHnLZ6WEmUxpJxYFsuEvFkvqTDFqLAgudOpHTxNTWQScWm4ej3b1EgYrlKpFUlCUvYZ9JG12+3qQNktZFQZc1Q7b87CBbF8DzC0Z1z/P60kA20s2L5VYiaaikbqQDAJ1ui14ev20w2fogDFYWTV+3lVjiiwIrphO6bQP7D5c0waXxMk2Uqx/JoD1QYKEjvdSvvOeBbqkRko13aYKk8cqesqqpGiWtd6kykNY2plIPnfL0L7ax9YEcOMYtHHqiRWGpuY13+QSTRosVVQCQPcz/Ibe1ki8LLKisCfetfsO0pw4RTEw2DxHEwzMnX1qcCaMpcptyeELHYAcdggIL7clVHm4bmH+mu0+RaYqkN+vl61Llmk0mXxy5LU55w18GPDuf6zEACfDCkpIe4SGbZPKpMk2W6xRSAYBE2WfSw+6+KFK0+PgLNz5FJJ2HAquzBjwnvLfHwa6N/yyspkg6mVTQGSiw0NaePLG8Xyovdb4smGLytyl5K6xaa79cD5v5IrfU/YO3/nIzkQDZY/vC4aepURdY4FPkOkt86QgAOcSekqJFgbSoJnXgz6zO6uD0iaDjbB58RdcgOvQ2l5VLukhST1JBZ6PAQlvYOnBmkaQLXCqXNFlSHqk02V9dmp+Kgl8NePZXfKsHxNCuhSMHRY2Zd0Smcnt5pTwAALWSFrhp/nEHMktsxsZ6ImlfFFjtbOPQ8vzuu1PTLLD3yHWBuNUxYoYCCy315KmX9s5r0LvNfYZLb5WUIpVWcUkrXDZPQf3dQ7bMf4FIgM5T84dhAzywmZLN0MunPwMAcCQ7Zf4Hi/zuPuse+5OlxfyqHVBgtZO/nzzzDUGgK026QtIJJIK4osBCc20dOHNUJM0yaaZYSdpeMpKWmnTnwG3P/970UCORAO3P55WHNfmbJikMZsn9IlHMAwCa7znJfhVm7PtFFz26hTjaDgVWG9o8+Iqu5g3vVBR9SGbnkC+yAQUWmuLwKYLvjaQPmlRMIh36Qf1MJP0k0xj9+NTn736GRIC29+Lvh50SpoIrJb9Cbq8jEQBAG8hIWuSuHx7Xu0+FTeILyTYYF6O1njyxvF9+ft4HXLpKUn8SQTahwMLRbB048/WR9EmTrhSnQHe2SFKFLPrq4K13VxEH0Ho7FwyfEElXyf2dkkISAQC0C/N/eGR35oV+e+H5G3YRSAtjJIKWe+bky05tDKJPmPRBSd1JBNmIAguvZevAmaNc+qRePk2QSV38rDXp2wO3Ndxlmp8hDqDpPK1gx6iS6eb6oqRxJAIA6EB7JP00sMw3+lywcRtxNA8FVgs8ffLMMRZotknTJQUkgmxGgYV/Teoke2bAZRe4Rde6NIZEsmKbPWnmt+w4rtfPR6+9s4FEgCN7suLULkWNPWZJ/hlJg0gEANBpTA1yv0emucddsGETgTQ1NjTZtgHvHRZZ5jpJ7yY7JAUFFiRp68CZ50bSTSaVkkZ2bkKTbhq47fmfcMF34D/5D0bl1fRvuMRdaZOGkAgAIEYimf1fJLv2+AsefZI4jo4SpkkTu0vf5PIvSLpUrLhCwlBg5frx7ZIJ7rpBZhNJIxE2m3TzwG0NP+bUQuQ6TyvYObL4XW7BTZKfSiIAgNgyNch1dyYTfeWEix77O4EcKSYc0bYBF/d3s5tc9l5RXCGhKLBy09MnX1ISBPZNSW8ljUR+uleb26cHbbvrT4SBXLT93pK3m3SrTKeRBgAgi9S77DupjF1fdNGjtcTx6iEu/svGoeX5Pffk/Y9LN0jqRSJIMgqs3PLMyeV9GoO8L5v0MXFx9lzwoMk+OWjbXX8lCuSCHQuKzzC3b7g0jTQAAFlsp7mu79O7z3dsEpeH+CcKrFfZOvCSC1x2u7hGAnIEBVZuWDNqVl6/7Xs/6lJaUiGJ5JQGl74XpRquO+Xp+XXEgSSqWzy0T0N9+GVJH5WUIhEAQEJsCuSf7vP2DYuIggLrX/5+0ntOC4PgB1wHBrmGAiv5nh4w8+zAdKek00kjp73orquHPPPru4kCSeEu23l/yZXuukVSEYkAAJL5gaffemPeVf3etfYfuRyDsR9MTG0b2P9jLs2V1IN3BnINBVZy/f315QVBY971Jn1cXMcP/1aRSaX+55Snf7GNKJDNXry/+PWh2w/kOpc0AACJZ6qzSF/us676Dksrys0IctjTQy4bHmSiH0kazbsBuYoCK5m2Drz0fMm/69IA0sBr2G/S9QO3NXyduxUi2/jSiamdu3d+zI0vHwEAucdcj3jgs467YMOmnHvtubjBnzx1apdUfeH1JvuMuIgxchwFVrI8e9LlfRvDxu9JKicNNGEYUBVG9r4Bz/7qKbJANtj5h+LiKLCfSxpJGgCAHHbApeuO+3/V38yl1Vg5d0rJlkHveWNefdFyk31elFcAEmTrwEvf2hg2rBflFZrMyzJBVL114MxPkgVivae6bPt9xbOiwFaI8goAgG4m3VozquTBmoqSk3PlRefUCqytA2de7tJ3xXJz4F9YgZX9Xl5VWvQVkz4nrnWFFjcE+l0qSs06+blf1BAG4uSF35Ucn5fnP3G36aQBAMCrmOpc/tF+F2z4dfJfag54esglJwSZ4MeSM/ABXoUCK7ttHXjJUDf7tVwlpIHW8+dMwfsGbbvrT2SBONhxX/GFkv1QUj/SAADgqOO4n0YHo6uOn7Fxb1JfYeK/qd868NLxQcb+H+UVgKTZPOCSS1y2kvIKbcdOcvkDmwfOvNmVZjUfOm8IPq883HHf8Jsl+70orwAAaMo47v1Bl3BtzX3Dhyb1FSZ6cLp14MxZLv+zpP7szAASM7HTxNTmgTNvNrNfi1Oi0Q6jH5Ou2Trwyfu2DpxZRBzoaLsXjDquptsTiyW/Rjl+x2wAAJo3itNpLl9Rc29xeTJfXgJtHnxFV8sc+o7MPsAeDBwdpxBmlydPLO+Xl593t6S3kAY6wFNhZO8c8OxdG4gCHWH7gpI3m+v/JA0mDQAAWswl3dG3V5/P2KSHGpPyohK3AuvpITMHWVRfRXkFIGm2DLpkXF5+3qOivELHOTUT+PKtAy+ZQRRobzULSj5oripRXgEA0Fom6aqavTsX1S0e2icpLypRBdbTQy4bHmS0TNxeGUDCbBk0851y+5M4JRodr4fL7t48cGaaKNAe3GXb7y1Ju+uHkrqQCAAAbfUhq3MbGsJV2xcOPy0JLycxpxBuPvmSKRbYPEm92EuBpuMUwvjbOnDmJ136pnLgxhuI/ajhpzuO6/nh0WvvbCAMtIUnK07tUtTY/SeSZpIGAADtpiYKdNHx51c/ks0vIhGToa0DZ86ywBaI8gpAgrjKwy0DZv6vS7eJ8grx2Cnff9z2vRV/f315AWGgteoWD+3Tp6H7A6K8AgCgvfUNIj2w/b6SS7L5RWT1hMgl2zJo5jdd+oGkFPskgKR4vv+s7lsH5t0n08dIAzFzbpjJ+8u2ARdzOita7MX7i1/fUJ9a6aazSAMAgA7RxaRf1dxX/KlsfQFZW2C5ysOtA2b+UK5PsR8CSJKX+pX3rE/tXSBpGmkgph/CJZEFldsGvOcUwkBz7VhQfEaYsYclP5U0AADoUIHLvrnjvuE3Z+WTz85xc3m4ZWDeT2S6kv0PQJJsHnxF4f6ueQ+IOw0i/gZHFj6ydeAlQ4kCTVVz3/Chkv4s08mkAQBAZ/FrdiwYfod7dl0XPesKrI1Dy/O3DsibZ9Ll7HQAkuSpU957vGUOPSTTmaSBLPE6l/356SGXDScKHMv2e4eNdvnDcnsdaQAA0MncP75zwfDvezp7eqGsKrCeObm8W889effJ9E72NgBJsm3Axf1TDZmHZUYRgGxzfJCJ/rxtwMWjiQJH8tK9xWebBX+W1Jc0AACIB5fPqhlZ8lOfVx5mw/PNmgJrzahZeZkgb55Lk9nNACTJkyeW94sseEDSGaSBLNUnsuCBLYMuHkkUeLUdfygZG5jdL+4WDQBA/Jgur+n2xI+zYSVWVhRYrvKw3/a9v5R0PnsXgCT5++vLC/Ly8xZJehNpIMsVSsGSLYPe80aiwD/tvHdYiQJViPIKAID4cr2vZtTw2+P+NIP45yjbOiDvBy69h70KQJK8cMJ7e4SNefdLGkUaSMjgp588/OOWQe8dQhjYvnD4aZEFSyT1IQ0AAOI+jvOPb79v+Dfj/BRjXWC5ZNsGzvwudxsEkDTPnFze7WB+4/2SJpAGEuZkRZmH/v76ywcSRe568ffDTrGML5V0ImkAAJAdTP6pHfeVfCmuzy/WBdbWATO/4tJH2I0AJIkrHWQsdZfMJpIGEjr6GRg2Ni7aPPiKQsLIPbt/d0bfMAwWSepPGgAAZJ25O+4t+Z84PrHYFlibB1zyfpnmsO8ASJotA//2LZldRBJIuDdZVP+7jUPL84kid2xeOrhrfV6X+yS9gTQAAMhSgW6vWTD8vPg9rTgOfgZfNtHMvs9eAyBxk7uBl15t0lUkgRwxqcfu1PeIITe4y3rt6f1juZeRBgAA2fyhrjx3/+2LC4YOj9PTil2BtXXgpW+yKPq9JL6xBZAoWwZdPN3kXycJ5BSzD2weeOkXCSL5di4ouUXSTJIAACAReoUeVtRUlJwclycUqwLrqVPee7zLKyQVsq8ASJKtA2eOkgfzJIWkgVxj8rlbB14ygySSa/t9xbNc+ixJAACQKP29Ufc9v2BU9zg8mdgUWK6JqVR94z2SBrGPAEiSZ04u7+PSfEndSQM5ylz2sy2DLh5JFMlTc1/JmSb7NkkAAJBII7t4w4/i8ERiU2BtHdT/a9yRC0DSuNJBJsy/S9IQ0kCO6yYP5nFnwmR58d5hJ7hrvqQupAEAQFLnNLpkx33DP9HZzyMWBdaWQZdeJNen2C0AJM2WgX+7Se5TSAKQJJ1qUf0vXemAKBIwmF06MRVacI9MJ5MGAAAJZ/6Nl+4tPrszn0KnDyA3D77kDLn/TJKxRwBIks0DZl5o0udJAvgP528d9LdriSH77diz81ZJ55AEAAA5wJUXmM3bsWD4SZ31FDq1wHrhhPf2sMj+IKk3ewOAJNk6cObrzfQLUc4DrzUASm8deOlbCSJ71dxX8i6TriYJAAByyglyv8vnlXfKjak6tcA60CXzTUmnsw8ASNbcfGLKpV+Jch444vjDFf382ZMu70sU2WfHguEnufQDkgAAICedU9P1iWs6ZQDZWa/48Kk1s9j2AJJmy8D+syWNIwngaOykxqDhh+SQXTytQO4/l0T5CABA7vrKjj+UjO3oB+2UAuupU957vBnf3AFInm0DLi016UskATSB2UVbBl36AYLIHjveXPJpSZz+CQBAbksp1F3b7z29V0c+aIcXWC5ZqiHzU0knsM0BJMlL/cp7ZszvkpRHGkBTBwb+7b+f9J7TCCL+dt5fMsykG0gCAADIdUqgLt/oyIfs8AJry4CZH5E0ja0NIGn2dcv7hklvIAmgWXqEYeqnrnRAFDEeo/5gVF7k+rWkrqQBAAAkyU0f2n7viOkd9XgdOljcNuDi/ma6ic0MIGk2n3zJOSZ9iCSAFg1/yrYO+ttHySG+dp7Y+AW5ikkCAAC8kln03Y46lbBDC6woCL4jqZBNDCBJnjx1ahcLgu9JMtIAWsh101P9Lx5AEPGz/d6S092ca/sBAIDXMtAsf25HPFCHFVibB1z6HrnewbYFkDT59X3Skr+RJIBW6ZUKA27wEjOeViDTj8SpgwAA4IjsYzvvHTG+vR+lQwqsZ04u72Pmt7NRASTN0ydfUuLyz5AE0BZjH03dPGDmxQQRHzVvLvmISRNIAgAAHEUQWfSjJytO7dKuD9IRr6QxyPuquOsggIRxyYIwuFPcdRBoM2a67clTL+1NEp3vxXuHnSD5V0kCAAA0wRlFDd0/3Z4P0O4F1tNDLhtu0pVsSwBJs23gzPfKfSxJAG3qhFR9dC0xdL7AgrmSUSYCAICmMX1p+70j+7fb2KTdBz+Z6OuSQrYkgCR5vv+s7pJuJAmgPcY+dvXfT3rPaSTReV5aOGKESVeQBAAAaIaeZlG7XdC9XQusLYMueZekc9mGAJKmPm/fl1zijmlA+8hPheEtxNB5gkx0m/gCEgAANJu/b8eC4WPaZXzSXk9549DyfLndzMYDkDRP9b94gNw/RRJAOw59pAufHnDpeSTR8WruLS6XdA5JAACAFjC53+Yua+tf3G4FVo+9qU9KOpVtByBpUnnh1yR1JwmgfQWB3+pKByTRcXze0PzI7GskAQAAWmHczgXDy9t8bNgez/SlfuU9Jfsc2wxA0mwdeMlQub+HJIAO4CrZMuDJcoLoODVdwitN/7+9O4+zq67vx//+nDuTRRYhk0REkplBEDUkgNgqboUuYiELqIkKdatWq7Zu1WoXW9r6s9VqXdqvrWgtCkkwqQsJi1irVAXqEiEToihIJpMQgWQgbNlm7vn8/oCWKiGZfe499/l8PHgoJHPnzuvc85nP53U/59zolgQAMKppXM5/k795ettYPua4FFi7Htf+jsgxyyEDqjcQx9/EBHwABvCQVOS/zjG2kx/2b9M3u6ZFxJ9KAgAY/SQuntJ//z2vGMuHHPNF2M+OXfr4yOHeMEDl9Hb+zjMipXMkARMox1P65j7x5YIYf4ffd/gbI8UxkgAAxshfjOUurDEvsGoD7e+KiCMdJ6B6C+n81xFjfzNC4CCnXqS/tAtrfG1Zddr0nOKPJQEAjOEs7ri777vnVWP1aGNaYG190qs6IsXbHCSgajYd8/JnReSzJQGT4rjNnU96lRjGz7RpD74lIo6WBAAwlnLK78ur5k0Zi8ca0wKrXht4S0Qc5hABVZNqxXulAJM6/XmPTyQcp2RXzZuSUn6nJACAcdDVP702JreDGLOJ4C3H/fbUHMWbHBugajbPPe/YyLFIEjCJcjyld85PnYfj4O7pxfmR0xMlAQCMk3flPPpbsYxZgTVl34xXReSjHBegcuvmFO+KiJokYJKl/EdCGHtlLtz+AQAYxwVVzL97zYm/OdqHKcbmuUTKkd/uqABVs+WYpTMih3vvQANIkZ6/qev8Z0ti7PRfftKZKfJJkgAAxlOOYtRvRI5JgbW58+VnRcTTHRKgauq19jdHxCGSgAZRxjuEMIaTyTLsagMAxl+KM++64uSTR/MQY7MDy9ZzoIJ+cOob2iPHmyUBjTT3yS+59eiXz5HE6PV/5ZSnR+TflAQAMBGKsv6Ho/r60T6B3s5XdqeI33AogKqZuePBhRHhxsbQWGrtbcXvimH0yqL+exGjv6EqAMCQ5PSy/iufdfhIv3wMdmDVXx9jeDN4gMZZ3eXfEwI0pNflWOqDFUYzf1w1b0qKOF8SAMAEOqQc3PXykX7xqIqnHKe3RY7XOAZA1Wx90vnHRIoXSgIaT46Y03tM229JYuR2TKu9JCJmSQIAmEgp0og3CYyqwOqdc/TZEXG0QwBUzUAtvz4i7PCARp38pGSH5KjyC/kBAJPhmXdddtIpI/nCURVYJo9AFeW4oEhhdyk0tBSLezt/xz3qRuDOy+cfGzlOlwQAMBmKiNeN8OtG5pajls6KyGeKHqiavrm3nBERnZKAhtaWcrlMDCOY/JXx6nDzdgBgsqR8Xl41b8qw5zAjnjW2t780ItokD1RNGdmiGJpAjuRcHcmcMdJSKQAAk+jIe6YVvzHcLxpxgZVSmPwAFVwQn96WIs6RBDTFGXvabd3n2S05DHdfduKCiHiaJACAyVTG8DulERVYm7qWHhURLxA5UDWb5jzp1yNitiSgKaRiML9EDMOYLKbCrjUAoBGmcefecuVxU4fzFSMqsFJuf2n4dC6gggqXD0KTnbQKmWFS+AEAjeCIIwYP+a3hrdVG5qWyBqrmB6e+oT2SywehqeT8q5u6Xt4liIO764qTT46Ip0oCAGgEKedhXUY47AJr89zzjowczxU1UDUdd97/nIjokAQ019wn5drZYji42mBeJAUAoFHkFGflC4beSw27wCpzemH49EGggoqieJEUoBlnP9m5O5SYipATANAwUsTM/lNPeuaQ12vDXuAlk0Sgqmvg8relAE3pjFuO++2pYnhsOy+ff2Tk/KuSAAAaSYo85DXYsAqsHJFyxAtFDFTNpq6lR0VKCyQBTemQKfuOfL4YHls9F3bQAwANJ+eh7xAfVoHV23XeSRFxtIiB6q3u2n47IpIgoFknP3aIj9XkEABgAv3KfV966pDuQzy8SwhLk0OgmoqUzpQCNLGUzFEeQ86RIpXGOACgEdX21qb81pDWbMObGxa/Jlugkgu8iBdIAZra0285auksMTzajitPOj5yeqIkAIBGlIqhrcWGXGDliBQ5P0u0QNX0zXnZkyPC4g6afO7T1t7+HDHsZ7JXls+VAgDQqHKOIc1VhlxgbZnzynkRcaRogcoNmKlm0QsVkFJS1OxHmZMxDgBo3DlcxIn3fPnkIw7294ZcYNXToEkhUNUh0/gG1eBc3v+kUC4AQCMryqJ89kH/0tAnPxZ4QDXlcHkNVORsPnVT12umyeEROy+ff2REnCAJAKCx12QH75yGcxP300QKVM3Pjl36+Ij0dElAJUwtyoFTxfCIfTlOi+F+6jQAwEQr8tgUWLccd/7hEfFkiQKVGyf3tZ1scQfVkVM+RQqPqJWFQg8AaIJJXJySc6QDrt2G8jhT9sX8iAM/EEAzSrU0XwpQoblPDuf0/82jkAcA0BSOuPuyE4850F8YUoFV5rxAloDFLtDoUg5zll8c5IxxAEBTqB9kc8GQCqzk3TvAYhdoipM6TsxxgcuCI2LLqtOmR8TxkgAAmkERxYID//lQWOABFZQjUqSYJwmolEP75v60SwwR06bePy8iapIAAJpjgZZHtwMrP3TvqxMlCVRN39zzuiPiMElAtZQuDY6IiJSS+RsA0ESTlxhdgbWp+xWzI+LxkgQqt8gt81OkABWc+xQum3soiGSMAwCaR47jDvRJhActsFIuuqUIVHRxZ3yDap7czu2ISDm6pAAANJHp26+c94TH+sOD3wOrnk1+gIqu7qJTCFBB2dwlIiKHAgsAaC618rE3UR28wEomgUBV2aUBzu1KkwMA0FTKnLoe688OWmAVUXSJEKiiIhT0UE256+EPoWlZm77ZNS0inuC1AAA0k3SAN+AOvgPLAg+o6hLX5TVQVdN7u5a2dHlz2AOHdUWLl3gAQPM50D08D1pg5chPEiFQNRvnLZ0SEbMkAdVUq9eOafHpn/kbANB0yhSPOYcbwg6sZIEHVM4hD0ztCLsToLLqUXS08s+fSwU9ANB8UuSZj/VnByywHr5/xAwRAlVTqz/2wAhUYPJTxMzW/vlzh1cBANB0c5hIjzmHOWCB1dv1msdHRLsIgaoZbEsWd1DlyU+Olj7HUyQlPQDQdPJId2DV6rst8ICKLm7rxjeosDJau6TO2Q4sAKApV2qH51XzpuzvTw5YYNWzd++Aqi7uwvgGVZ76tHyBY5cpANCcth+y/1tZHfgm7qk4QnRAFRWRjG9Q6ZM8tfQ9PHPEkV4EAEAzqg1MGUGBFXm66IAqKiOMb1DpkzxPbeUfP6WY5kUAADSjeir3O487YIFVpJgiOqCiizsfUAHVPslbusDK2RwOAGhORc7DvwdWhMkPUFGl8Q2qrcV3YEU2xgEAzblUS3n4O7ByKkx+gIqu7lp7dwZU/hRv8TfhchjjAIDmVIuRFFgtfv8IwOIWaE65xUtqYxwA0KzKaBv+JYSFe8QAlV3curwGqn2SZwUWAEBTzmNGsAMLqLwyxQVlSw6KORv/oNozn5Y+x3OK7EUAADSlotzvGvWAk7sy8l7JQaU5xwGqKMc+IQAAzaiM/c9jCpMfaGnOcYAKStkbFABAcyoi7d3/fz/Q5KdIFrdQbRY4ABWUkzcoAIDmVKYR7MBKdmBB1TnHASooG98BgCZV5BHswCoVWFB1dmABVFBSYAEATap8jKsBD1hgFSnvEh1UWd4tA4BKMocDAJpSGiz3u049YIGVU61fdFDlkSE5xwEqOb6H8R0AaEpT6/t27O+/H7DAqteKHaKDCsvhHAeo4vBeZgUWANCMysMG5+/c3x8csMA65EGTH6j0Aie8Qw9QRckOWwCgOd2Tlq2u7+8PDlhgHXXnxQ9GhHvkQGUXOHZgAVRRjmx8BwCa0WPOYYohfLF38KCqXGICUElF2IEFADShA+wiH0qB5R08qKicCgscgAqq57xdCgBA8y1S88gLrByxRYJQTSnlPikAVM+UlMzfAIDmk9NjrlGHsgNrkwShqmND6fwGqKDHHzZjS0QMSgIAaKo16gE6qIMWWCnnzSKEShrs6r1jqxgAqiedcc1gRNwuCQCgmRQp9z7mnx38qws7NKCatqa4xrvzANXVKwIAoJmUaRQ7sCLqJj9QTcppgEpLxnkAoKm0pzzyAiunaSY/UMl1jXfmASo9zB9gCz4AQOPJ9x2xcMM9j/WnBy2wunsv2hmR7hAkVG5w+LEMAKos3SwDAKB5pi7pgGvUoXwKYeTIGyQJ1ZLr4bwGqPI4n+o9UgAAmkUq44BzlyEVWClnEyComFpyXgNUWceup/00InZLAgBoBjmlA26yGNoOrFTYqQHVcvfcLZduEwNAdaVlq+sR4XJxAKApjEmBlWxBh4qNDHZfAbSE5HJxAKA5TI3aTQf68yEVWAPt9/4oIgbFCVVZ0NhVCdAKcpmM9wBAM9h2+KJ1Ow70F4ZUYB1/61V7I+eN8oSKLGhy/qEUAFpAKn8gBACgCaw72F8ohvxQRXGtPKEa2nLxHSkAVN+ePYd+LyL2SQIAaGz5oJ1TMYxHU2BBNdw5Z+slt4oBoPrmLLt+d0TcKAkAoJEVuXbQTRZDLrByql8nUqiArIwGaK1hPxn3AYBGtvfew3eO3SWE3b2X9kbEVrlC0y9lLGQAWkiRsjchAYDGXaFG/KD7jN49B53TDPNxrxctNLcyJ/e/Amgh9aJu3AcAGlZKQ9stPrwCK+drRAtN7b67n3DoDWIAaB2zz954R0T8RBIAQCMqo/yvofy94RVYRdtVooUmluPrz1x34YAgAFpMiq8KAQBoQHsGY8o1Q/mLwyqwujZfvClS/FS+0KTrlxRXSwGgBcf/UoEFADSgHP919KJ1u4byV4thP3YOu7CgSdVrCiyAVnTf4fddExG7JAEANJI0jF3iwy6woszewYPmtPHYTSs2iwGg9XSf0bsnR/yXJACARmSzOP4AADkKSURBVJJTHscCq23qNeEdPGjCkUH5DNDKkvtgAQCNpXfmog03D/UvD7vA6u69aE+k+JqcobkUUbtMCgCtK9XLL0dElgQA0AhyxFeGt6YdyTcp8ypRQ1P5+Zwtx10rBoDW1XHOTVsixfckAQA0giINr1saUYE1fV/bmoh4UNzQHFLkL6S4oJQEQKv/PkjehAQAGsGWGQs3/PdwvmBEBdZRd178YIT7KECzyCksWACIqOVVEeENDQBgUqUUq1Ia3q0NihF/s3AZITTFwBCxpXPzyv+WBAAdZ/VszRHXSwIAmEx5BLvCR1xgtQ8ednm4jBAaf2BIsTq5aS8AD0t25QIAk6u3Y+H67w/3i0ZcYB297cJdKWK13KGxlUXxeSkA8D+mDOxbHhF7JQEATIac43PDvXwwYhQF1kPSZ0QPDSyl7x676ZL1ggDgfxz+4pv7I6U1kgAAJkHZ1lb7t5F84agKrM6+5ddGxEb5Q8OODUpmAB4llfVPSwEAmGg54uojz75h80i+thj1N8/xrw4BNKQH9kyb/gUxAPDLZiy+6euR4meSAAAmUsojv5Jv1AVWe9n2+YjY4zBAo8krn/qTz94vBwAeNXlMkSPHv0kCAJhAd3bc0bZ2pF886gLrmNs/3x85vuQ4QGMpcuHyEAAeU861f4sUA5IAACZGuii9cd2I5x7FmDyFFP/gQEADDQsR35q7Zfn3JQHAY5m15IZtkeNSSQAAE7BIHUhl/f+N5iHGpMDq7FuxLlL8lyMCDTI25OIjUgDgoBPBMv99xPA/xhoAYJhWdJxz05ZRzVvGbsGcLZihEaT46Zwtx10uCAAOZsY5GzZEiv+UBAAwnsqi+NhoH2PMCqy5fSsvj0g/dlhgcqUcH0lxQSkJAIb0e6MMb0ICAOMnx9Wzz77xxtE+zNjtwIrIKfLHHBmYVHcV5cDFYgBgqDqW9Hw1R1ovCQBgPKQox+TNsmIsn9S+Kfd8LkVscXhgsgaG+Ic5W1fvlgQAw/sFUn5ICADAOFg3Y/FNXx+LBxrTAuv4W6/aW+b0AccHJsWO3dOnfVIMAAzXzHUbLs0RPZIAAMZSKtKfpTQ2HxhTjPWT6599yL9GxG0OE0ysnOMDT/3JZ++XBADDnlxeEGWR4m8kAQCM3QQjXdexcP3VY/VwY15gPXPdhQOR0v/nSMGE+vnU+qGfEgMAIzVjYc8XU44bJQEAjImc3zeWD1eMx3Ps3LzvcxHxE0cLJkiKDxy97cJdggBgxL9KUuQy4i8lAQCMVo74zszFPd8Yy8cclwIrxep6znGBQwYToneg/Z5PiwGA0Zq5uGdtRFwvCQBgFHJRlu8Z6wctxuvZdm1Z8YUc+duOG4yzlN91/K1X7RUEAKP+lZIi5yL/YUSU0gAARjSfiLi045ybrhvrxy3G8QnnlGpvNwGCcXVt5+aVXxIDAGNl1sIN6yJiuSQAgBHYXdRqfzIeD1yM57Pu2nzJD1Pkix0/GBdlinhbirH5SFIA+F8p/UlEPCAIAGA4co4PHXn2DZvH47GL8X7y9Vq8JyLucxhhjAeGiM909q1YJwkAxtrMRetvj5Q/KAkAYBiL1K31afH34/Xw415gHbtp5Z050t85kjCmdtbba+8TAwDjZffuQz8SEb2SAACGIqf446PO7HlwvB6/mIgfoqvv9r+PiBsdThgbKdIfH/ezi++SBADjZc6y63enHG+SBABwMDniq7MW96wcz+8xIQVWimsGyzLeGBF1hxVGez7Ft+b2Lf+MJAAYbx1Ler4akS+RBABwALvKIr9lvL9JMVE/zbFbV3wvR/yT4wqjsjen+u+7cTsAE2XK4MDbI8KuXwBgv1LkP3/Cwg23jff3KSbyh5o6eOifRsRtDi+MUI6/7tr8hR8LAoCJcviLb+7PKb9TEgDAfhap35+x56mfmIjvNKEF1tHbLtyVc7w57B6BEYwLef2O2Yf+vSAAmGizFm1YniKulAQA8H/sK3J+fVq2ekJuF1VM9E/XvWXF1ZHSPzvOMCx7yxyveua6CwdEAcBkGBiM10bEnZIAACIiIuf3zVhyU89EfbtiUn7G1P5HOWKDow1DkyK/+9itK3skAcBkOerFPXcVkV8bdtIDgDVqxLc69j71IxP5PSelwOruvWhPLdfOi4g9DjscdGC4em7fSh+AAMCkm7F4w1Up8oWSAICWtjOl+isn6tLB/1FM1k87d8vFN0WK9znucAAptpfFwGt86iAAjWJvmvLOiLhZEgDQosvUlH5/xqKNfRP9fYvJ/KE7Nz/lH3LEfzj8sF85onxtd+/qO0QBQKM4etG6XbnIvxMRe6UBAC23SP3XjkXrvzAZ33tSC6wUF5Rt5cDLI2KTlwE8amR4f9fmS68QBACNZtbCDetyzn8oCQBopSVqWj+Q2t86Wd+/mOwA5mxdfXcu4sURsdvLAf7X1zu3DPyVGABoVLOWbPh0jviMJACgJdxdFuWLj160btdkPYGiEVLo7l1xY4p4o9cDRETE5imD+RUpJvaGeAAwXDvbdv1BRP6+JACg0soi8u88YeGG2ybzSRSNkkZn34qLI/KnvS5ocXtSxEuO3rZyhygAaHTHn3Xr3lTml0TEdmkAQGW9b8biDVdN9pMoGimRgSk7/zAirvXaoEXlSOl1nX0r1okCgGbRcc5NW3IqlkXEPmkAQOVWqf/esajnbxvhqTRUgXX8rVftbau3LYkUP/UqoeWk+IuuzctXCAKAZjNr0Y3X5ByvjogsDQCoivz9fUX7q1NqjN/vRaPFc8ztn+9POX47Iu7yYqFlpPi3rs0r3i8IAJrVrCU9l+Ycfy0JAGh+OWJTPedFk3nT9l9WNGJQnX0rbivLWBQRu7xsqP7IkK958NCB3xcEAM1u5uKev4oUn5MEADS1uyPHbz9hyU13NtKTKho1rWO3rvhezul3I6L02qG68k319sFz5m1c7b4hADS9lCJ37K6/IVJ8UxoA0JT2ljmfO2tJz08a7YkVjZxa95blX4iUfi/cT4Fq+lmR85lPvm31vaIAoCrSso37Um36ORHxPWkAQFOppxS/M3vJhm814pMrGj29rs3LP5si3uF1RMVsjVT7rblbLt0mCgCqpuOs795XqxdnRsQPpQEATaHMEa/sWNTz7436BItmSLGzb8XHc8RfeT1RCSm2R6q/sGvzxZuEAUBVHXnujTsH2moviogfSwMAGlrOkd80a3HPykZ+kkWzpNndt+KCHPlDXlc0uXsjihd1bf6CyTwAlffEs27YHin9Vo7wpg0ANKgc8cezFm+4sNGfZ9FMoXb1rXxvpPiolxdNakeK+I2uzZe4nAKAljFz0frb2+rFr6eI26QBAA0lp5T+aNbing83w5NtqgIrReSuzSvemSLe63VGk7mzVqZf7+xbsU4UALSaI8+9sbdeqz83UmyQBgA0hByR3taxaP0/NMsTLpox5c6+FR+MlP84fDohzTEs9NXLeP6crctN2gFoWbPP3nhHe3v99Ij8fWkAwKSqR47Xzly8/h+b6UkXzZp21+aVf59zenNElF57NLBNUdROf/LWFbeIAoBW9/gXbby7Vq+9MFK6ThoAMCn2pYiXzVzS87lme+JFM6fevWX5v0SKV0XEPq9BGtAPylo+zacNAsAjjjz3xp3l7sEzc8RXpQEAEyjFvVHmszsW93yxGZ9+0ez5d21esTxSeUZE7PBqpHEGhvTVPdOn/fqxm1beKQwA+EWzl218YOaeExZGxCelAQAT4vayKE6fec6GrzfrD1BU4Sh0bb70ulpZnJYjXKbFpMsRF3Zuvn3RU3/y2fulAQD7l5atrs9c3POWlOPt4ZYQADCea9Se1BbPnn32jTc2889RVOWAzNl6ya3t9bbTIuI7Xp5M1riQI/6qu2/FG1NcMygOADi4jiU9H08RyyJitzQAYKxXqXF10Tb9+R1n9Wxt9h+lqNJxOeb2z/dPGTz0zIh0iVcpE2xnirS4u2/FBaIAgOHpWNzzxRTx6xFxuzQAYEzkFPHhjr0nnN1x1nfvq8IPVFTtCB297cJdXX3LX5ki3hhu7s7EuDkX+bTOvuWXiwIARqZjcc9/T0ntJ0eKr0sDAEblgZTzyzoW97w7LVtdr8oPVVT1aHX2rbgwRfr1iPi51y7jJqWV0/bWntndu/JmYQDA6By+aN2Ojt0nvCgifTAiskQAYJhy/LQo4rSOJRtWV+1HK6p83Dr7ll8bqTg13BeLsTeQIt7WtXn5eUfdefGD4gCAsfHQzd3Xvzel9IqIeEAiADBkX0rt039lxsKem6r4wxVVP3pdmy/5eWfftjNSxHsjYsDrmTGwKVJ5emffik+IAgDGR8ei9V9oi1gQKV0nDQA4oD0px9s7FvW8tCr3u9qfohWOZIprBjv7Vnwwl+XzI+JWr21G4eLH7R5Y0LX5UpNpABhnRyzu2dRx6JG/lnP8VUTUJQIAj3JTkctndSzp+XhK1b78vmilo9q99dLvDkxJp+aIC73GGaadOccruvpWvGr29tUuZwCACZLOuGZw1pKeC1LKz08Rt0kEACLioXtFfuKetl3PnLHkpp5W+IGLVjvCx9+6/L7uvhVvTJFfFhF3ec0zBJfXyrYTu7esuFQUADA5OhZtuL6oF6dGis+FG7wD0MIefkPnN2cu7nnb8WfdurdVfu6iVQ94Z9/KVbmYcsLDu7FMgtifO1PEq7v6Viyas/Xzt4sDACbXkefeuHPmop7XlDmfHjl+KhEAWkyZIl1Y31M/aebinm+02g9ftPKR7+69aGd334o35jKfEckkiF+wespgPrGzb8XnRQEAjWX2kg3f2r33kJMj0gfDvbEAaAE5oidSOq1j8fo3zl62sSVva1N4GUR0b135X1MGDj0lcnw4fFJhq/tJivSbXX0rlh29beUOcQBAY5qz7PrdMxevf28u8rMi4gcSAaCiHoic3zPzsBmnzly0/nutHIQC62FHb7twV9eWFe+ulzEvIlZLpOXsTBHvHZhyz0mdfcv/UxwA0BxmLdywrmNRz6+mnJdFRJ9EAKiIHCmtLlJ93swlGz6UzrhmsNUDafOa+EVP3rrilohYtnnu+b9RRv5oipgvlUorI2J5WcvvPnbTyjvFAQDN56GPDd+w+o6rF1xZ2xPvTineExHTJANAc8rfT2V+e8c5N10ni0fYgfUYOvuW/2dX37ZnpMhvDZ9WWM3JbsTXyjKf0tW34lXKKwBofked2fPgrCU9F9SLPC9HXhU+qAeAJpIjNuWUz+9YtOFZyqtHU2AdQIprBjv7Vv7jtL21Y1PE2yNCyVEN10bKv9HZt+LMY7eu7BEHAFTLExZuuG3W4g0vS5HmR0qrQ5EFQGPbknK8fWfbrqfNWrRhxUM7i/llSQRDd9espYfunt7+lhzxnog4UiJNJsd/p5Q/0Nm3cq0w2Dz3FRflSK+WBFR2htPTtXnFSYIgIuLuy05cUBa1P4+cX2r+C0AD2R6RP3L/Yfd/vPuM3j3iONj0jhEsfM87MiL/YY70loiYLZGG942c40PdW1ZcLQoeOY8VWFDxGY4Ci0fpXzv/tJzTeyJiUbgSAYDJ0xspPrp79yGfnrPs+t3iGOr0jhHbOG/plEPvb3/5wzuyni6RhlJGxJW5LN/fvfXS74qDX6bAgsrPcBRYPKY7v3zik2u14q0R8fqIeJxEAJggN0SKj3UcOmOFTxUcyfSOUctxQdE39ydn5xzvjJROl8ikui9SfKZea/v4k2/7vI/S5jEpsKDyMxwFFgf18ytPmTWlXn9zzvGmiHiCRAAYB2VEXJEjf2TW4g3/JY7RTO8YUz970sueUtRqv5siXhsuL5xI61LEhdN3D6yYvX31A+LgYBRYUPkZjgKLIcurltb6p9x8RtSKN0TO50ZEm1QAGKVtEenitsifOmJxzyZxjMX0jnHx8OWFS3LEqyLityOiJpUxtzNHrMpl/n8+TZDhUmBB5Wc4CixGZMfak54UufydiPT7EdElEQCGoR4pvpnKfOGMwzu+7DLBsZ7eMe5+duyr5tbqg8tyjmUp4lckMir3RaQ1KcpV+6bs/Nrxt161VySMhAILKj/DUWAxKnnV0lr/9J+cnnJaVkZ+cYqYKRUA9qMekb8dOa0arMcXj3pxz10iGa/pHRPqZ8e+am7b4OC5OWJpRDzHMRiS3RHxnyli9dS9tS8edefFD4qE0VJgQeVnOAosxkxetbR2z/SfnlbmvDQiXh5uEwHQ6soccX2RY3UZtdWzltywTSQTMb1j0mzqWnpUUba/MEcsjIgXRsTjpfK/bssRXy8ivj5998BV7mvFWFNgQeVnOAosxkVetbS243E3nxz1tCilWBgRzzCnBmgJ/ZHSN3Iuv55SccXMRetvF8lET+9oCD849Q3tM3c88Lyc84tSpF+PiJOjtW4guiNFXFvmuDoVta92bb7YTe4YVwosqPwMR4HFhLjrinlHFfXiRSmlM3OOF0TE0VIBqIS9OeIHkePrKcdVHftO+EFatroulsmc3tGQ7njCKw/ZO3XwlIj03BzxvHjocsMZFfoRfx4R30kR10bEd+b2PeWGFBeUjjwTRYEFlZ/hKLCYFNsvO+XoIgafm1N6XkQ8NyJOiYhCMgCNLt8XKX0vl3Ftyvk7u/cdeu2cZdfvlksjTe9ojlMpltb65k45ocwxPxV5Qc4xP0XMj8b/dJzdEbExUmzIZWwoUmzYt29g/fF3rN7uqDKZFFhQ+RmOAouGcPeqUx8/OHXfSUUR81OO+TnSgog4MSIOkw7ApCgj4mcR0ZNSbIgcN9Vzff2sxRt/llJk8TSuNhE0yzx8dT364kcR8aOI+ML//Pdbjjv/8LY99adFKrojpe6I3BUR3RHRlSI6I2LKBDy9/ojojcibIqeH/rdIvfV63HLs1oHbUthmCQC0phnL1t0bEd96+J+IiMg50r1rF3TVUzq+zGVXiuhOKXXlHP8zj3uC5ABGZU9EbEoRm3JEb47YVKToLVPeNJCn/PjoRet2iaj5KLCa3PG3Lr8vIr778D+Pcstx5x8+de/grMFc6yhqMTPl6CgjdRSRp+aUDss5t6UctZzi8P/7dSnHQE7xQERESvFgyrGvzOneVJTbc6r1tw3m/pzq/Xun3tt//K1X7XUkAACG5qF3+Hs2RcR+7/mZP3Vq+/Zj9nTU6m0d9Vx2FEXRkSJ35Jw7IlItIj08bysfl6KYKlGgVeQUOyNHzqncl3I8GCntzpH7i1TsKOv1/ra29u0DD+7rn71sow8BqyAFVsU9XHDdFw9tkQQAoMGlN64biIg7Hv4HAAg3lAQAAACgwSmwAAAAAGhoCiwAAAAAGpoCCwAAAICGpsACAAAAoKEpsAAAAABoaAosAAAAABqaAgsAAACAhqbAAgAAAKChKbAAAAAAaGgKLAAAAAAamgILAAAAgIamwAIAAACgoSmwAAAAAGhoCiwAAAAAGpoCCwAAAICGpsACAAAAoKEpsAAAAABoaAosAAAAABqaAgsAAACAhqbAAgAAAKChKbAAAAAAaGgKLAAAAAAamgILAAAAgIamwAIAAACgoSmwAAAAAGhoCiwAAAAAGpoCCwAAAICGpsACAAAAoKEpsAAAAABoaAosAAAAABqaAgsAAACAhqbAAgAAAKChKbAAAAAAaGgKLAAAAAAamgILAAAAgIamwAIAAACgoSmwAAAAAGhoCiwAAAAAGpoCCwAAAICGpsACAAAAoKEpsAAAAABoaAosAAAAABqaAgsAAACAhqbAAgAAAKChKbAAAAAAaGgKLAAAAAAamgILAAAAgIamwAIAAACgoSmwAAAAAGhoCiwAAAAAGpoCCwAAAICGpsACAAAAoKEpsAAAAABoaAosAAAAABqaAgsAAACAhqbAAgAAAKChKbAAAAAAaGgKLAAAAAAamgILAAAAgIamwAIAAACgobWJAACgWnasWbApIrok0XL2RMTuh///AyliIEfek3Lqzyn158j9KfL2nIsdKZX9EamvXuTe2bdP2ZLeuG5AfAA0MgUWAABUw7SH/4mIODJHRESKnCIicqSH/z2lHPHwv9XKFP1PHKjvWLPg9hTRm1Nsipx/XET05DLf1HHOTVvECkAjUGABAEBrq0XE3BwxN3K8ICJFGRFRpNixZsE9EdETKW2IMv+gLIrrZi+68RaRATDRFFgAAMBjOTIifi1y/rVIEUUuY8eaBXdGpOtzju8URXndjG1TfuASRADGmwILAAAYjidE5HNSinNyTtH/xIFdO9YuuC6VcXnRVvvKkWffsFlEAIw1BRYAADAaj4scv5lT/Ga9Xv/YjjXzf5RSuqqe4rJZP+i5Nl3w0BWJADAaCiwAAGAMpafnHE8vcvxR/zMW3L5jTXyxSGn1kQvXX5tSZPkAMBKFCAAAgHHypIh4a5nzt/vXLujtX7vgw3dfvuBEsQAwXAosAABgIszNOf6oLGPDjjULfrB9zfw33LVq3qFiAWAoFFgAAMBEOzVF+lQxrbi9f838f7nrspNOEQkAB6LAAgAAJkk6PEd6Y5HyD7evWfCd/svmL82rltbkAsAvU2ABAACTLkU8N6e0qn/aT2/uv2zB27atPfVxUgHgfyiwAACABpKPyyk+NiUPbNq+dsG7FVkARCiwAACAxjQ75fhQex7YvGPN/PdsWXXadJEAtC4FFgAA0LBSxMyI9HfTpz3Yu2PN/Pds+mbXNKkAtB4FFgAA0AxmR6S/O+z+w3+6Y+2CV4kDoLUosAAAgGYyJ3J8bsfaBd+4c+28k8QB0BoUWAAAQPPJcUYt1364Y82Cz9952YlPEAhAtSmwAACAZl7PvLKWipu3r5n/hpwjiQSgugM+AABAMzsiRfrU3WsXXLP9sgUniAOgehRYAABAJeSIF6QUN2y/bMEF+VOntksEoDoUWAAAQJVMTyn+sv+JA9ftWDv/qeIAqAYFFgAAUEXPjJx+2H/Zgre5NxZA81NgAQAAVTU9p/hY/5oFV911xbyjxAHQvBRYAABAtaU4s6jXbuhfe9ILhQHQnBRYAABAKzgq5/zVHWtO+rt8gXUQQLMxcAMAAK0iReT33H3q/DU7L59/pDgAmocCCwAAaCk5p7MHy+J7d39l/nxpADQHBRYAANCC8nFlka7vX7vgpbIAaHwKLAAAoFUdknOs2n7ZggtEAdDYFFgAAEArSynFX25fs+Az+VOntosDoDEpsAAAgJaXIl7X/8TBK/qvfNbh0gBoPAosAACAiIjIv5UHd19zx5cWzJYFQGNRYAEAADzilLa2+Fb/lQuOEQVA41BgAQAA/KIT8mB8584vn/hkUQA0BgUWAADAo3XW2tK37758wYmiAJh8CiwAAID9yemJZRn/2b/mpHnCAJhcCiwAAIDHNjtH/saOtfOfKgqAyaPAAgAAOLDZkdPX7vnyyV2iAJgcCiwAAICDm1Ov5f/Y/sVTnygKgImnwAIAABiSfFxqH/jafV96aocsACaWAgsAAGDoTtzXNuXKbWtPfZwoACaOAgsAAGB4fnVKDF6UL7CeApgoBlwAAIDhynlp/6kL3i8IgImhwAIAABiJHH+yY82CNwsCYPwpsAAAAEbu4zvWLvgNMQCMLwUWAADAyLVFjlU71yzoFgXA+FFgAQAAjM6Meo4vbVl12nRRAIwPBRYAAMAo5RQnT5/24KckATA+FFgAAABj45X9axe8XgwAY0+BBQAAMEZyjn+8+yvz50sCYGwpsAAAAMbOtLJIK90PC2BsKbAAAADG1rxp0x78gBgAxo4CCwAAYIyliLdtv+zksyUBMDYUWAAAAGMvpVR+5udXnjJLFACjp8ACAAAYH0dNqdc/IQaA0VNgAQAAjJOc4+U71sxfIgmA0VFgAQAAjKv0ybtXnfp4OQCMnAILAABgfB1dTh98vxgARk6BBQAAMN5yfvPda096niAARkaBBQAAMAFrrzLnf8nfPL1NFAAjGERFAAAAMCHm7bj/nteJAWD4FFgAAAATJEX+m3u+fPIRkgAYHgUWAADAxJk1WNTfJwaA4VFgAQAATKBUpD/cftmCEyQBMHQKLAAAgImUoz1F/ltBAAydAgsAAGCipXTOjjUn/4ogAIZGgQUAADDxUkr1vxQDwNAosAAAACZBzuns/jULni0JgINTYAEAAEySHPmvpABwcAosAACASZNeePfak54nB4ADU2ABAABMojLyu6UAcGAKLAAAgMmUY9GOy098miAAHpsCCwAAYHKlVNbeLgaAx6bAAgAAmGQ58qvvumLeUZIA2D8FFgAAwOSbmgZrvy8GgP1TYAEAADSAlOJNedW8KZIAeDQFFgAAQGOYffe02iIxADyaAgsAAKBBlBGvlwLAoymwAAAAGkSKeOE9V5zSKQmAX6TAAgAAaKA12mB98HfFAPBLg6MIAAAAGkfK6XfzqqU1SQA8QoEFAADQSFIcs2PqT18gCIBHKLAAAAAaTIq8TAoAj1BgAQAANJic4qX5m6e3SQLgIQosAACABpMiZvbf23+6JAAeosACAABoQCkllxECPEyBBQAA0IDKFOf6NEKAhyiwAAAAGlCKmHn3lB8/SxIACiwAAICGVdbSi6QAoMACAABoWCmHAgsgFFgAAAANLJ16x5cWzJYD0OoUWAAAAA28ZmurpReKAWj5wVAEAAAADSyVZwoBaHUKLAAAgIaWnicDoNUpsAAAABpbV/+VC44RA9DKFFgAAACNbjA9RwhAK1NgAQAANLgc+blSAFqZAgsAAKDxKbCAlqbAAgAAaHwn3XH1gkPEALQqBRYAAEDja2vbl+aJAWhVCiwAAIAmkHKeLwWgVSmwAAAAmkBOocACWpYCCwAAoDksEAHQqhRYAAAAzSArsIDWpcACAABoDh13XTHvKDEArUiBBQAA0CTayrbjpAC0IgUWAABAkyjL6JIC0IoUWAAAAE0iRXRLAWhFCiwAAIAmkYuySwpAK1JgAQAANI1kBxbQkhRYAAAAzSK7hBBoTQosAACA5vFEEQCtSIEFAADQPKbetWreoWIAWo0CCwAAoIm0HzKlQwpAq1FgAQAANJHBPDhTCkCrUWABAAA00yIuF3ZgAa039okAAACgeZRR2oEFtBwFFgAAQBNJZXq8FIBWo8ACAABoIinFVCkArUaBBQAA0ERyZAUW0HIUWAAAAE0k5WKKFIBWo8ACAABoIjlCgQW0HAUWAABAE0kuIQRakAILAACgiWQ3cQdakAILaM2JX06DUoAqn+Qx0NoBGOOg2vOY7BwHWo4CC2jR0S/tFQJUWauf49kYB1Ue4cxjgFZcwokAaMmJXy73SQEqzDlujINKD3HOcaD1KLCAllRa3EGlpdTiuxOSMQ6qfYqHHVhAy1FgAa058cvJ4g4qrGzxS+iS3RlQaTnMY4DWo8ACWnX0M/GDCkstvssy24EFFR/jSjuwgBZcwgG04uKujAekAFVe3MWDLR6BMQ6qPMYVLT/GAS1IgQW05uCXol8KUF05x47WXt1mYxxUWBlphxSAllvDiQBoycVtKi3uoNLneNHi53hhcQtVPsPr5jFAC459IgBacnFbD4s7qPYEp7XP8dLiFip9irfXzGOAVpzfAbSetmizuIMKyy1+CV2yAwsqbereveYxQMtRYAEtqSzsToAqy/XWLrBcJg3VnsYcNjh/pxiAVqPAAlrS3L4VOyN8zDxUdoJTtPYlhKnM270KoJpyxN1p2eq6JICWm9+JAGjJxV1EjoitkoBqmr57cHNLL3Brtc1eBVDZOUyvFIBWpMACWtkmEUAlV3fbZ29f/UArR9CxcP22iNjjxQAVlBVYQGtSYAEmgEClpKycTilyRGzxaoAKnt/egANalAILaOURsFcIUEkWdw8tc41xUEE5mb8Arbp8A2jVpV3OJoBQQaX7wzw0xinyoKILuOzcBlp0/ANo3SHQBBAqyeIuIiInBRZUUVl4Aw5o0dWbCIDWnQC2b4yHPo0QqNbkZqMUInKZfyQFqJy9HbdPvVUMQIvO8QBaU3fvRTtTxFZJQLWUxdSbpBDRnmKDFKBacqSb0xvXDUgCaEUKLKDVJ4I9UoBKndR93b0X7RRExOMX9fRG5PskAdWRIpu3AC1LgQW0+ETQDgWo1kmdnNP/G0XkSIXdaFAh2c5KoIUpsAATQaAylNK/pLRbAyq1eCuNcUALj4EiAFp7IlhY3EGF5JTtOPq/lPRQLe1hjANad+0mAqCVzdmy58cR4R4xUBG1evFdKTwi5/J7UoDK2NZxVo8PnwFalgILaGkpVtcjwgIPquHOOVsv8fHy/8fMw2feGBEPSAKaX478HSkArUyBBZgQRlwrBajEyexc/iXpjGsGI8X3JQEVOJ9TMsYBLU2BBRgII5sQQiU4l/ertOiFSoxwyRgHtPq6DaDF7Z4+/b8joi4JaG5lTi6v2d9kL5XXSQGa3oMzD+lYLwagpec0IgBa3VN/8tn7I3xSFzS53bsfP3CjGB4t1WvXR0QpCWhq/53OuGZQDEArU2ABRESk+IYQoJlP4fjWvI2r90ni0Y4898adEfFDSUBTM08BWp4CCyAiUs5flQI0rzKSc/gAcspXSQGaeIzLyTkMtDwFFkBE7Juy81vho+ahiWc0pQLrQPHUlfTQxO6YtXj9jWIAWn4+IwKAiONvvWpvRFwjCWhKvd29K28Ww2Obse9p342IuyUBTSjF1SlFFgTQ6hRYAP87QXQJEjTp4s6lNQeLaNnqeo78dUlA88llmJ8AhAIL4JEFXnaPGGjSxd3VUhjKGJeulAI0nfrU+r7/EAOAAgvgf3X2rbgtIm6UBDSVB9rywNfEcHBttbwmInxSIzSXaw5/8c39YgBQYAH8ohyrhQBNdc6umbN19W5BHNwRCzfckyO+IQlopiEumZcAPEyBBfB/pBSXRrhRKjTP4i5WSWEYE7+U5QXNY7A+mL8sBoCH5zEiAHjEw5cR/lAS0BTuj9oU978azsRvsPblcBkhNIn8jaNe3HOXHAAenseIAOAXpUh2KEBz+Ep370V7xDB0R557486UshtCg/kIQNNRYAH8krKorwqXEYLFXUXlXHxBCtDw9rUP7vuKGAAeocAC+CXdvZf2RsQ3JQGNLN2xfdYhLh8cgd17HvfvEbFTEtDIQ1y6zKcPAvwiBRbAfuQcn5YCNPLiLn/2mesuHBDE8M1Zdv3uSLFSEtDAQ1zEZ6QA8IsUWAD7sevwgS9Fiu2SgIaUa/Xi38QwiglgWf6LFKBhbZmx+yn/KQaAX5q/iADg0eZtXL0v5bxcEtCQvjFn6yW3imHkZiy5qSd84io0pJTTp9Oy1XVJAPwiBRbAYyiL+FS4mTs0nJxdWjMmOabkUmlowOlHKgY/JwaAR1NgATyG7t6VN6eIb0sCGsqdg1Pv+bIYxmASWJu2IiLfJwloICkun7FoY58gAPYzdxEBwAHmkbn4iBSgoRZ3/3T8rVftFcTodZz13fuSXVjQUMoUH5YCwP4psAAOYM6WS9ZGpB9LAhrCrikD2c3Hx1ItPhYpfJojNIT8/dkLe+z8BngMCiyAA0gROUf5cUlAI6zt4rNHb1u5QxBjp+Osnq2RY7UkoAHmHDn+XgoAj02BBXDQkXLq5yLiTkHApKrXcqFMHo9gU/1DUoDJlSM2zTi8w/39AA60LBMBwIF19160J0e4bAkm11fmbL3kVjGMvScs2rg+UnxTEjB5UoqPpTOuGZQEwGNTYAEMabSc8rGI2CkImBQ5F/F+MYyfMsVfSgEmSco/3xftnxEEwEGWZCIAOLju3ot25giXL8GkyF/s7l1xoxzGz+yFPd+2CwsmSRkfOHrRul2CADgwBRbAUOeXbQMfjYi7JQETe+qVZfyNGMZfqpd/LgWYcNt27z30X8UAcHAKLIAhevJtq++NHB+RBEygHJceu3VljyDGX8c5N10XOa6WBEzkEJf/as6y63dLAuDgFFgAwzBtX+3jEXGXJGBC1HMt2301kYvpWv6ziMiSgAmxeeae8iIxAAyNAgtgGI668+IHU8T/JwmYEP/W3bvyZjFMnFkLN6yLiC9JAiZATn+elm3cJwiAoVFgAQzT3L5tn4zIN0kCxtX9uRh4nxgmXlvEuyNijyRgXP13x+L1y8UAMHQKLIBhSnHNYIr0DknAuJ5of93du/oOQUy8Ixb3bIoUH5UEjJscZbw9JZfrAgyHAgtgBDr7Vnw9Iq6UBIyLnw203/OPYpg85e76ByJimyRgHOS4eOY5Pd8VBMDwKLAARqhWFm+LCPeugDGWIr/j+Fuv2iuJyTN72cYHIvKfSQLG3K6Uyz8XA8DwKbAARmjO1ktujZztEoExlCKu7uxbuVYSk6/jhxs+HynsEoGxlOP9HefctEUQAMOnwAIYhSn1w/4iIn4mCRgTu1Kuv0UMjSFdEGVRz78XdprCGJ1UsaHjjvYPCwJgZBRYAKNw9LYLd0XKb4hwI1YYtZzfN3fLFxTCDWTGORs2RE4fkgSMWpkivzG9cd2AKABGRoEFMEpdm1d+I0dcLAkYlRs7t/z8E2JoPPe0P/j+iPwjScDI5YhPdCzacL0kAEZOgQUwBtrrbe+MiLskASMyGKl4XYprBkXReI4/69a9KcXrI6KUBoxIX95Tf58YAEZHgQUwBo65/fP9Oae3SgJGIKUPdm2+5IeCaFwdizZcHzn9syRg2HIq0hse+mRPAEZDgQUwRrq3LP9CRLpEEjAs6x48dN9fi6Hx3X/4ve+KiJskAcPyjx0L118tBoDRU2ABjKHH7d73poi4VRIwJA+WteL8eRtX+5S7JtB9Ru+eMqdXhU8lhCHKP9q955D3ygFgbCiwAMbQ7O2rH0iRXhMRdWnAQaT89mM3XfITQTTRGLdk/Q2Rs3v5wMHtrafyvDnLrt8tCoCxocACGGOdfcuvjRwfkAQcQIqvdG1e+RlBNJ+OGzZ8OCK+IQk4wBCX4z1PWLRxvSQAxo4CC2AcdG7Z9tcRca0kYD9y9LUNtr1eEE26ML8gytQWr46I7dKA/ZwjKV8xY3HPJyQBMLYUWADjMXmNawbLWn5JRL5dGvAL9haRXnrM7Z/vF0Xz6jirZ2vO6WURMSgN+AW97QMDr04psigAxpYCC2CcHLtp5Z2RYmm44TE8IuU/mLtl+fcF0fxmLVn/zZziTyUB/2tPTvGSw198s4IeYBwosADGUdfmldeniHdLAiIi8qfd96paZi7s+XCOvEoSEBGR3zRrUc8P5QAwPhRYAOOss2/FJ1Lkz0mCFndDrRx8mxiqJaXIeU/5uojYKA1a3CdmLt5wkRgAxo8CC2ACtA8e9uYU8T1J0Jry7W31tHjO1tU+Tr6CZi/b+ECZinNzxA5p0JJSfL3j5+3vEgTAeA+3AEyIbUe/Yua+tnR9RBwnDVrI/bmIF3T3rrhRFNW2Y+1Jvxo5fzMiHicNWkf+Ua1ee+6R5964UxYA48sOLIAJcvS2lTtykRdFxD3SoEXUU+TzlVetYeai9d9LOb8mIkpp0BJS/nmt1naW8gpgYiiwACZQd+/Km8sc50TEXmlQeTm/tbNv5VpBtI6OJRtWR0p/JglawO6op3OPPPuGzaIAmBgKLIAJduyWFd9KkV8fEVkaVFWK9HddW1Z+UhKtZ+ai9X+XIn9KElTYYE7xspnn9HxXFAATR4EFMAk6+1ZeEjn/gSSopJw/O7dv+Z8KonXN+OGGN0fECklQxREu5fTGWYt67C4FmGAKLIBJ0rVl5SdzpHdIgmpJl3RuOeH3kh2Grf0quCDKjj0nvCpSWi0NKiTnlN7csWT9Z0UBMAnzCxEATK7eOef9daR4nySowKziK52bty1Ncc2gMIiIyKvmTbl7Wu3LOeIsadD8L+j8nplLNnxIEACTww4sgEnWtWXFX0SKj0qCppbSVx88dOBlyit+4WWxbOO+val9acrxbWnQ3ENcXKC8ApjksVgEAJMvR6TNc877UKR4lzRowunEFbVy39I5W1fvlgX7c8fVCw5p2xdfiRy/KQ2acIz74MzF698rB4DJZQcWQCNMjSNy15YV704RJsg0lRxp1Y5Zh5yrvOJAjjqz58F7arsWRsRl0qCZhriU0h8prwAaZs0EQCPp7TzvDyLHJ4zRNME04pLOvttf67JBhtwGrJo3pX9qbXmkeKk0aPSXa+T81plLNvyTKAAagx1YAA2ma/OKf8qR3xQRpTRoWCn+ubPv+FcrrxjWy2bZxn0de094eUT+N2nQwOqR47XKK4BGm34C0JA2zTn/ZSnliyJimjRoIDlS/EXX5hXvFwUjfhFdEMXdz1jwwRzu+0fDeaBM+WWzF224UhQAjUWBBdDANnWd/+yU85rIMUsaNIB9KfLrOvtWXiIKxkL/2gWvzzn+OSLapMHkr4zyz3OKRbMWblgnDIAGHKZFANDY+ua87Mllql0RESdIg0l0Ty6KF3f3XnKNKBhL/WtPemHO5eqIdLg0mEQ3Fal+9oxFG/tEAdCY3AMLoMHN3fKFn9XKgeekiG9Jg0myKRf5OcorxkPHovVfK8p4XkRskQaTIsXXiz3tz1NeATQ2BRZAE5izdfXd+6bc88Ic8QlpMKFyvmawvfbs7t6VNwuD8TLjnA0bcq49O1K6ThpMpBTpwo5t7WfNWLbuXmkANPqYDUBT2Tz3vFfmiE9FxHRpMI5yjvhQV9/An6VYXRcHE/Ki++bpbf333/P+iPweaTDOHkiRXtexeP0qUQA0BwUWQBPq7Xz5KZGLL0ZEtzQYB/dHyq/t2rzyi6JgMmxfO/+8lNOnI+Jx0mAc3FIU8eIZC3tuEgVA81BgATSpbUe/YubetrQiRfyWNBg7+aayVnvpsZsu+YksmEx3XXHyyUVZ/nvkeLI0GENfSm3TX9tx1nfvEwVAc1FgATSxHJH65p731hzxwYiYKhFG83LKEZ+eOnjoO47eduEucdAItl92wmFFmvbhHPkN0mCUdqccf9KxpOfjogBoTgosgArYPPcV83JKKyLHAmkwAnelSK/r7Ft+uShoRP1rFrwkR1wYETOkwQisyznOn7Wkx85SgCbmUwgBKqCzb+XGnKY86+FPKcwSYahSxNciFScrr2hkHYt7vpjK8uSIfI00GIYcEZ/o2FN/jvIKoBLzVgCqZNMxr3hRKtK/RESnNDiAnZHyuzs3r/zXpPSkSeQLorj7GQvemiPeHxGHSIQD+ElZxO/NXtjzbVEAVIMCC6CCth39hsftbXvgL1LEuyKiJhF+yeVt9fSmY25fvlUUNKMda096UuT4p4h8jjT4JYMR6SP3H3bvBd1n9O4RB0B1KLAAKqy38+WnRC4+ExHPkAYR8fMU6a2dfcv/XRRUQf9l85fmlP5fRMySBhFxQ07x+lmLen4oCoDqcQ8sgArr2nzpDTtmHfrsHOlPI+IBibSswRzxiXrbwNOUV1RJx5INq6ek9qdHyp+NiFIiLeueiPTWjj0n/IryCqC67MACaBG9nb/zxJzLC1LE68Jlha3kP2tlesecrcs3iIIq2752wTOKHB/NES+QRssoI2L54GC866gX99wlDoBqU2ABtJjNc887tYz80RTp+dKorhxxSxHxZ519K1ZLg1ayfe2CRZHj4ymiWxqV9o0il++YseSmHlEAtAYFFkALyhGpd855L0tF/FXkeIpEKuXOFPG3Dxw28M/zNq7eJw5a0ZZVp02fPvXBt0eKd0fEkRKp1OplQy7jz2ct6VkjDIBW+xUAQMvKcUHRN/enL8kRH4iI4yTS1PpzxD8NTkn/cPyty+8TB0TctWreocW04i0R6b0RcYREmtrNkeJvO3afsDwtW10XB0DrUWABED849Q3ts7Y/8Ioc8ZcRcaxEmsr9OeKTZdvA3z75ttX3igMe7d6vzpuxb2/tramIt0eOx0ukqfTmyH8787COz6YzrhkUB0DrUmAB8L9uOe63p7YPHPHKyMU7I/LTJNLQtuXI/xjF1H/p7r1opzjg4H5+5Smz2gbqb0kp3hwRsyTSwIuUHDfmSB/pOPzISxVXAEQosADYjxyR+uae9xs54m0RsVAiDfWb+6cpxyfLYsqnunsv2iMQGL5brjxu6pH1x70scn5PRHq6RBrq98+1keKDMxf2XJ5SZIkA8Mg0GAAOYPPc807NOd4ZKV4SEVMlMinKFPEfZY6Pdm1Z8bUUFnUwFvIFUfQ/Y/6iSOltkeN0c+NJsytSvrRI6aMzFvbcJA4A9scvaQCGZFPXa44oyn3Lcs5vjpROksiE2JYjLi4iLuzsW3GbOGD83LX25ONTWZ6fUvxuRMyRyETIP4qIz08ZHPjM4S++uV8eAByIAguAYevtfPlzIorXR46lEXGoRMbUQKS4IqL8TOfm+ldT+LQtmEj5U6e29x81uCin/PoU8cKIqEllTFcf90YZK3MRn561qOeHAgFg6L9CAGCENnW9ZlpR7v2tHGlpRJwbyqyRqkfEf6eI1QPttZXH/eziu0QCk+++Lz21Y1/7lLMfLutfFBFtUhmR3RHxn5Fi9b5o//ejF63bJRIAhkuBBcCYuOMJrzxk95T6ohR5WaR0ZkQ8TioHNBAR30oRq9oH85eO3rZyh0igcW3/4qlPTG37XpIiLcspnhN2Zh3M/SnFFTnSqvsPvfeq7jN6fegEAKOiwAJgzOU4va1v7hOfXUZamCJ+MyKe4XdORETcGRFfSxFry2LKf3T3XrRTJNB87lo179A0vXZGkdPCnPNZkeIYqUSkiNtyxOVR5rX3TNn97ePPunWvVAAYw98zADC+bus+rzPV84tSKn4t5fy83Do3SN6RI1+XUvGtlMuvdvat3OjVANWSc6TtV558UlHmF6Wcn58jnhMRR7TEzx6xKUW+NuXim2UUX5215IZtXhEAjBcFFgAT7tajXz6nrb32/CjzaZHieRFxYjT/vWVypLgl5bgup/hORP26zs1fuDlFZEccWke+IIp7nrng6fUyPTdFfm6keE7keHIFVg0DkWN9pLg2lfnaMtquVVgBMLG/igBgkv3g1De0z9p+/1Mi0tPLiHkp4tSIeHpEdDfo76p7I+KmHLGxiPhRRF63e/r09U/9yWfvdzSBX9Z/5bMOL8tdx6ec5kWOUyPF0yPHSRExqzFXCPnnEWlj5PhRpFiXU964Z9ehP5qz7PrdjiYAk/brSQQANKpbjjv/8Nqesiul1F2k6CojuiNyd4o0J0XMzBEdMfY3i98bEf05oj/l2BpF9EbkTSmn3pTLTW311OuG68BYuONLC2a3FdGdaqkr57IrRXTnnLoevqdWR6ToiBztY/xtH4yI/ojYHpG25IhNKeXeHLGplmLTvvbYdNSZPQ86OgA0GgUWAE1tyzFLp+8tazNrU4qOokwdETE9Ik+PiMgpDk85ajnntpSiFpH+54bC90RElDn2FSkeTLncWa/FjkMerO+YvX31A1IFGkX/lc86vDa4u2MwpVlRLw+PWhyaymiPVKQyyiMiIlJK06KMgZxyvcjFYER5f0REGbVdKZW7i1zuKIta//2H3tvv0wABAAAAAAAAAAAAAAAAAAAAAAAAAAAAAAAAAAAAAAAAAACAFvb/A4wfIxkkxlvLAAAAJXRFWHRkYXRlOmNyZWF0ZQAyMDIxLTEyLTI3VDAwOjE0OjQ5KzAwOjAw+hVjpAAAACV0RVh0ZGF0ZTptb2RpZnkAMjAyMS0xMi0yN1QwMDoxNDo0OSswMDowMItI2xgAAAAASUVORK5CYII=;" vertex="1" parent="1">
                    <mxGeometry x="870" y="740" width="60" height="60" as="geometry"/>
                </mxCell>
            </root>
        </mxGraphModel>
    </diagram>
</mxfile>